<svg xmlns="http://www.w3.org/2000/svg" width="160" height="160" viewBox="0 0 160 160"><defs><clipPath id="a"><path data-name="사각형 488" d="M0 0h160v160H0z" fill="none"/></clipPath></defs><g data-name="그룹 1076"><g data-name="그룹 1075" clip-path="url(#a)"><path data-name="선 51" d="M80 39.222V0" stroke="#a095ff" stroke-miterlimit="10" stroke-width="1.5" fill="none"/></g></g><path data-name="선 52" d="M67.399 41.218L55.279 3.915" stroke="#a095ff" stroke-miterlimit="10" stroke-width="1.5" fill="none"/><path data-name="선 53" d="M56.031 47.01L32.977 15.279" stroke="#a095ff" stroke-miterlimit="10" stroke-width="1.5" fill="none"/><path data-name="선 54" d="M47.01 56.031L15.279 32.977" stroke="#a095ff" stroke-miterlimit="10" stroke-width="1.5" fill="none"/><path data-name="선 55" d="M41.218 67.399L3.915 55.279" stroke="#a095ff" stroke-miterlimit="10" stroke-width="1.5" fill="none"/><g data-name="그룹 1078"><g data-name="그룹 1077" clip-path="url(#a)"><path data-name="선 56" d="M39.222 80H0" stroke="#a095ff" stroke-miterlimit="10" stroke-width="1.5" fill="none"/></g></g><path data-name="선 57" d="M41.218 92.601l-37.303 12.12" stroke="#a095ff" stroke-miterlimit="10" stroke-width="1.5" fill="none"/><path data-name="선 58" d="M47.01 103.969l-31.731 23.054" stroke="#a095ff" stroke-miterlimit="10" stroke-width="1.5" fill="none"/><path data-name="선 59" d="M56.031 112.99l-23.054 31.731" stroke="#a095ff" stroke-miterlimit="10" stroke-width="1.5" fill="none"/><path data-name="선 60" d="M67.399 118.782l-12.12 37.303" stroke="#a095ff" stroke-miterlimit="10" stroke-width="1.5" fill="none"/><g data-name="그룹 1080"><g data-name="그룹 1079" clip-path="url(#a)"><path data-name="선 61" d="M80 120.778V160" stroke="#a095ff" stroke-miterlimit="10" stroke-width="1.5" fill="none"/></g></g><path data-name="선 62" d="M92.601 118.782l12.12 37.303" stroke="#a095ff" stroke-miterlimit="10" stroke-width="1.5" fill="none"/><path data-name="선 63" d="M103.969 112.99l23.054 31.731" stroke="#a095ff" stroke-miterlimit="10" stroke-width="1.5" fill="none"/><path data-name="선 64" d="M112.99 103.969l31.731 23.054" stroke="#a095ff" stroke-miterlimit="10" stroke-width="1.5" fill="none"/><path data-name="선 65" d="M118.782 92.601l37.303 12.12" stroke="#a095ff" stroke-miterlimit="10" stroke-width="1.5" fill="none"/><g data-name="그룹 1082"><g data-name="그룹 1081" clip-path="url(#a)"><path data-name="선 66" d="M120.778 80H160" stroke="#a095ff" stroke-miterlimit="10" stroke-width="1.5" fill="none"/></g></g><path data-name="선 67" d="M118.782 67.399l37.303-12.12" stroke="#a095ff" stroke-miterlimit="10" stroke-width="1.5" fill="none"/><path data-name="선 68" d="M112.99 56.031l31.731-23.054" stroke="#a095ff" stroke-miterlimit="10" stroke-width="1.5" fill="none"/><path data-name="선 69" d="M103.969 47.01l23.054-31.731" stroke="#a095ff" stroke-miterlimit="10" stroke-width="1.5" fill="none"/><path data-name="선 70" d="M92.601 41.218l12.12-37.303" stroke="#a095ff" stroke-miterlimit="10" stroke-width="1.5" fill="none"/><g data-name="그룹 1084"><g data-name="그룹 1083" clip-path="url(#a)"><path data-name="패스 8472" d="M88 80a8 8 0 11-8-8 8 8 0 018 8" fill="#a095ff"/></g></g></svg>