<svg width="54" height="54" viewBox="0 0 54 54" fill="none" xmlns="http://www.w3.org/2000/svg">
<path fill-rule="evenodd" clip-rule="evenodd" d="M43.7749 6.97283C42.5863 6.97283 41.6227 7.93639 41.6227 9.125C41.6227 10.3136 42.5863 11.2772 43.7749 11.2772C44.9635 11.2772 45.9271 10.3136 45.9271 9.125C45.9271 7.93639 44.9635 6.97283 43.7749 6.97283ZM39.6499 9.125C39.6499 6.84683 41.4967 5 43.7749 5C46.0531 5 47.8999 6.84683 47.8999 9.125C47.8999 11.4032 46.0531 13.25 43.7749 13.25C42.7339 13.25 41.7829 12.8644 41.0571 12.2281L29.7498 17.9744C29.7476 18.163 29.7327 18.3485 29.706 18.5301L40.5607 24.1392C41.3169 23.2005 42.4757 22.5999 43.7749 22.5999C46.0531 22.5999 47.8999 24.4468 47.8999 26.7249C47.8999 29.0031 46.0531 30.8499 43.7749 30.8499C41.4967 30.8499 39.6499 29.0031 39.6499 26.7249C39.6499 26.4823 39.6709 26.2445 39.7111 26.0133L28.9037 20.4286C28.1499 21.4142 26.9617 22.0499 25.6251 22.0499C24.7335 22.0499 23.9079 21.767 23.2333 21.2861L14.2566 25.848C14.3178 26.1306 14.35 26.424 14.35 26.7249C14.35 27.2999 14.2324 27.8473 14.0199 28.3446L22.416 32.933C23.1723 31.998 24.3289 31.4001 25.6251 31.4001C27.9033 31.4001 29.7501 33.2469 29.7501 35.5251C29.7501 35.8169 29.7198 36.1017 29.6621 36.3765L40.4566 42.4241C41.208 41.4085 42.4146 40.75 43.7749 40.75C46.0531 40.75 47.8999 42.5968 47.8999 44.875C47.8999 47.1532 46.0531 49 43.7749 49C41.4967 49 39.6499 47.1532 39.6499 44.875C39.6499 44.6812 39.6633 44.4905 39.6891 44.3039L28.7747 38.189C28.018 39.0827 26.8878 39.6501 25.6251 39.6501C23.3469 39.6501 21.5001 37.8032 21.5001 35.5251C21.5001 35.2663 21.5239 35.0131 21.5695 34.7675L12.7796 29.9639C12.0771 30.5188 11.1897 30.8499 10.225 30.8499C7.9468 30.8499 6.09998 29.0031 6.09998 26.7249C6.09998 24.4468 7.9468 22.5999 10.225 22.5999C11.4549 22.5999 12.5591 23.1382 13.3149 23.9921L21.8736 19.6426C21.6338 19.1196 21.5001 18.5379 21.5001 17.9249C21.5001 15.6468 23.3469 13.7999 25.6251 13.7999C27.1704 13.7999 28.5172 14.6496 29.2238 15.9073L39.8815 10.4911C39.7315 10.0635 39.6499 9.60379 39.6499 9.125ZM25.6251 15.7728C24.4365 15.7728 23.4729 16.7363 23.4729 17.9249C23.4729 19.1136 24.4365 20.0771 25.6251 20.0771C26.8137 20.0771 27.7773 19.1136 27.7773 17.9249C27.7773 16.7363 26.8137 15.7728 25.6251 15.7728ZM8.0728 26.7249C8.0728 25.5363 9.03636 24.5728 10.225 24.5728C11.4136 24.5728 12.3771 25.5363 12.3771 26.7249C12.3771 27.9136 11.4136 28.8771 10.225 28.8771C9.03636 28.8771 8.0728 27.9136 8.0728 26.7249ZM25.6251 33.3729C24.4365 33.3729 23.4729 34.3364 23.4729 35.5251C23.4729 36.7137 24.4365 37.6772 25.6251 37.6772C26.8137 37.6772 27.7773 36.7137 27.7773 35.5251C27.7773 34.3364 26.8137 33.3729 25.6251 33.3729ZM41.6227 26.7249C41.6227 25.5363 42.5863 24.5728 43.7749 24.5728C44.9635 24.5728 45.9271 25.5363 45.9271 26.7249C45.9271 27.9136 44.9635 28.8771 43.7749 28.8771C42.5863 28.8771 41.6227 27.9136 41.6227 26.7249ZM43.7749 42.7228C42.5863 42.7228 41.6227 43.6864 41.6227 44.875C41.6227 46.0636 42.5863 47.0272 43.7749 47.0272C44.9635 47.0272 45.9271 46.0636 45.9271 44.875C45.9271 43.6864 44.9635 42.7228 43.7749 42.7228Z" fill="#998EE8"/>
</svg>
