<svg width="54" height="54" viewBox="0 0 54 54" fill="none" xmlns="http://www.w3.org/2000/svg">
<path fill-rule="evenodd" clip-rule="evenodd" d="M43.775 6.97307C42.5864 6.97307 41.6229 7.93663 41.6229 9.12524C41.6229 10.3139 42.5864 11.2774 43.775 11.2774C44.9636 11.2774 45.9272 10.3139 45.9272 9.12524C45.9272 7.93663 44.9636 6.97307 43.775 6.97307ZM39.65 9.12524C39.65 6.84707 41.4969 5.00024 43.775 5.00024C46.0532 5.00024 47.9 6.84707 47.9 9.12524C47.9 11.4034 46.0532 13.2502 43.775 13.2502C42.734 13.2502 41.783 12.8646 41.0572 12.2284L29.7499 17.9747C29.7477 18.1632 29.7328 18.3487 29.7061 18.5304L40.5609 24.1395C41.317 23.2008 42.4759 22.6002 43.775 22.6002C46.0532 22.6002 47.9 24.447 47.9 26.7252C47.9 29.0034 46.0532 30.8502 43.775 30.8502C41.4969 30.8502 39.65 29.0034 39.65 26.7252C39.65 26.4825 39.671 26.2447 39.7112 26.0135L28.9038 20.4289C28.15 21.4145 26.9618 22.0502 25.6252 22.0502C24.7336 22.0502 23.908 21.7673 23.2334 21.2863L14.2567 25.8482C14.3179 26.1308 14.3501 26.4243 14.3501 26.7252C14.3501 27.3001 14.2325 27.8476 14.02 28.3448L22.4162 32.9333C23.1724 31.9982 24.329 31.4003 25.6252 31.4003C27.9034 31.4003 29.7502 33.2471 29.7502 35.5253C29.7502 35.8172 29.7199 36.102 29.6623 36.3767L40.4567 42.4244C41.2081 41.4088 42.4147 40.7502 43.775 40.7502C46.0532 40.7502 47.9 42.5971 47.9 44.8752C47.9 47.1534 46.0532 49.0002 43.775 49.0002C41.4969 49.0002 39.65 47.1534 39.65 44.8752C39.65 44.6815 39.6634 44.4908 39.6893 44.3041L28.7748 38.1892C28.0181 39.0829 26.8879 39.6503 25.6252 39.6503C23.347 39.6503 21.5002 37.8035 21.5002 35.5253C21.5002 35.2665 21.524 35.0133 21.5696 34.7677L12.7797 29.9641C12.0772 30.519 11.1898 30.8502 10.2251 30.8502C7.94692 30.8502 6.1001 29.0034 6.1001 26.7252C6.1001 24.447 7.94692 22.6002 10.2251 22.6002C11.455 22.6002 12.5592 23.1385 13.315 23.9923L21.8737 19.6428C21.6339 19.1199 21.5002 18.5381 21.5002 17.9252C21.5002 15.647 23.347 13.8002 25.6252 13.8002C27.1705 13.8002 28.5173 14.6499 29.2239 15.9075L39.8816 10.4913C39.7316 10.0638 39.65 9.60404 39.65 9.12524ZM25.6252 15.773C24.4366 15.773 23.473 16.7366 23.473 17.9252C23.473 19.1138 24.4366 20.0774 25.6252 20.0774C26.8138 20.0774 27.7774 19.1138 27.7774 17.9252C27.7774 16.7366 26.8138 15.773 25.6252 15.773ZM8.07292 26.7252C8.07292 25.5366 9.03648 24.573 10.2251 24.573C11.4137 24.573 12.3773 25.5366 12.3773 26.7252C12.3773 27.9138 11.4137 28.8774 10.2251 28.8774C9.03648 28.8774 8.07292 27.9138 8.07292 26.7252ZM25.6252 33.3731C24.4366 33.3731 23.473 34.3367 23.473 35.5253C23.473 36.7139 24.4366 37.6775 25.6252 37.6775C26.8138 37.6775 27.7774 36.7139 27.7774 35.5253C27.7774 34.3367 26.8138 33.3731 25.6252 33.3731ZM41.6229 26.7252C41.6229 25.5366 42.5864 24.573 43.775 24.573C44.9636 24.573 45.9272 25.5366 45.9272 26.7252C45.9272 27.9138 44.9636 28.8774 43.775 28.8774C42.5864 28.8774 41.6229 27.9138 41.6229 26.7252ZM43.775 42.7231C42.5864 42.7231 41.6229 43.6866 41.6229 44.8752C41.6229 46.0639 42.5864 47.0274 43.775 47.0274C44.9636 47.0274 45.9272 46.0639 45.9272 44.8752C45.9272 43.6866 44.9636 42.7231 43.775 42.7231Z" fill="#363A3F"/>
</svg>
