<svg width="1920" height="1294" viewBox="0 0 1920 1294" fill="none" xmlns="http://www.w3.org/2000/svg">
<path d="M455.747 310.45V321.401H454.127V318.94H449.287V317.607H454.127V315.146H449.471C448.272 318.079 445.462 320.202 441.555 321.36L440.879 320.089C445.277 318.787 448.036 316.315 448.354 313.157H441.801V311.804H450.107C450.107 312.521 450.025 313.208 449.871 313.854H454.127V310.45H455.747ZM443.688 325.072C443.678 322.898 446.047 321.586 449.779 321.586C453.47 321.586 455.849 322.898 455.849 325.072C455.849 327.256 453.47 328.579 449.779 328.579C446.047 328.579 443.678 327.256 443.688 325.072ZM445.267 325.072C445.277 326.446 447.031 327.277 449.779 327.267C452.486 327.277 454.239 326.446 454.25 325.072C454.239 323.698 452.486 322.868 449.779 322.878C447.031 322.868 445.277 323.698 445.267 325.072ZM473.476 310.43V321.483H471.856V317.32H468.759V315.987H471.856V310.43H473.476ZM458.382 313.67V312.357H462.915V310.266H464.494V312.357H469.026V313.67H458.382ZM459.469 317.854C459.469 315.946 461.223 314.613 463.694 314.613C466.175 314.613 467.919 315.946 467.939 317.854C467.919 319.822 466.175 321.114 463.694 321.114C461.223 321.114 459.469 319.822 459.469 317.854ZM461.007 317.854C461.007 319.063 462.105 319.863 463.694 319.884C465.283 319.863 466.38 319.063 466.38 317.854C466.38 316.685 465.283 315.864 463.694 315.864C462.105 315.864 461.007 316.685 461.007 317.854ZM461.561 328.415V322.468H473.476V328.415H461.561ZM463.161 327.103H471.897V323.76H463.161V327.103ZM490.344 310.43V314.552H493.092V315.905H490.344V319.781H488.745V310.43H490.344ZM476.871 319.063V311.64H485.299V319.063H476.871ZM478.04 328.169V321.422H479.598V326.846C480.654 326.805 482.059 326.651 483.351 326.221L483.597 327.513C481.823 328.097 480.09 328.179 478.901 328.169H478.04ZM478.45 317.771H483.741V312.952H478.45V317.771ZM482.961 322.837V321.606H486.796V319.986H488.375V321.606H492.169V322.837H482.961ZM484.171 326.057C484.161 324.478 485.545 323.503 487.555 323.493C489.555 323.503 490.959 324.478 490.98 326.057C490.959 327.636 489.555 328.62 487.555 328.62C485.545 328.62 484.161 327.636 484.171 326.057ZM485.607 326.057C485.607 326.928 486.417 327.492 487.555 327.472C488.693 327.492 489.503 326.928 489.503 326.057C489.503 325.206 488.693 324.652 487.555 324.642C486.417 324.652 485.607 325.206 485.607 326.057ZM508.443 312.275V314.101C508.422 316.336 508.422 318.838 507.766 322.509L506.125 322.324C506.812 318.838 506.812 316.285 506.823 314.101V313.608H495.584V312.275H508.443ZM493.821 326.077V324.744H500.342V318.223H501.921V324.744H510.432V326.077H493.821ZM530.654 310.43V315.987H533.402V317.341H530.654V323.883H529.054V310.43H530.654ZM516.749 316.213C516.739 313.567 518.81 311.732 521.528 311.722C524.265 311.732 526.306 313.567 526.326 316.213C526.306 318.848 524.265 320.704 521.528 320.704C518.81 320.704 516.739 318.848 516.749 316.213ZM518.328 316.213C518.318 318.007 519.723 319.289 521.528 319.289C523.363 319.289 524.737 318.007 524.747 316.213C524.737 314.408 523.363 313.137 521.528 313.137C519.723 313.137 518.318 314.408 518.328 316.213ZM519.251 328.271V322.488H520.83V326.918H531.494V328.271H519.251ZM549.244 310.43V321.299H547.624V316.521H543.953V315.188H547.624V310.43H549.244ZM534.212 319.843C536.919 318.869 538.847 316.397 538.847 313.793V313.116H534.725V311.763H544.548V313.116H540.467V313.772C540.467 316.151 542.292 318.417 544.958 319.33L544.117 320.622C542.077 319.884 540.487 318.346 539.698 316.469C538.919 318.602 537.227 320.304 535.053 321.135L534.212 319.843ZM537.083 325.257C537.073 323.114 539.401 321.863 543.194 321.873C546.978 321.863 549.306 323.114 549.306 325.257C549.306 327.41 546.978 328.641 543.194 328.661C539.401 328.641 537.073 327.41 537.083 325.257ZM538.683 325.257C538.673 326.58 540.395 327.379 543.194 327.369C545.984 327.379 547.706 326.58 547.706 325.257C547.706 323.924 545.984 323.124 543.194 323.124C540.395 323.124 538.673 323.924 538.683 325.257ZM558.196 313.793C558.196 316.162 560.022 318.428 562.688 319.351L561.847 320.622C559.796 319.884 558.207 318.356 557.427 316.479C556.638 318.571 554.946 320.253 552.782 321.053L551.941 319.781C554.628 318.817 556.576 316.387 556.576 313.813V313.014H552.454V311.701H562.277V313.014H558.196V313.793ZM554.71 323.657V322.324H566.974V328.661H565.354V323.657H554.71ZM561.703 316.562V315.208H565.354V310.43H566.974V321.36H565.354V316.562H561.703ZM584.642 310.45V323.78H583.042V310.45H584.642ZM570.02 316.192C570.009 313.567 572.07 311.732 574.798 311.722C577.525 311.732 579.566 313.567 579.576 316.192C579.566 318.848 577.525 320.694 574.798 320.684C572.07 320.694 570.009 318.848 570.02 316.192ZM571.599 316.192C571.578 318.007 572.952 319.269 574.798 319.269C576.613 319.269 577.997 318.007 577.997 316.192C577.997 314.408 576.613 313.137 574.798 313.137C572.952 313.137 571.578 314.408 571.599 316.192ZM572.87 328.271V322.427H574.47V326.918H585.216V328.271H572.87ZM469.077 339.43V357.661H467.498V348.125H464.975V356.759H463.437V339.922H464.975V346.792H467.498V339.43H469.077ZM453.532 352.616C457.767 350.248 459.51 346.915 459.787 343.142H454.229V341.809H461.366C461.345 346.443 459.715 350.822 454.475 353.744L453.532 352.616ZM473.599 340.209V342.834H478.911V340.209H480.51V348.146H472.02V340.209H473.599ZM473.599 346.833H478.911V344.085H473.599V346.833ZM473.866 351.017V349.725H485.494V354.134H475.486V356.144H486.17V357.456H473.907V352.903H483.894V351.017H473.866ZM483.894 348.863V339.43H485.494V343.388H488.242V344.741H485.494V348.863H483.894ZM504.023 339.45V352.78H502.423V339.45H504.023ZM489.401 345.192C489.391 342.567 491.452 340.732 494.179 340.722C496.907 340.732 498.947 342.567 498.958 345.192C498.947 347.848 496.907 349.694 494.179 349.684C491.452 349.694 489.391 347.848 489.401 345.192ZM490.98 345.192C490.959 347.007 492.333 348.269 494.179 348.269C495.994 348.269 497.378 347.007 497.378 345.192C497.378 343.408 495.994 342.137 494.179 342.137C492.333 342.137 490.959 343.408 490.98 345.192ZM492.251 357.271V351.427H493.851V355.918H504.597V357.271H492.251ZM521.732 339.45V353.293H520.112V351.406H516.338V350.237H520.112V339.45H521.732ZM506.597 347.899C509.991 347.879 514.564 347.848 518.471 347.366L518.574 348.535C516.954 348.792 515.241 348.956 513.57 349.058V352.657H511.95V349.14C510.104 349.212 508.35 349.212 506.823 349.212L506.597 347.899ZM508.074 343.367C508.063 341.45 509.889 340.188 512.585 340.188C515.262 340.188 517.087 341.45 517.097 343.367C517.087 345.315 515.262 346.525 512.585 346.525C509.889 346.525 508.063 345.315 508.074 343.367ZM509.222 357.271V351.939H510.842V355.918H522.183V357.271H509.222ZM509.612 343.367C509.591 344.557 510.801 345.326 512.585 345.336C514.318 345.326 515.549 344.557 515.559 343.367C515.549 342.198 514.318 341.398 512.585 341.419C510.801 341.398 509.591 342.198 509.612 343.367ZM538.795 340.619V348.043H530.243V340.619H538.795ZM531.556 356.349C534.694 356 537.708 354.226 537.708 352.411H532.315V351.16H537.729V349.376H539.328V351.16H544.783V352.411H539.369C539.359 354.185 542.292 355.959 545.419 356.349L544.865 357.6C542.128 357.22 539.626 355.928 538.539 354.247C537.442 355.969 534.878 357.22 532.13 357.6L531.556 356.349ZM531.823 346.771H537.216V341.932H531.823V346.771ZM542.733 349.909V339.43H544.312V349.909H542.733ZM566.974 351.181V357.661H565.354V352.473H554.71V351.181H566.974ZM552.147 344.823C552.136 342.28 554.156 340.465 556.884 340.476C558.463 340.465 559.806 341.091 560.647 342.116H565.354V339.43H566.974V350.176H565.354V347.551H560.657C559.816 348.586 558.473 349.202 556.884 349.191C554.156 349.212 552.136 347.417 552.147 344.823ZM553.685 344.823C553.685 346.597 555.018 347.838 556.884 347.838C558.678 347.838 560.042 346.597 560.042 344.823C560.042 343.111 558.678 341.85 556.884 341.85C555.018 341.85 553.685 343.111 553.685 344.823ZM561.385 346.218H565.354V343.449H561.375C561.519 343.88 561.601 344.331 561.601 344.823C561.601 345.315 561.519 345.787 561.385 346.218ZM586.61 342.301V343.654H583.842V346.136H586.61V347.51H583.842V350.483H582.242V339.45H583.842V342.301H586.61ZM570.368 341.911V340.578H578.633V345.5H571.988V348.043C575.229 348.053 577.577 347.93 580.417 347.448L580.581 348.802C577.659 349.284 575.218 349.396 571.824 349.396H570.409V344.229H577.054V341.911H570.368ZM571.947 354.339C571.937 352.247 574.234 351.006 577.997 351.017C581.719 351.006 584.006 352.247 584.006 354.339C584.006 356.42 581.719 357.62 577.997 357.62C574.234 357.62 571.937 356.42 571.947 354.339ZM573.526 354.339C573.506 355.61 575.198 356.379 577.997 356.369C580.755 356.379 582.437 355.61 582.447 354.339C582.437 353.057 580.755 352.288 577.997 352.288C575.198 352.288 573.506 353.057 573.526 354.339Z" fill="#F8F9FA"/>
<path d="M960.5 75.5C975.391 75.5 992.835 70.1446 1008 63.9754C1033.31 53.6794 1059.8 45.5 1087.06 45.5H1100C1182.57 45.5 1249.5 112.433 1249.5 195V207.945C1249.5 235.198 1241.32 261.686 1231.02 286.998C1224.86 302.165 1219.5 319.609 1219.5 334.5C1219.5 349.391 1224.86 366.835 1231.02 382.002C1241.32 407.314 1249.5 433.803 1249.5 461.055V474C1249.5 556.567 1182.57 623.5 1100 623.5H1088.75C1060.44 623.5 1033.01 614.549 1006.69 603.877C991.831 597.852 974.947 592.901 960.479 593.5C949.445 593.958 936.991 597.761 925.47 602.501C898.231 613.707 869.934 623.5 840.575 623.5H821C738.435 623.5 671.5 556.147 671.5 473.578C671.5 438.692 685.464 405.503 700.611 373.94C706.782 361.082 711.5 347.13 711.5 334.5C711.5 321.87 706.782 307.918 700.611 295.06C685.464 263.497 671.5 230.308 671.5 195.422C671.5 112.854 738.435 45.5 821 45.5H833.945C861.198 45.5 887.686 53.6794 912.998 63.9754C928.165 70.1446 945.609 75.5 960.5 75.5Z" stroke="white" stroke-opacity="0.2"/>
<g filter="url(#filter0_b_326_961)">
<path fill-rule="evenodd" clip-rule="evenodd" d="M960.5 222.965C951.865 279.882 906.882 324.865 849.965 333.5C906.882 342.135 951.865 387.118 960.5 444.035C969.135 387.118 1014.12 342.135 1071.04 333.5C1014.12 324.865 969.135 279.882 960.5 222.965ZM1110.96 333.5C1174.39 323.877 1223 269.115 1223 203C1223 130.098 1163.9 71 1091 71C1024.89 71 970.123 119.607 960.5 183.035C950.877 119.607 896.115 71 830 71C757.098 71 698 130.098 698 203C698 269.115 746.607 323.877 810.035 333.5C746.607 343.123 698 397.885 698 464C698 536.902 757.098 596 830 596C896.115 596 950.877 547.393 960.5 483.965C970.123 547.393 1024.89 596 1091 596C1163.9 596 1223 536.902 1223 464C1223 397.885 1174.39 343.123 1110.96 333.5Z" fill="url(#paint0_linear_326_961)" fill-opacity="0.2"/>
<path d="M849.965 333.5L849.89 333.006V333.994L849.965 333.5ZM960.5 222.965L960.994 222.89H960.006L960.5 222.965ZM960.5 444.035L960.006 444.11H960.994L960.5 444.035ZM1071.04 333.5L1071.11 333.994V333.006L1071.04 333.5ZM1110.96 333.5L1110.89 333.006V333.994L1110.96 333.5ZM960.5 183.035L960.006 183.11H960.994L960.5 183.035ZM810.035 333.5L810.11 333.994V333.006L810.035 333.5ZM960.5 483.965L960.994 483.89H960.006L960.5 483.965ZM850.04 333.994C907.173 325.326 952.326 280.173 960.994 223.04L960.006 222.89C951.403 279.59 906.59 324.403 849.89 333.006L850.04 333.994ZM960.994 443.96C952.326 386.827 907.173 341.674 850.04 333.006L849.89 333.994C906.59 342.597 951.403 387.41 960.006 444.11L960.994 443.96ZM960.994 444.11C969.597 387.41 1014.41 342.597 1071.11 333.994L1070.96 333.006C1013.83 341.674 968.674 386.827 960.006 443.96L960.994 444.11ZM960.006 223.04C968.674 280.173 1013.83 325.326 1070.96 333.994L1071.11 333.006C1014.41 324.403 969.597 279.59 960.994 222.89L960.006 223.04ZM1111.04 333.994C1174.71 324.335 1223.5 269.366 1223.5 203H1222.5C1222.5 268.864 1174.08 323.419 1110.89 333.006L1111.04 333.994ZM1223.5 203C1223.5 129.822 1164.18 70.5 1091 70.5V71.5C1163.63 71.5 1222.5 130.375 1222.5 203H1223.5ZM1091 70.5C1024.63 70.5 969.665 119.291 960.006 182.96L960.994 183.11C970.581 119.923 1025.14 71.5 1091 71.5V70.5ZM960.994 182.96C951.335 119.291 896.366 70.5 830 70.5V71.5C895.864 71.5 950.419 119.923 960.006 183.11L960.994 182.96ZM830 70.5C756.822 70.5 697.5 129.822 697.5 203H698.5C698.5 130.375 757.375 71.5 830 71.5V70.5ZM697.5 203C697.5 269.366 746.291 324.335 809.96 333.994L810.11 333.006C746.923 323.419 698.5 268.864 698.5 203H697.5ZM809.96 333.006C746.291 342.665 697.5 397.634 697.5 464H698.5C698.5 398.136 746.923 343.581 810.11 333.994L809.96 333.006ZM697.5 464C697.5 537.178 756.822 596.5 830 596.5V595.5C757.375 595.5 698.5 536.625 698.5 464H697.5ZM830 596.5C896.366 596.5 951.335 547.709 960.994 484.04L960.006 483.89C950.419 547.077 895.864 595.5 830 595.5V596.5ZM1091 595.5C1025.14 595.5 970.581 547.077 960.994 483.89L960.006 484.04C969.665 547.709 1024.63 596.5 1091 596.5V595.5ZM1222.5 464C1222.5 536.625 1163.63 595.5 1091 595.5V596.5C1164.18 596.5 1223.5 537.178 1223.5 464H1222.5ZM1110.89 333.994C1174.08 343.581 1222.5 398.136 1222.5 464H1223.5C1223.5 397.634 1174.71 342.665 1111.04 333.006L1110.89 333.994Z" fill="#F8F9FA" fill-opacity="0.15"/>
</g>
<path d="M757.897 203.069C757.753 201.685 756.543 200.896 754.841 200.896C753.026 200.896 751.878 201.829 751.867 203.09C751.867 204.495 753.395 205.048 754.574 205.325L756.01 205.715C757.907 206.176 760.286 207.212 760.296 209.898C760.286 212.411 758.286 214.246 754.779 214.246C751.457 214.246 749.365 212.585 749.222 209.878H751.478C751.611 211.498 753.046 212.267 754.779 212.277C756.676 212.267 758.05 211.313 758.061 209.857C758.05 208.565 756.82 208.042 755.251 207.622L753.487 207.15C751.098 206.494 749.622 205.284 749.611 203.213C749.622 200.649 751.898 198.947 754.902 198.947C757.917 198.947 760.019 200.67 760.091 203.069H757.897ZM763.444 214H761.045L766.377 199.152H768.981L774.334 214H771.935L770.581 210.083H764.798L763.444 214ZM765.444 208.196H769.925L767.73 201.859H767.628L765.444 208.196ZM775.801 214V199.152H781.092C784.547 199.152 786.239 201.224 786.239 203.972C786.239 206.709 784.537 208.791 781.092 208.791H778.057V214H775.801ZM778.057 206.863H780.866C783.05 206.874 783.963 205.643 783.963 203.972C783.963 202.29 783.05 201.09 780.866 201.08H778.057V206.863ZM802.954 203.992C802.595 202.075 801.006 201.008 799.119 201.019C796.555 201.008 794.658 202.977 794.648 206.576C794.658 210.196 796.566 212.144 799.119 212.134C800.985 212.144 802.564 211.098 802.954 209.201L805.23 209.222C804.759 212.154 802.369 214.205 799.098 214.205C795.233 214.205 792.413 211.324 792.413 206.576C792.413 201.829 795.253 198.947 799.098 198.947C802.236 198.947 804.728 200.803 805.23 203.992H802.954ZM811.865 214.226C808.584 214.226 806.564 211.959 806.574 208.504C806.564 205.079 808.614 202.721 811.721 202.721C814.254 202.721 816.664 204.29 816.664 208.319V209.099H808.748C808.809 211.221 810.06 212.421 811.885 212.421C813.126 212.421 813.936 211.888 814.305 211.211H816.52C816.028 213.016 814.316 214.226 811.865 214.226ZM808.758 207.458H814.51C814.51 205.766 813.413 204.515 811.742 204.525C809.988 204.515 808.85 205.889 808.758 207.458ZM818.418 214V202.864H820.53V204.628H820.653C821.063 203.438 822.181 202.69 823.483 202.7C823.75 202.69 824.18 202.721 824.406 202.741V204.833C824.221 204.792 823.709 204.7 823.257 204.71C821.74 204.7 820.612 205.756 820.612 207.212V214H818.418ZM831.492 202.864V204.607H829.215V210.719C829.226 211.98 829.841 212.206 830.548 212.216C830.866 212.216 831.348 212.185 831.656 212.154V214.062C831.358 214.103 830.887 214.144 830.282 214.144C828.569 214.144 827.021 213.2 827.042 211.17V204.607H825.401V202.864H827.042V200.198H829.215V202.864H831.492ZM833.205 214V202.864H835.399V214H833.205ZM832.917 199.85C832.928 199.132 833.553 198.558 834.312 198.558C835.061 198.558 835.686 199.132 835.686 199.85C835.686 200.567 835.061 201.152 834.312 201.142C833.553 201.152 832.928 200.567 832.917 199.85ZM842.956 202.864V204.607H840.557V214H838.363V204.607H836.64V202.864H838.363V201.572C838.373 199.583 839.644 198.455 841.685 198.455C842.208 198.455 842.751 198.517 843.182 198.599V200.424C842.772 200.362 842.454 200.342 842.259 200.342C841.1 200.342 840.557 200.813 840.557 201.9V202.864H842.956ZM844.526 214V202.864H846.72V214H844.526ZM844.239 199.85C844.249 199.132 844.874 198.558 845.633 198.558C846.382 198.558 847.007 199.132 847.007 199.85C847.007 200.567 846.382 201.152 845.633 201.142C844.874 201.152 844.249 200.567 844.239 199.85ZM853.765 214.226C850.484 214.226 848.464 211.959 848.474 208.504C848.464 205.079 850.514 202.721 853.621 202.721C856.154 202.721 858.564 204.29 858.564 208.319V209.099H850.648C850.709 211.221 851.96 212.421 853.785 212.421C855.026 212.421 855.836 211.888 856.205 211.211H858.42C857.928 213.016 856.216 214.226 853.765 214.226ZM850.658 207.458H856.41C856.41 205.766 855.313 204.515 853.642 204.525C851.888 204.515 850.75 205.889 850.658 207.458ZM864.481 214.226C861.794 214.215 859.825 212.052 859.825 208.463C859.825 204.833 861.825 202.721 864.501 202.721C866.572 202.721 867.321 203.972 867.721 204.669H867.823V199.152H870.018V214H867.885V212.257H867.721C867.311 212.985 866.511 214.215 864.481 214.226ZM862.061 208.422C862.05 210.657 863.055 212.349 864.973 212.359C866.839 212.349 867.885 210.76 867.885 208.422C867.885 206.104 866.86 204.577 864.973 204.587C863.035 204.577 862.05 206.228 862.061 208.422ZM891.736 197.389V210.739H889.788V197.389H891.736ZM876.868 203.172C876.878 200.516 878.991 198.629 881.77 198.619C884.538 198.629 886.65 200.516 886.65 203.172C886.65 205.869 884.538 207.745 881.77 207.745C878.991 207.745 876.878 205.869 876.868 203.172ZM878.775 203.172C878.765 204.905 880.057 206.043 881.77 206.043C883.451 206.043 884.743 204.905 884.743 203.172C884.743 201.48 883.451 200.321 881.77 200.321C880.057 200.321 878.765 201.48 878.775 203.172ZM879.719 215.354V209.386H881.687V213.774H892.29V215.354H879.719ZM902.985 198.476V203.828H896.915V206.371C900.114 206.371 901.857 206.299 903.929 205.92L904.113 207.499C901.868 207.878 899.981 207.94 896.32 207.95H894.987V202.352H901.037V200.034H894.967V198.476H902.985ZM897.079 211.19V209.611H909.548V215.764H907.6V211.19H897.079ZM904.154 205.448V203.89H907.6V201.613H904.154V200.055H907.6V197.389H909.548V208.688H907.6V205.448H904.154Z" fill="#F8F9FA"/>
<path d="M1038.75 198.517V200.137C1038.75 201.88 1038.75 203.777 1038.24 206.392H1040.89V207.991H1033.44V215.764H1031.47V207.991H1024.13V206.392H1036.27C1036.81 203.767 1036.81 201.849 1036.82 200.137V200.116H1026.18V198.517H1038.75ZM1058.61 206.556V208.114H1051.19V210.042H1056.56V215.702H1054.59V211.621H1043.73V210.042H1049.26V208.114H1041.86V206.556H1058.61ZM1042.76 204.177C1046.41 203.838 1048.93 202.505 1049.15 200.67H1043.54V199.132H1049.26V197.307H1051.19V199.132H1056.93V200.67H1051.3C1051.5 202.505 1054.01 203.838 1057.69 204.177L1057.08 205.633C1053.91 205.346 1051.35 204.29 1050.23 202.557C1049.09 204.29 1046.53 205.346 1043.38 205.633L1042.76 204.177ZM1065.91 198.455L1061.13 216.235H1059.18L1063.96 198.455H1065.91ZM1076.05 198.824C1076.04 203.695 1073.67 207.232 1067.66 209.222L1066.88 207.684C1069.87 206.709 1071.77 205.387 1072.85 203.767L1067.13 204.238L1066.82 202.659L1073.57 202.372C1073.79 201.747 1073.93 201.09 1074 200.403H1067.74V198.824H1076.05ZM1070 215.354V209.652H1071.97V213.774H1082.28V215.354H1070ZM1075.99 204.73V203.131H1079.82V197.389H1081.77V210.985H1079.82V204.73H1075.99ZM1099.5 197.368V206.822H1097.55V202.105H1093.67V200.526H1097.55V197.368H1099.5ZM1084.12 205.346C1086.99 204.433 1088.7 202.146 1088.71 199.562V197.963H1090.64V199.562C1090.64 201.9 1092.32 204.074 1095.09 204.956L1094.06 206.474C1092.04 205.776 1090.52 204.392 1089.71 202.639C1088.91 204.618 1087.34 206.156 1085.16 206.904L1084.12 205.346ZM1087.48 209.222V207.684H1099.5V212.257H1089.43V213.959H1100.13V215.518H1087.52V210.78H1097.57V209.222H1087.48ZM1111.79 198.701V200.26H1104.92V202.29H1111.28V203.828H1104.92V205.92C1108.59 205.94 1110.74 205.879 1113.23 205.448L1113.43 207.027C1110.78 207.458 1108.49 207.53 1104.47 207.52H1102.95V198.701H1111.79ZM1104.74 212.318C1104.74 210.175 1107.09 208.935 1110.99 208.935C1114.84 208.935 1117.24 210.175 1117.25 212.318C1117.24 214.482 1114.84 215.712 1110.99 215.702C1107.09 215.712 1104.74 214.482 1104.74 212.318ZM1106.69 212.318C1106.68 213.518 1108.26 214.195 1110.99 214.205C1113.68 214.195 1115.31 213.518 1115.3 212.318C1115.31 211.149 1113.68 210.462 1110.99 210.473C1108.26 210.462 1106.68 211.149 1106.69 212.318ZM1115.2 208.688V197.389H1117.15V208.688H1115.2ZM1139.66 197.389V208.258H1137.72V206.022H1133.08V204.423H1137.72V202.188H1133.28C1132.09 205.141 1129.33 207.222 1125.35 208.36L1124.57 206.843C1128.92 205.602 1131.46 203.264 1131.81 200.301H1125.51V198.701H1133.92C1133.92 199.378 1133.85 200.034 1133.73 200.649H1137.72V197.389H1139.66ZM1127.42 212.052C1127.42 209.827 1129.84 208.473 1133.61 208.463C1137.34 208.473 1139.78 209.827 1139.79 212.052C1139.78 214.287 1137.34 215.661 1133.61 215.661C1129.84 215.661 1127.42 214.287 1127.42 212.052ZM1129.35 212.052C1129.35 213.344 1130.99 214.092 1133.61 214.103C1136.19 214.092 1137.83 213.344 1137.84 212.052C1137.83 210.739 1136.19 209.991 1133.61 210.001C1130.99 209.991 1129.35 210.739 1129.35 212.052ZM1157.39 197.368V208.504H1155.44V204.505H1152.57V202.885H1155.44V197.368H1157.39ZM1142.09 200.752V199.193H1146.52V197.204H1148.45V199.193H1152.86V200.752H1142.09ZM1143.16 204.874C1143.16 202.946 1144.97 201.593 1147.49 201.593C1150.01 201.593 1151.79 202.946 1151.79 204.874C1151.79 206.853 1150.01 208.166 1147.49 208.176C1144.97 208.166 1143.16 206.853 1143.16 204.874ZM1145.03 204.874C1145.03 205.992 1146.02 206.689 1147.49 206.699C1148.93 206.689 1149.93 205.992 1149.93 204.874C1149.93 203.797 1148.93 203.08 1147.49 203.09C1146.02 203.08 1145.03 203.797 1145.03 204.874ZM1145.27 215.518V209.406H1157.39V215.518H1145.27ZM1147.2 213.938H1155.49V210.944H1147.2V213.938Z" fill="#F8F9FA"/>
<path d="M1032.67 464.069C1032.52 462.685 1031.31 461.896 1029.61 461.896C1027.8 461.896 1026.65 462.829 1026.64 464.09C1026.64 465.495 1028.16 466.048 1029.34 466.325L1030.78 466.715C1032.68 467.176 1035.06 468.212 1035.07 470.898C1035.06 473.411 1033.06 475.246 1029.55 475.246C1026.23 475.246 1024.14 473.585 1023.99 470.878H1026.25C1026.38 472.498 1027.82 473.267 1029.55 473.277C1031.45 473.267 1032.82 472.313 1032.83 470.857C1032.82 469.565 1031.59 469.042 1030.02 468.622L1028.26 468.15C1025.87 467.494 1024.39 466.284 1024.38 464.213C1024.39 461.649 1026.67 459.947 1029.67 459.947C1032.69 459.947 1034.79 461.67 1034.86 464.069H1032.67ZM1038.21 475H1035.81L1041.15 460.152H1043.75L1049.1 475H1046.7L1045.35 471.083H1039.57L1038.21 475ZM1040.21 469.196H1044.69L1042.5 462.859H1042.4L1040.21 469.196ZM1050.57 475V460.152H1055.86C1059.32 460.152 1061.01 462.224 1061.01 464.972C1061.01 467.709 1059.31 469.791 1055.86 469.791H1052.83V475H1050.57ZM1052.83 467.863H1055.64C1057.82 467.874 1058.73 466.643 1058.73 464.972C1058.73 463.29 1057.82 462.09 1055.64 462.08H1052.83V467.863ZM1083.59 468.027V469.565H1066.79V468.027H1083.59ZM1068.7 472.724V471.165H1081.46V476.743H1079.47V472.724H1068.7ZM1068.99 466.469V458.84H1081.54V460.378H1070.96V461.875H1081.07V463.352H1070.96V464.972H1081.66V466.469H1068.99ZM1098.96 458.368V466.059H1101.73V467.699H1098.96V476.743H1097.01V458.368H1098.96ZM1084.34 471.739C1085.78 471.739 1087.47 471.739 1089.22 471.688V469.822C1087.15 469.514 1085.79 468.263 1085.81 466.489C1085.79 464.418 1087.59 463.054 1090.2 463.044C1092.81 463.054 1094.62 464.418 1094.63 466.489C1094.62 468.263 1093.25 469.524 1091.17 469.822V471.616C1092.8 471.534 1094.44 471.401 1095.97 471.186L1096.09 472.621C1092.11 473.329 1087.81 473.37 1084.65 473.359L1084.34 471.739ZM1084.69 462.101V460.542H1089.22V458.409H1091.17V460.542H1095.7V462.101H1084.69ZM1087.64 466.489C1087.64 467.658 1088.67 468.386 1090.2 468.376C1091.74 468.386 1092.76 467.658 1092.77 466.489C1092.76 465.31 1091.74 464.562 1090.2 464.562C1088.67 464.562 1087.64 465.31 1087.64 466.489ZM1116.33 463.946V466.223H1123.75V467.781H1107V466.223H1114.4V463.946H1116.33ZM1107.88 463.475C1111.53 463.095 1114.37 461.342 1114.38 459.106V458.512H1116.35V459.106C1116.34 461.342 1119.17 463.095 1122.81 463.475L1122.13 464.972C1119.14 464.572 1116.54 463.372 1115.36 461.465C1114.18 463.372 1111.57 464.572 1108.58 464.972L1107.88 463.475ZM1109.01 470.611V469.114H1121.64V473.482H1110.94V475.062H1122.16V476.559H1109.03V472.067H1119.71V470.611H1109.01ZM1139.54 459.045V464.049H1128.71V466.161H1139.93V467.74H1126.76V462.552H1137.55V460.624H1126.7V459.045H1139.54ZM1124.71 471.042V469.483H1141.53V471.042H1134.06V476.784H1132.11V471.042H1124.71ZM1148.94 461.69C1148.95 464.336 1150.59 466.869 1153.33 467.925L1152.26 469.442C1150.26 468.632 1148.78 467.022 1148 465.033C1147.21 467.176 1145.65 468.878 1143.5 469.729L1142.46 468.171C1145.29 467.125 1147 464.51 1147.01 461.69V459.414H1148.94V461.69ZM1145.78 476.354V470.693H1147.75V474.774H1158.19V476.354H1145.78ZM1152.26 466.284V464.705H1155.83V462.572H1152.26V460.993H1155.83V458.389H1157.78V472.067H1155.83V466.284H1152.26Z" fill="#F8F9FA"/>
<path d="M760.789 459.517V461.137C760.789 462.88 760.789 464.777 760.276 467.392H762.922V468.991H755.477V476.764H753.509V468.991H746.167V467.392H758.308C758.851 464.767 758.851 462.849 758.861 461.137V461.116H748.218V459.517H760.789ZM780.651 467.556V469.114H773.227V471.042H778.6V476.702H776.632V472.621H765.763V471.042H771.3V469.114H763.896V467.556H780.651ZM764.799 465.177C768.449 464.838 770.972 463.505 771.187 461.67H765.578V460.132H771.3V458.307H773.227V460.132H778.97V461.67H773.34C773.535 463.505 776.047 464.838 779.728 465.177L779.113 466.633C775.945 466.346 773.391 465.29 772.264 463.557C771.125 465.29 768.562 466.346 765.414 466.633L764.799 465.177ZM801.611 458.368V476.743H799.642V458.368H801.611ZM786.517 471.821C791.398 469.494 793.787 466.182 794.167 461.896H787.399V460.337H796.135C796.135 465.72 793.849 470.375 787.543 473.4L786.517 471.821ZM813.434 459.065C813.444 461.178 816.357 462.952 819.935 463.352L819.258 464.828C816.244 464.459 813.609 463.188 812.429 461.311C811.24 463.188 808.605 464.459 805.621 464.828L804.944 463.352C808.533 462.952 811.435 461.178 811.445 459.065V458.45H813.434V459.065ZM804.062 467.453V465.895H820.817V467.453H813.393V469.094H818.705V473.441H808V475.062H819.217V476.559H806.092V472.026H816.777V470.591H806.072V469.094H811.445V467.453H804.062ZM831.482 475.205C828.498 475.205 826.663 473.441 826.663 471.062C826.663 469.278 827.832 468.191 829.534 467.033C828.59 465.884 827.903 464.838 827.893 463.516C827.903 461.455 829.38 459.988 831.646 459.988C833.933 459.988 835.337 461.485 835.337 463.229C835.337 464.644 834.599 465.679 833.369 466.571L832.343 467.32L835.317 470.868C835.696 470.129 835.932 469.248 835.932 468.253H837.901C837.901 470.314 837.306 471.637 836.66 472.478L838.783 475H836.322L835.317 473.821C834.302 474.764 832.825 475.205 831.482 475.205ZM828.857 471.001C828.847 472.272 829.893 473.359 831.502 473.359C832.405 473.359 833.328 473.011 834.086 472.385L830.764 468.489L830.395 468.766C829.226 469.627 828.847 470.529 828.857 471.001ZM829.944 463.536C829.944 464.295 830.477 465.054 831.154 465.884L832.056 465.238C832.866 464.705 833.348 464.162 833.348 463.29C833.348 462.593 832.692 461.813 831.687 461.813C830.662 461.824 829.944 462.685 829.944 463.536ZM860.645 468.745V470.345H856.379V476.743H854.41V470.345H850.022V476.743H848.012V470.345H843.828V468.745H860.645ZM845.654 463.126C845.664 460.645 848.309 459.065 852.196 459.065C856.082 459.065 858.748 460.645 858.738 463.126C858.748 465.577 856.082 467.125 852.196 467.104C848.309 467.125 845.664 465.577 845.654 463.126ZM847.663 463.126C847.653 464.633 849.468 465.566 852.196 465.566C854.933 465.566 856.738 464.633 856.748 463.126C856.738 461.578 854.933 460.634 852.196 460.624C849.468 460.634 847.653 461.578 847.663 463.126ZM868.346 463.782C868.336 466.858 870.356 470.037 873.186 471.247L872.119 472.765C869.956 471.811 868.233 469.781 867.382 467.33C866.531 469.955 864.808 472.19 862.665 473.236L861.537 471.698C864.306 470.396 866.357 466.951 866.377 463.782V461.834H862.173V460.214H872.53V461.834H868.346V463.782ZM874.847 476.743V458.368H876.795V476.743H874.847ZM896.124 472.847V474.467H879.308V472.847H886.711V469.073H881.235V459.619H883.184V462.777H892.207V459.619H894.135V469.073H888.639V472.847H896.124ZM883.184 467.494H892.207V464.356H883.184V467.494ZM906.45 459.988C906.44 462.429 909.424 464.715 913.033 465.197L912.274 466.797C909.27 466.315 906.635 464.756 905.435 462.593C904.235 464.756 901.6 466.315 898.616 466.797L897.837 465.197C901.436 464.715 904.41 462.459 904.42 459.988V458.983H906.45V459.988ZM897.037 470.201V468.602H913.792V470.201H906.327V476.743H904.42V470.201H897.037Z" fill="#F8F9FA"/>
<path d="M934.488 18.7504C931.878 18.7504 929.754 16.7742 929.754 14.3455C929.754 11.9168 931.878 9.94116 934.488 9.94116C937.098 9.94116 939.22 11.9168 939.22 14.3455C939.22 16.7742 937.098 18.7504 934.488 18.7504ZM921.295 12.6052H916.185C915.395 12.6052 914.753 12.0071 914.753 11.2727C914.753 10.5388 915.395 9.94116 916.185 9.94116H926.002V14.3455C926.002 14.8008 926.046 15.2469 926.126 15.6816C925.372 13.8832 923.491 12.6052 921.295 12.6052ZM952.143 9.94116V6.44922H946.631V0.0389715H942.878V13.1596C942.261 9.36624 938.734 6.44922 934.488 6.44922C932.736 6.44922 931.108 6.9457 929.754 7.79479V0.0389715H926.002V6.44922H916.185C913.326 6.44922 911 8.61321 911 11.2727C911 13.933 913.326 16.0971 916.185 16.0971H921.295C922.084 16.0971 922.727 16.6952 922.727 17.429C922.727 18.1631 922.084 18.761 921.295 18.761H912.115V22.253H921.295C924.154 22.253 926.479 20.089 926.479 17.429C926.479 17.231 926.465 17.0363 926.44 16.8445C927.566 19.9771 930.747 22.2419 934.488 22.2419C938.734 22.2419 942.261 19.3247 942.878 15.5312V17.429C942.878 20.089 945.203 22.253 948.062 22.253H952.143V18.761H948.062C947.273 18.761 946.631 18.1631 946.631 17.429V9.94116H952.143Z" fill="#F2F3F5"/>
<path d="M963.898 22.253C960.117 22.253 957.041 19.4058 957.041 15.9064C957.041 12.4067 960.117 9.55925 963.898 9.55925C965.729 9.55925 967.452 10.22 968.747 11.4187L967.344 12.7181C966.423 11.8666 965.199 11.3973 963.898 11.3973C961.211 11.3973 959.027 13.42 959.027 15.9064C959.027 18.3925 961.211 20.4147 963.898 20.4147C966.244 20.4147 968.207 18.8724 968.667 16.8255H963.898V14.988H970.755V15.9064C970.755 19.4058 967.679 22.253 963.898 22.253Z" fill="#F2F3F5"/>
<path d="M1010.43 22.253H1008.47V8.65256H1010.43V22.253Z" fill="#F2F3F5"/>
<path d="M973.695 22.253H971.735V8.65256H973.695V22.253Z" fill="#F2F3F5"/>
<path d="M979.572 14.9956C977.949 14.9956 976.628 16.2172 976.628 17.7193C976.628 19.2216 977.949 20.4434 979.572 20.4434C981.195 20.4434 982.515 19.2216 982.515 17.7193C982.515 16.2172 981.195 14.9956 979.572 14.9956ZM979.572 22.253C976.872 22.253 974.674 20.2195 974.674 17.7193C974.674 15.2201 976.872 13.186 979.572 13.186C982.272 13.186 984.47 15.2201 984.47 17.7193C984.47 20.2195 982.272 22.253 979.572 22.253Z" fill="#F2F3F5"/>
<path d="M990.838 20.3992C989.214 20.3992 987.895 19.1475 987.895 17.6085C987.895 16.0698 989.214 14.8183 990.838 14.8183C992.461 14.8183 993.78 16.0698 993.78 17.6085C993.78 19.1475 992.461 20.3992 990.838 20.3992ZM990.838 12.9645C989.733 12.9645 988.482 13.5148 987.895 14.1868V8.65256H985.939V22.1278H987.895V20.9716C988.646 21.8476 989.733 22.253 990.838 22.253C993.538 22.253 995.735 20.1698 995.735 17.6085C995.735 15.0483 993.538 12.9645 990.838 12.9645Z" fill="#F2F3F5"/>
<path d="M1001.61 20.4434C999.991 20.4434 998.67 19.2216 998.67 17.7193C998.67 16.2172 999.991 14.9956 1001.61 14.9956C1003.24 14.9956 1004.56 16.2172 1004.56 17.7193C1004.56 19.2216 1003.24 20.4434 1001.61 20.4434ZM1004.56 13.186V14.394C1004 13.6576 1002.72 13.186 1001.61 13.186C998.912 13.186 996.715 15.2201 996.715 17.7193C996.715 20.2195 998.912 22.253 1001.61 22.253C1002.72 22.253 1003.92 21.7742 1004.56 20.9872V22.1308H1006.51V13.186H1004.56Z" fill="#F2F3F5"/>
<path d="M957.041 9.40836C957.041 9.74213 956.749 10.0127 956.388 10.0127H953.776C953.415 10.0127 953.123 9.74213 953.123 9.40836V6.99082C953.123 6.65739 953.415 6.38652 953.776 6.38652H956.388C956.749 6.38652 957.041 6.65739 957.041 6.99082V9.40836Z" fill="#FF6600"/>
<circle opacity="0.2" cx="319" cy="334" r="318.5" stroke="url(#paint1_linear_326_961)"/>
<circle opacity="0.2" cx="1601" cy="334" r="318.5" stroke="url(#paint2_linear_326_961)"/>
<path d="M1349.81 310.43V328.661H1348.19V310.43H1349.81ZM1334.96 323.924C1339.9 321.586 1342.42 318.089 1342.78 313.731H1335.8V312.419H1344.42C1344.4 317.659 1341.96 322.304 1335.85 325.236L1334.96 323.924ZM1357.49 311.291C1359.93 311.281 1361.8 312.706 1362.15 314.798H1365.96V310.43H1367.58V320.212H1365.96V316.131H1362.16C1361.84 318.284 1359.96 319.72 1357.49 319.72C1354.71 319.72 1352.74 317.997 1352.75 315.495C1352.74 313.024 1354.71 311.281 1357.49 311.291ZM1354.29 315.495C1354.29 317.156 1355.62 318.356 1357.49 318.366C1359.33 318.356 1360.65 317.156 1360.65 315.495C1360.65 313.813 1359.33 312.645 1357.49 312.665C1355.62 312.645 1354.29 313.813 1354.29 315.495ZM1355.83 328.415V321.135H1357.45V323.452H1365.96V321.135H1367.58V328.415H1355.83ZM1357.45 327.103H1365.96V324.744H1357.45V327.103ZM1385.23 310.43V328.702H1383.61V310.43H1385.23ZM1370.87 318.202C1370.88 314.326 1372.81 311.855 1375.53 311.845C1378.24 311.855 1380.19 314.326 1380.18 318.202C1380.19 322.088 1378.24 324.549 1375.53 324.539C1372.81 324.549 1370.88 322.088 1370.87 318.202ZM1372.43 318.202C1372.43 321.166 1373.7 323.114 1375.53 323.104C1377.36 323.114 1378.63 321.166 1378.63 318.202C1378.63 315.239 1377.36 313.291 1375.53 313.28C1373.7 313.291 1372.43 315.239 1372.43 318.202ZM1407.85 310.43V319.904H1406.23V310.43H1407.85ZM1393.08 317.915C1393.81 317.915 1394.6 317.905 1395.42 317.895V312.973H1393.6V311.681H1403.46V312.973H1401.62V317.648C1402.56 317.577 1403.48 317.484 1404.36 317.382L1404.45 318.571C1400.8 319.115 1396.51 319.258 1393.29 319.248L1393.08 317.915ZM1395.91 322.078V320.786H1407.85V325.134H1397.56V327.144H1408.55V328.456H1395.98V323.924H1406.25V322.078H1395.91ZM1396.98 317.864C1397.99 317.833 1399.02 317.802 1400.06 317.741V312.973H1396.98V317.864ZM1427.2 324.97V326.323H1410.51V324.97H1414.65V320.058C1413.09 319.248 1412.15 317.936 1412.15 316.274C1412.15 313.455 1414.92 311.599 1418.81 311.578C1422.71 311.599 1425.48 313.455 1425.48 316.274C1425.48 317.905 1424.56 319.197 1423.06 320.007V324.97H1427.2ZM1413.71 316.274C1413.7 318.315 1415.82 319.679 1418.81 319.679C1421.78 319.679 1423.92 318.315 1423.92 316.274C1423.92 314.234 1421.78 312.891 1418.81 312.911C1415.82 312.891 1413.7 314.234 1413.71 316.274ZM1416.23 324.97H1421.44V320.632C1420.65 320.837 1419.77 320.95 1418.81 320.95C1417.88 320.95 1417.01 320.848 1416.23 320.643V324.97ZM1444.93 325.052V326.405H1428.24V325.052H1435.74V321.606H1430.33V315.987H1441.24V313.116H1430.29V311.783H1442.82V317.3H1431.93V320.273H1443.25V321.606H1437.32V325.052H1444.93ZM1464.93 310.43V317.956H1467.98V319.289H1464.93V328.661H1463.33V310.43H1464.93ZM1450.71 314.695V313.362H1455.41V310.655H1457.01V313.362H1461.56V314.695H1450.71ZM1451.76 320.396C1451.75 317.936 1453.64 316.213 1456.23 316.213C1458.8 316.213 1460.68 317.936 1460.7 320.396C1460.68 322.868 1458.8 324.58 1456.23 324.58C1453.64 324.58 1451.75 322.868 1451.76 320.396ZM1453.3 320.396C1453.29 322.058 1454.53 323.227 1456.23 323.206C1457.91 323.227 1459.14 322.058 1459.16 320.396C1459.14 318.746 1457.91 317.556 1456.23 317.566C1454.53 317.556 1453.29 318.746 1453.3 320.396ZM1483.29 315.967V317.259H1470.8V311.106H1472.4V315.967H1483.29ZM1468.52 321.053V319.74H1485.22V321.053H1468.52ZM1470.7 328.21V322.919H1472.3V326.877H1483.39V328.21H1470.7ZM1349.34 339.43V346.566H1351.82V347.94H1349.34V357.661H1347.74V339.43H1349.34ZM1335.11 353.252V341.132H1336.5V345.849H1338.8V341.132H1340.17V353.252H1335.11ZM1336.5 351.898H1338.8V347.141H1336.5V351.898ZM1341.16 353.252V341.132H1342.53V345.849H1344.77V341.132H1346.14V353.252H1341.16ZM1342.53 351.898H1344.77V347.141H1342.53V351.898ZM1369.16 354.011V355.364H1352.47V354.011H1369.16ZM1354.52 342.157V340.824H1367.05V346.341H1356.16V349.335H1367.48V350.627H1354.56V345.028H1365.47V342.157H1354.52ZM1384.82 341.275V343.101C1384.8 345.336 1384.8 347.838 1384.14 351.509L1382.5 351.324C1383.19 347.838 1383.19 345.285 1383.2 343.101V342.608H1371.96V341.275H1384.82ZM1370.2 355.077V353.744H1376.72V347.223H1378.3V353.744H1386.81V355.077H1370.2ZM1407.89 339.43V350.299H1406.27V345.521H1402.6V344.188H1406.27V339.43H1407.89ZM1392.86 348.843C1395.57 347.869 1397.49 345.397 1397.49 342.793V342.116H1393.37V340.763H1403.19V342.116H1399.11V342.772C1399.11 345.151 1400.94 347.417 1403.61 348.33L1402.76 349.622C1400.72 348.884 1399.13 347.346 1398.34 345.469C1397.57 347.602 1395.87 349.304 1393.7 350.135L1392.86 348.843ZM1395.73 354.257C1395.72 352.114 1398.05 350.863 1401.84 350.873C1405.63 350.863 1407.95 352.114 1407.95 354.257C1407.95 356.41 1405.63 357.641 1401.84 357.661C1398.05 357.641 1395.72 356.41 1395.73 354.257ZM1397.33 354.257C1397.32 355.58 1399.04 356.379 1401.84 356.369C1404.63 356.379 1406.35 355.58 1406.35 354.257C1406.35 352.924 1404.63 352.124 1401.84 352.124C1399.04 352.124 1397.32 352.924 1397.33 354.257ZM1424.74 339.45V344.967H1427.47V346.32H1424.74V351.673H1423.12V339.45H1424.74ZM1410.42 349.807C1411.88 349.807 1413.58 349.807 1415.37 349.755V348.412C1413.24 348.217 1411.87 347.243 1411.88 345.726C1411.87 344.064 1413.58 343.039 1416.15 343.039C1418.73 343.039 1420.41 344.064 1420.43 345.726C1420.41 347.233 1419.08 348.207 1416.97 348.412V349.694C1418.67 349.612 1420.39 349.468 1421.99 349.232L1422.13 350.401C1418.18 351.099 1413.82 351.129 1410.61 351.119L1410.42 349.807ZM1410.88 342.342V341.111H1415.37V339.286H1416.97V341.111H1421.44V342.342H1410.88ZM1412.66 353.867V352.575H1424.74V357.661H1423.12V353.867H1412.66ZM1413.42 345.726C1413.41 346.679 1414.46 347.325 1416.15 347.305C1417.83 347.325 1418.89 346.679 1418.89 345.726C1418.89 344.762 1417.83 344.167 1416.15 344.188C1414.46 344.167 1413.41 344.762 1413.42 345.726ZM1442.49 339.45V345.459H1445.24V346.812H1442.49V353.108H1440.89V339.45H1442.49ZM1428.28 342.998V341.686H1432.91V339.45H1434.51V341.686H1439.15V342.998H1428.28ZM1429.32 347.407C1429.31 345.336 1431.08 344.003 1433.71 344.003C1436.32 344.003 1438.08 345.336 1438.1 347.407C1438.08 349.458 1436.32 350.781 1433.71 350.771C1431.08 350.781 1429.31 349.458 1429.32 347.407ZM1430.86 347.407C1430.85 348.689 1431.99 349.52 1433.71 349.499C1435.41 349.52 1436.56 348.689 1436.58 347.407C1436.56 346.105 1435.41 345.264 1433.71 345.274C1431.99 345.264 1430.85 346.105 1430.86 347.407ZM1431.09 357.271V352.021H1432.67V355.918H1443.33V357.271H1431.09ZM1459.9 345.008V347.407H1467.43V348.72H1450.82V347.407H1458.32V345.008H1459.9ZM1451.74 344.741C1455.07 344.372 1458.3 342.629 1458.3 340.271V339.573H1459.92V340.271C1459.92 342.629 1463.16 344.372 1466.48 344.741L1465.91 345.972C1463.04 345.582 1460.26 344.341 1459.11 342.342C1457.96 344.341 1455.17 345.582 1452.31 345.972L1451.74 344.741ZM1452.83 351.488V350.237H1465.29V354.38H1454.47V356.185H1465.85V357.456H1452.87V353.17H1463.72V351.488H1452.83ZM1483.19 340.168V344.905H1472.2V347.264H1483.58V348.597H1470.58V343.634H1481.55V341.48H1470.53V340.168H1483.19ZM1468.52 351.816V350.524H1485.22V351.816H1477.63V357.702H1476.03V351.816H1468.52ZM1492.51 342.813C1492.51 345.49 1494.34 348.012 1496.98 349.048L1496.08 350.299C1494.08 349.468 1492.51 347.807 1491.74 345.736C1490.96 347.971 1489.32 349.745 1487.2 350.627L1486.32 349.335C1489.03 348.289 1490.92 345.674 1490.93 342.813V340.476H1492.51V342.813ZM1489.6 357.271V351.652H1491.22V355.918H1501.8V357.271H1489.6ZM1496.02 347.223V345.91H1499.77V343.49H1496.02V342.157H1499.77V339.45H1501.39V353.067H1499.77V347.223H1496.02ZM1525.55 353.99V355.323H1508.85V353.99H1516.36V350.053H1510.82V340.722H1512.44V344.023H1521.92V340.722H1523.5V350.053H1517.94V353.99H1525.55ZM1512.44 348.74H1521.92V345.336H1512.44V348.74ZM1543.26 349.827V351.16H1538.85V357.661H1537.23V351.16H1532.55V357.661H1530.89V351.16H1526.56V349.827H1543.26ZM1528.45 344.146C1528.46 341.716 1531.03 340.178 1534.87 340.168C1538.69 340.178 1541.29 341.716 1541.29 344.146C1541.29 346.577 1538.69 348.094 1534.87 348.084C1531.03 348.094 1528.46 346.577 1528.45 344.146ZM1530.11 344.146C1530.09 345.756 1532.03 346.792 1534.87 346.792C1537.71 346.792 1539.64 345.756 1539.65 344.146C1539.64 342.526 1537.71 341.48 1534.87 341.48C1532.03 341.48 1530.09 342.526 1530.11 344.146Z" fill="#F8F9FA"/>
<path d="M881.14 733.43V740.648H884.196V742.002H881.14V751.702H879.54V733.43H881.14ZM867.831 747.129V735.214H876.341V736.547H869.43V745.775C872.732 745.765 875.06 745.622 877.777 745.119L877.982 746.514C875.121 747.026 872.732 747.129 869.266 747.129H867.831ZM901.72 736.198V737.531H899.013V740.074H901.72V741.428H899.013V744.258H897.413V733.43H899.013V736.198H901.72ZM885.109 738.823C885.098 736.28 887.129 734.527 889.887 734.537C892.666 734.527 894.665 736.28 894.686 738.823C894.665 741.356 892.666 743.099 889.887 743.109C887.129 743.099 885.098 741.356 885.109 738.823ZM886.688 738.823C886.678 740.546 888.041 741.735 889.887 741.756C891.753 741.735 893.097 740.546 893.107 738.823C893.097 737.111 891.753 735.891 889.887 735.911C888.041 735.891 886.678 737.111 886.688 738.823ZM887.119 748.236C887.129 746.073 889.446 744.822 893.168 744.812C896.89 744.822 899.177 746.073 899.177 748.236C899.177 750.359 896.89 751.62 893.168 751.62C889.446 751.62 887.129 750.359 887.119 748.236ZM888.739 748.236C888.718 749.549 890.42 750.318 893.168 750.328C895.927 750.318 897.608 749.549 897.619 748.236C897.608 746.914 895.927 746.124 893.168 746.124C890.42 746.124 888.718 746.914 888.739 748.236ZM916.742 733.45V739.459H919.491V740.812H916.742V747.108H915.143V733.45H916.742ZM902.531 736.998V735.686H907.165V733.45H908.765V735.686H913.4V736.998H902.531ZM903.576 741.407C903.566 739.336 905.33 738.003 907.965 738.003C910.57 738.003 912.333 739.336 912.354 741.407C912.333 743.458 910.57 744.781 907.965 744.771C905.33 744.781 903.566 743.458 903.576 741.407ZM905.115 741.407C905.104 742.689 906.242 743.52 907.965 743.499C909.667 743.52 910.816 742.689 910.836 741.407C910.816 740.105 909.667 739.264 907.965 739.274C906.242 739.264 905.104 740.105 905.115 741.407ZM905.34 751.271V746.021H906.919V749.918H917.583V751.271H905.34ZM941.763 747.949V749.323H925.069V747.949H941.763ZM926.546 736.608V735.275H940.163V736.608H937.272V742.986H940.122V744.299H926.587V742.986H929.438V736.608H926.546ZM931.037 742.986H935.692V736.608H931.037V742.986ZM959.492 748.052V749.405H942.799V748.052H950.305V744.606H944.891V738.987H955.801V736.116H944.85V734.783H957.38V740.3H946.49V743.273H957.811V744.606H951.884V748.052H959.492ZM972.464 733.84V744.422H970.905V739.479H968.116V738.146H970.905V733.84H972.464ZM960.61 742.863C962.979 741.869 964.374 739.51 964.363 737.347V736.26H960.959V734.927H969.142V736.26H965.922V737.347C965.922 739.326 967.255 741.489 969.572 742.453L968.731 743.684C967.019 742.966 965.819 741.602 965.184 740.033C964.548 741.807 963.287 743.335 961.472 744.135L960.61 742.863ZM963.728 746.698V745.386H976.012V751.661H974.433V746.698H963.728ZM974.474 744.586V733.43H976.012V744.586H974.474ZM993.023 743.294V744.606H980.411V735.009H992.818V736.362H982.052V739.069H992.429V740.361H982.052V743.294H993.023ZM978.258 749.282V747.949H994.951V749.282H978.258ZM1012.66 741.899V743.171H995.967V741.899H1012.66ZM997.976 745.837V744.627H1010.57V748.503H999.617V750.246H1011.16V751.415H997.997V747.396H1008.97V745.837H997.976ZM998.079 735.152V733.983H1010.51V737.757H999.74V739.356H1010.83V740.525H998.14V736.649H1008.89V735.152H998.079ZM1035.18 743.109V744.422H1018.55V743.109H1026.05V741.305H1020.76V733.963H1033.11V735.275H1022.38V736.978H1032.61V738.208H1022.38V740.013H1033.21V741.305H1027.65V743.109H1035.18ZM1020.58 748.708C1020.57 746.811 1022.83 745.775 1026.87 745.796C1030.87 745.775 1033.13 746.811 1033.15 748.708C1033.13 750.625 1030.87 751.62 1026.87 751.62C1022.83 751.62 1020.57 750.625 1020.58 748.708ZM1022.2 748.708C1022.18 749.815 1023.86 750.39 1026.87 750.369C1029.86 750.39 1031.52 749.815 1031.53 748.708C1031.52 747.621 1029.86 747.016 1026.87 747.006C1023.86 747.016 1022.18 747.621 1022.2 748.708ZM1045.4 736.588V737.9H1036.26V736.588H1040.05V733.983H1041.65V736.588H1045.4ZM1036.91 743.273C1036.91 740.854 1038.56 739.141 1040.83 739.131C1043.13 739.141 1044.77 740.854 1044.79 743.273C1044.77 745.724 1043.13 747.447 1040.83 747.457C1038.56 747.447 1036.91 745.724 1036.91 743.273ZM1038.35 743.273C1038.35 744.894 1039.38 746.052 1040.83 746.042C1042.28 746.052 1043.35 744.894 1043.35 743.273C1043.35 741.674 1042.28 740.505 1040.83 740.484C1039.38 740.505 1038.35 741.674 1038.35 743.273ZM1046.35 750.759V733.881H1047.86V741.12H1050.28V733.43H1051.82V751.661H1050.28V742.453H1047.86V750.759H1046.35ZM826.941 762.43V780.661H825.321V762.43H826.941ZM812.094 775.924C817.026 773.586 819.548 770.089 819.907 765.731H812.934V764.419H821.548C821.527 769.659 819.087 774.304 812.975 777.236L812.094 775.924ZM834.622 763.291C837.062 763.281 838.928 764.706 839.277 766.798H843.092V762.43H844.712V772.212H843.092V768.131H839.287C838.969 770.284 837.093 771.72 834.622 771.72C831.843 771.72 829.874 769.997 829.884 767.495C829.874 765.024 831.843 763.281 834.622 763.291ZM831.423 767.495C831.423 769.156 832.745 770.356 834.622 770.366C836.457 770.356 837.78 769.156 837.78 767.495C837.78 765.813 836.457 764.645 834.622 764.665C832.745 764.645 831.423 765.813 831.423 767.495ZM832.961 780.415V773.135H834.581V775.452H843.092V773.135H844.712V780.415H832.961ZM834.581 779.103H843.092V776.744H834.581V779.103ZM853.295 763.763C856.155 763.773 858.186 765.516 858.196 768.049C858.186 770.592 856.155 772.325 853.295 772.335C850.413 772.325 848.362 770.592 848.373 768.049C848.362 765.516 850.413 763.773 853.295 763.763ZM847.429 775.309C850.793 775.319 855.438 775.288 859.467 774.693L859.59 775.883C855.417 776.662 850.936 776.683 847.655 776.683L847.429 775.309ZM849.952 768.049C849.942 769.751 851.346 770.92 853.295 770.92C855.222 770.92 856.627 769.751 856.617 768.049C856.627 766.357 855.222 765.178 853.295 765.178C851.346 765.178 849.942 766.357 849.952 768.049ZM860.677 780.702V762.43H862.277V780.702H860.677ZM870.809 779V764.152H876.018C879.135 764.152 880.602 765.906 880.591 768.09C880.602 769.997 879.463 770.848 878.171 771.207V771.351C879.556 771.433 881.176 772.704 881.186 775.062C881.176 777.288 879.709 779 876.203 779H870.809ZM872.655 777.359H876.182C878.51 777.359 879.412 776.334 879.402 775.042C879.412 773.535 878.192 772.253 876.285 772.253H872.655V777.359ZM872.655 770.653H875.957C877.566 770.664 878.828 769.659 878.828 768.11C878.828 766.818 877.956 765.793 876.018 765.793H872.655V770.653ZM883.391 779V764.152H888.436C891.912 764.152 893.501 766.224 893.501 768.869C893.501 771.504 891.912 773.606 888.456 773.606H885.237V779H883.391ZM885.237 771.966H888.374C890.743 771.966 891.666 770.633 891.676 768.869C891.666 767.095 890.743 765.793 888.354 765.793H885.237V771.966ZM911.436 770.899V772.171H894.743V770.899H911.436ZM896.752 774.837V773.627H909.344V777.503H898.393V779.246H909.939V780.415H896.773V776.396H907.744V774.837H896.752ZM896.855 764.152V762.983H909.283V766.757H898.516V768.356H909.611V769.525H896.916V765.649H907.662V764.152H896.855ZM923.516 765.321C923.495 767.495 925.382 769.474 928.069 770.264L927.31 771.515C925.197 770.889 923.547 769.546 922.736 767.823C921.947 769.782 920.224 771.289 917.999 771.986L917.199 770.735C919.958 769.874 921.885 767.741 921.896 765.362V764.788H917.753V763.476H927.576V764.788H923.516V765.321ZM919.968 773.976V772.684H931.596V777.052H921.588V779.226H932.273V780.497H920.009V775.862H929.996V773.976H919.968ZM929.996 771.843V762.43H931.596V766.429H934.344V767.762H931.596V771.843H929.996ZM954.955 762.43V780.702H953.335V762.43H954.955ZM940.6 770.202C940.61 766.326 942.538 763.855 945.255 763.845C947.962 763.855 949.92 766.326 949.91 770.202C949.92 774.088 947.962 776.549 945.255 776.539C942.538 776.549 940.61 774.088 940.6 770.202ZM942.158 770.202C942.158 773.166 943.43 775.114 945.255 775.104C947.09 775.114 948.352 773.166 948.352 770.202C948.352 767.239 947.09 765.291 945.255 765.28C943.43 765.291 942.158 767.239 942.158 770.202ZM966.758 765.588V766.9H957.611V765.588H961.405V762.983H963.005V765.588H966.758ZM958.268 772.273C958.268 769.854 959.918 768.141 962.184 768.131C964.481 768.141 966.122 769.854 966.143 772.273C966.122 774.724 964.481 776.447 962.184 776.457C959.918 776.447 958.268 774.724 958.268 772.273ZM959.703 772.273C959.703 773.894 960.739 775.052 962.184 775.042C963.641 775.052 964.707 773.894 964.707 772.273C964.707 770.674 963.641 769.505 962.184 769.484C960.739 769.505 959.703 770.674 959.703 772.273ZM967.701 779.759V762.881H969.219V770.12H971.639V762.43H973.177V780.661H971.639V771.453H969.219V779.759H967.701ZM989.491 762.43V769.956H992.547V771.289H989.491V780.661H987.891V762.43H989.491ZM975.279 766.695V765.362H979.975V762.655H981.575V765.362H986.128V766.695H975.279ZM976.325 772.396C976.315 769.936 978.202 768.213 980.796 768.213C983.369 768.213 985.246 769.936 985.266 772.396C985.246 774.868 983.369 776.58 980.796 776.58C978.202 776.58 976.315 774.868 976.325 772.396ZM977.863 772.396C977.853 774.058 979.094 775.227 980.796 775.206C982.477 775.227 983.708 774.058 983.728 772.396C983.708 770.746 982.477 769.556 980.796 769.566C979.094 769.556 977.853 770.746 977.863 772.396ZM1007.86 767.967V769.259H995.367V763.106H996.967V767.967H1007.86ZM993.091 773.053V771.74H1009.78V773.053H993.091ZM995.264 780.21V774.919H996.864V778.877H1007.96V780.21H995.264ZM1025.17 763.906C1025.15 768.613 1022.71 772.15 1016.84 774.119L1016.18 772.827C1019.31 771.792 1021.3 770.346 1022.41 768.562L1016.37 769.074L1016.08 767.741L1022.98 767.413C1023.25 766.726 1023.41 765.998 1023.47 765.239H1017V763.906H1025.17ZM1019.28 780.271V774.632H1020.92V778.918H1031.32V780.271H1019.28ZM1025.12 769.607V768.254H1029.19V762.45H1030.81V775.985H1029.19V769.607H1025.12ZM1048.53 762.43V771.863H1046.91V767.126H1042.85V765.793H1046.91V762.43H1048.53ZM1033.4 770.612C1036.15 769.7 1038.03 767.413 1038.06 764.747V763.024H1039.63V764.747C1039.61 767.136 1041.5 769.331 1044.17 770.202L1043.31 771.453C1041.29 770.735 1039.68 769.3 1038.87 767.454C1038.09 769.536 1036.44 771.125 1034.28 771.904L1033.4 770.612ZM1036.72 774.078V772.786H1048.53V777.134H1038.34V779.123H1049.21V780.415H1036.76V775.903H1046.94V774.078H1036.72ZM1060.95 763.783V765.096H1053.84V767.393H1060.44V768.705H1053.84V771.104C1057.71 771.115 1059.89 771.043 1062.45 770.612L1062.61 771.925C1059.96 772.355 1057.72 772.448 1053.69 772.438H1052.22V763.783H1060.95ZM1053.98 777.298C1053.98 775.216 1056.29 773.996 1060.15 774.017C1063.95 773.996 1066.29 775.216 1066.28 777.298C1066.29 779.42 1063.95 780.62 1060.15 780.62C1056.29 780.62 1053.98 779.42 1053.98 777.298ZM1055.58 777.298C1055.58 778.59 1057.28 779.349 1060.15 779.349C1062.94 779.349 1064.7 778.59 1064.71 777.298C1064.7 776.057 1062.94 775.288 1060.15 775.288C1057.28 775.288 1055.58 776.057 1055.58 777.298ZM1064.6 773.75V762.45H1066.2V773.75H1064.6ZM1084.21 764.419V765.752H1082.18V774.529C1083.16 774.468 1084.14 774.375 1085.07 774.263L1085.15 775.452C1081.3 776.067 1076.94 776.129 1073.71 776.149L1073.5 774.775C1074.27 774.775 1075.09 774.765 1075.97 774.755V765.752H1073.96V764.419H1084.21ZM1077.52 774.734C1078.54 774.714 1079.59 774.673 1080.64 774.622V765.752H1077.52V774.734ZM1086.24 780.661V762.43H1087.84V769.751H1090.89V771.104H1087.84V780.661H1086.24ZM1106.55 762.45V780.682H1104.91V776.149H1100.71V774.919H1104.91V762.45H1106.55ZM1091.38 772.048C1094.85 772.038 1099.48 772.027 1103.5 771.453L1103.6 772.663C1101.8 772.971 1099.92 773.145 1098.1 773.258V780.107H1096.48V773.34C1094.74 773.401 1093.07 773.422 1091.6 773.422L1091.38 772.048ZM1092.77 766.941C1092.76 764.798 1094.65 763.353 1097.39 763.353C1100.09 763.353 1101.99 764.798 1101.98 766.941C1101.99 769.105 1100.09 770.5 1097.39 770.51C1094.65 770.5 1092.76 769.105 1092.77 766.941ZM1094.29 766.941C1094.28 768.326 1095.55 769.269 1097.39 769.259C1099.18 769.269 1100.45 768.326 1100.46 766.941C1100.45 765.567 1099.18 764.614 1097.39 764.604C1095.55 764.614 1094.28 765.567 1094.29 766.941Z" fill="#F8F9FA"/>
<circle opacity="0.2" cx="960" cy="975" r="318.5" stroke="url(#paint3_linear_326_961)"/>
<defs>
<filter id="filter0_b_326_961" x="667.5" y="40.5" width="586" height="586" filterUnits="userSpaceOnUse" color-interpolation-filters="sRGB">
<feFlood flood-opacity="0" result="BackgroundImageFix"/>
<feGaussianBlur in="BackgroundImageFix" stdDeviation="15"/>
<feComposite in2="SourceAlpha" operator="in" result="effect1_backgroundBlur_326_961"/>
<feBlend mode="normal" in="SourceGraphic" in2="effect1_backgroundBlur_326_961" result="shape"/>
</filter>
<linearGradient id="paint0_linear_326_961" x1="726" y1="159" x2="1072" y2="532" gradientUnits="userSpaceOnUse">
<stop stop-color="#F2F3F5"/>
<stop offset="1" stop-color="#F2F3F5" stop-opacity="0"/>
</linearGradient>
<linearGradient id="paint1_linear_326_961" x1="638" y1="334" x2="319" y2="334" gradientUnits="userSpaceOnUse">
<stop stop-color="#F8F9FA"/>
<stop offset="1" stop-color="#F8F9FA" stop-opacity="0"/>
</linearGradient>
<linearGradient id="paint2_linear_326_961" x1="1282" y1="334" x2="1601" y2="334" gradientUnits="userSpaceOnUse">
<stop stop-color="#F8F9FA"/>
<stop offset="1" stop-color="#F8F9FA" stop-opacity="0"/>
</linearGradient>
<linearGradient id="paint3_linear_326_961" x1="960" y1="656" x2="960" y2="975" gradientUnits="userSpaceOnUse">
<stop stop-color="#F8F9FA"/>
<stop offset="1" stop-color="#F8F9FA" stop-opacity="0"/>
</linearGradient>
</defs>
</svg>
