<svg width="969" height="1027" viewBox="0 0 969 1027" fill="none" xmlns="http://www.w3.org/2000/svg">
<g filter="url(#filter0_f_252_1799)">
<path d="M702.567 560.423C681.931 636.815 603.275 682.015 526.882 661.38C450.489 640.745 405.289 562.088 425.924 485.695C446.56 409.303 610.525 343.297 686.917 363.932C763.31 384.567 723.202 484.03 702.567 560.423Z" fill="#998EE8"/>
</g>
<g opacity="0.8" filter="url(#filter1_f_252_1799)">
<path d="M534.006 594.365C555.904 657.914 509.13 655.031 415.102 687.431C321.074 719.832 226.125 683.459 204.227 619.91C182.33 556.361 250.825 621.338 344.853 588.937C438.881 556.537 512.108 530.816 534.006 594.365Z" fill="#BE6161"/>
</g>
<defs>
<filter id="filter0_f_252_1799" x="60.9307" y="0.105957" width="1030.74" height="1026.27" filterUnits="userSpaceOnUse" color-interpolation-filters="sRGB">
<feFlood flood-opacity="0" result="BackgroundImageFix"/>
<feBlend mode="normal" in="SourceGraphic" in2="BackgroundImageFix" result="shape"/>
<feGaussianBlur stdDeviation="180" result="effect1_foregroundBlur_252_1799"/>
</filter>
<filter id="filter1_f_252_1799" x="0.125" y="355.279" width="739.208" height="544.212" filterUnits="userSpaceOnUse" color-interpolation-filters="sRGB">
<feFlood flood-opacity="0" result="BackgroundImageFix"/>
<feBlend mode="normal" in="SourceGraphic" in2="BackgroundImageFix" result="shape"/>
<feGaussianBlur stdDeviation="100" result="effect1_foregroundBlur_252_1799"/>
</filter>
</defs>
</svg>
