<svg width="1500" height="1000" viewBox="0 0 1500 1000" fill="none" xmlns="http://www.w3.org/2000/svg">
<mask id="mask0_366_1174" style="mask-type:alpha" maskUnits="userSpaceOnUse" x="0" y="0" width="1500" height="1000">
<rect width="1500" height="1000" fill="black"/>
</mask>
<g mask="url(#mask0_366_1174)">
<path d="M750.5 163.461C765.391 163.461 782.835 158.106 798.002 151.936C823.314 141.64 849.802 133.461 877.055 133.461H890C972.567 133.461 1039.5 200.394 1039.5 282.961V295.906C1039.5 323.159 1031.32 349.647 1021.02 374.959C1014.86 390.126 1009.5 407.57 1009.5 422.461C1009.5 437.352 1014.86 454.796 1021.02 469.963C1031.32 495.275 1039.5 521.764 1039.5 549.016V561.961C1039.5 644.528 972.567 711.461 890 711.461H878.75C850.436 711.461 823.007 702.51 796.689 691.838C781.831 685.813 764.947 680.862 750.479 681.461C739.445 681.919 726.991 685.722 715.47 690.462C688.231 701.668 659.934 711.461 630.575 711.461H611C528.435 711.461 461.5 644.108 461.5 561.539C461.5 526.653 475.464 493.464 490.611 461.901C496.782 449.043 501.5 435.091 501.5 422.461C501.5 409.831 496.782 395.879 490.611 383.021C475.464 351.459 461.5 318.269 461.5 283.383C461.5 200.815 528.435 133.461 611 133.461H623.945C651.198 133.461 677.686 141.64 702.998 151.936C718.165 158.106 735.609 163.461 750.5 163.461Z" stroke="white" stroke-opacity="0.2"/>
<g filter="url(#filter0_b_366_1174)">
<path fill-rule="evenodd" clip-rule="evenodd" d="M750.5 310.926C741.865 367.843 696.882 412.826 639.965 421.461C696.882 430.096 741.865 475.079 750.5 531.996C759.135 475.079 804.118 430.096 861.035 421.461C804.118 412.826 759.135 367.843 750.5 310.926ZM900.965 421.461C964.393 411.838 1013 357.076 1013 290.961C1013 218.059 953.902 158.961 881 158.961C814.885 158.961 760.123 207.568 750.5 270.996C740.877 207.568 686.115 158.961 620 158.961C547.098 158.961 488 218.059 488 290.961C488 357.076 536.607 411.838 600.035 421.461C536.607 431.084 488 485.846 488 551.961C488 624.863 547.098 683.961 620 683.961C686.115 683.961 740.877 635.354 750.5 571.926C760.123 635.354 814.885 683.961 881 683.961C953.902 683.961 1013 624.863 1013 551.961C1013 485.846 964.393 431.084 900.965 421.461Z" fill="url(#paint0_linear_366_1174)" fill-opacity="0.2"/>
<path d="M639.965 421.461L639.89 420.967V421.955L639.965 421.461ZM750.5 310.926L750.994 310.851H750.006L750.5 310.926ZM750.5 531.996L750.006 532.071H750.994L750.5 531.996ZM861.035 421.461L861.11 421.955V420.967L861.035 421.461ZM900.965 421.461L900.89 420.967V421.955L900.965 421.461ZM750.5 270.996L750.006 271.071H750.994L750.5 270.996ZM600.035 421.461L600.11 421.955V420.967L600.035 421.461ZM750.5 571.926L750.994 571.851H750.006L750.5 571.926ZM640.04 421.955C697.173 413.287 742.326 368.134 750.994 311.001L750.006 310.851C741.403 367.551 696.59 412.364 639.89 420.967L640.04 421.955ZM750.994 531.921C742.326 474.788 697.173 429.635 640.04 420.967L639.89 421.955C696.59 430.558 741.403 475.371 750.006 532.071L750.994 531.921ZM750.994 532.071C759.597 475.371 804.41 430.558 861.11 421.955L860.96 420.967C803.827 429.635 758.674 474.788 750.006 531.921L750.994 532.071ZM750.006 311.001C758.674 368.134 803.827 413.287 860.96 421.955L861.11 420.967C804.41 412.364 759.597 367.551 750.994 310.851L750.006 311.001ZM901.04 421.955C964.709 412.296 1013.5 357.327 1013.5 290.961H1012.5C1012.5 356.825 964.077 411.38 900.89 420.967L901.04 421.955ZM1013.5 290.961C1013.5 217.783 954.178 158.461 881 158.461V159.461C953.625 159.461 1012.5 218.336 1012.5 290.961H1013.5ZM881 158.461C814.634 158.461 759.665 207.252 750.006 270.921L750.994 271.071C760.581 207.884 815.136 159.461 881 159.461V158.461ZM750.994 270.921C741.335 207.252 686.366 158.461 620 158.461V159.461C685.864 159.461 740.419 207.884 750.006 271.071L750.994 270.921ZM620 158.461C546.822 158.461 487.5 217.783 487.5 290.961H488.5C488.5 218.336 547.375 159.461 620 159.461V158.461ZM487.5 290.961C487.5 357.327 536.291 412.296 599.96 421.955L600.11 420.967C536.923 411.38 488.5 356.825 488.5 290.961H487.5ZM599.96 420.967C536.291 430.626 487.5 485.595 487.5 551.961H488.5C488.5 486.097 536.923 431.542 600.11 421.955L599.96 420.967ZM487.5 551.961C487.5 625.139 546.822 684.461 620 684.461V683.461C547.375 683.461 488.5 624.586 488.5 551.961H487.5ZM620 684.461C686.366 684.461 741.335 635.67 750.994 572.001L750.006 571.851C740.419 635.038 685.864 683.461 620 683.461V684.461ZM881 683.461C815.136 683.461 760.581 635.038 750.994 571.851L750.006 572.001C759.665 635.67 814.634 684.461 881 684.461V683.461ZM1012.5 551.961C1012.5 624.586 953.625 683.461 881 683.461V684.461C954.178 684.461 1013.5 625.139 1013.5 551.961H1012.5ZM900.89 421.955C964.077 431.542 1012.5 486.097 1012.5 551.961H1013.5C1013.5 485.595 964.709 430.626 901.04 420.967L900.89 421.955Z" fill="#F8F9FA" fill-opacity="0.15"/>
</g>
<path d="M547.897 291.03C547.753 289.646 546.543 288.857 544.841 288.857C543.026 288.857 541.878 289.79 541.867 291.051C541.867 292.456 543.395 293.009 544.574 293.286L546.01 293.676C547.907 294.137 550.286 295.173 550.296 297.859C550.286 300.372 548.286 302.207 544.779 302.207C541.457 302.207 539.365 300.546 539.222 297.839H541.478C541.611 299.459 543.046 300.228 544.779 300.238C546.676 300.228 548.05 299.275 548.061 297.818C548.05 296.526 546.82 296.004 545.251 295.583L543.487 295.111C541.098 294.455 539.622 293.245 539.611 291.174C539.622 288.61 541.898 286.908 544.902 286.908C547.917 286.908 550.019 288.631 550.091 291.03H547.897ZM553.444 301.961H551.045L556.377 287.113H558.981L564.334 301.961H561.935L560.581 298.044H554.798L553.444 301.961ZM555.444 296.157H559.925L557.73 289.82H557.628L555.444 296.157ZM565.801 301.961V287.113H571.092C574.547 287.113 576.239 289.185 576.239 291.933C576.239 294.671 574.537 296.752 571.092 296.752H568.057V301.961H565.801ZM568.057 294.824H570.866C573.05 294.835 573.963 293.604 573.963 291.933C573.963 290.251 573.05 289.051 570.866 289.041H568.057V294.824ZM592.954 291.953C592.595 290.036 591.006 288.969 589.119 288.98C586.555 288.969 584.658 290.938 584.648 294.537C584.658 298.157 586.566 300.105 589.119 300.095C590.985 300.105 592.564 299.059 592.954 297.162L595.23 297.183C594.759 300.115 592.369 302.166 589.098 302.166C585.233 302.166 582.413 299.285 582.413 294.537C582.413 289.79 585.253 286.908 589.098 286.908C592.236 286.908 594.728 288.764 595.23 291.953H592.954ZM601.865 302.187C598.584 302.187 596.564 299.921 596.574 296.465C596.564 293.04 598.614 290.682 601.721 290.682C604.254 290.682 606.664 292.251 606.664 296.28V297.06H598.748C598.809 299.182 600.06 300.382 601.885 300.382C603.126 300.382 603.936 299.849 604.305 299.172H606.52C606.028 300.977 604.316 302.187 601.865 302.187ZM598.758 295.419H604.51C604.51 293.727 603.413 292.476 601.742 292.486C599.988 292.476 598.85 293.85 598.758 295.419ZM608.418 301.961V290.825H610.53V292.589H610.653C611.063 291.4 612.181 290.651 613.483 290.661C613.75 290.651 614.18 290.682 614.406 290.702V292.794C614.221 292.753 613.709 292.661 613.257 292.671C611.74 292.661 610.612 293.717 610.612 295.173V301.961H608.418ZM621.492 290.825V292.568H619.215V298.68C619.226 299.941 619.841 300.167 620.548 300.177C620.866 300.177 621.348 300.146 621.656 300.115V302.023C621.358 302.064 620.887 302.105 620.282 302.105C618.569 302.105 617.021 301.161 617.042 299.131V292.568H615.401V290.825H617.042V288.159H619.215V290.825H621.492ZM623.205 301.961V290.825H625.399V301.961H623.205ZM622.917 287.811C622.928 287.093 623.553 286.519 624.312 286.519C625.061 286.519 625.686 287.093 625.686 287.811C625.686 288.528 625.061 289.113 624.312 289.103C623.553 289.113 622.928 288.528 622.917 287.811ZM632.956 290.825V292.568H630.557V301.961H628.363V292.568H626.64V290.825H628.363V289.533C628.373 287.544 629.644 286.416 631.685 286.416C632.208 286.416 632.751 286.478 633.182 286.56V288.385C632.772 288.323 632.454 288.303 632.259 288.303C631.1 288.303 630.557 288.775 630.557 289.861V290.825H632.956ZM634.526 301.961V290.825H636.72V301.961H634.526ZM634.239 287.811C634.249 287.093 634.874 286.519 635.633 286.519C636.382 286.519 637.007 287.093 637.007 287.811C637.007 288.528 636.382 289.113 635.633 289.103C634.874 289.113 634.249 288.528 634.239 287.811ZM643.765 302.187C640.484 302.187 638.464 299.921 638.474 296.465C638.464 293.04 640.514 290.682 643.621 290.682C646.154 290.682 648.564 292.251 648.564 296.28V297.06H640.648C640.709 299.182 641.96 300.382 643.785 300.382C645.026 300.382 645.836 299.849 646.205 299.172H648.42C647.928 300.977 646.216 302.187 643.765 302.187ZM640.658 295.419H646.41C646.41 293.727 645.313 292.476 643.642 292.486C641.888 292.476 640.75 293.85 640.658 295.419ZM654.481 302.187C651.794 302.176 649.825 300.013 649.825 296.424C649.825 292.794 651.825 290.682 654.501 290.682C656.572 290.682 657.321 291.933 657.721 292.63H657.823V287.113H660.018V301.961H657.885V300.218H657.721C657.311 300.946 656.511 302.176 654.481 302.187ZM652.061 296.383C652.05 298.618 653.055 300.31 654.973 300.32C656.839 300.31 657.885 298.721 657.885 296.383C657.885 294.066 656.86 292.538 654.973 292.548C653.035 292.538 652.05 294.189 652.061 296.383ZM681.736 285.35V298.7H679.788V285.35H681.736ZM666.868 291.133C666.878 288.477 668.991 286.59 671.77 286.58C674.538 286.59 676.65 288.477 676.65 291.133C676.65 293.83 674.538 295.706 671.77 295.706C668.991 295.706 666.878 293.83 666.868 291.133ZM668.775 291.133C668.765 292.866 670.057 294.004 671.77 294.004C673.451 294.004 674.743 292.866 674.743 291.133C674.743 289.441 673.451 288.282 671.77 288.282C670.057 288.282 668.765 289.441 668.775 291.133ZM669.719 303.315V297.347H671.687V301.735H682.29V303.315H669.719ZM692.985 286.437V291.789H686.915V294.332C690.114 294.332 691.857 294.26 693.929 293.881L694.113 295.46C691.868 295.839 689.981 295.901 686.32 295.911H684.987V290.313H691.037V287.995H684.967V286.437H692.985ZM687.079 299.151V297.572H699.548V303.725H697.6V299.151H687.079ZM694.154 293.409V291.851H697.6V289.574H694.154V288.016H697.6V285.35H699.548V296.65H697.6V293.409H694.154Z" fill="#F8F9FA"/>
<path d="M828.752 286.478V288.098C828.752 289.841 828.752 291.738 828.24 294.353H830.885V295.952H823.441V303.725H821.472V295.952H814.13V294.353H826.271C826.814 291.728 826.814 289.81 826.825 288.098V288.077H816.181V286.478H828.752ZM848.614 294.517V296.075H841.191V298.003H846.564V303.663H844.595V299.582H833.726V298.003H839.263V296.075H831.86V294.517H848.614ZM832.762 292.138C836.412 291.799 838.935 290.466 839.15 288.631H833.541V287.093H839.263V285.268H841.191V287.093H846.933V288.631H841.303C841.498 290.466 844.01 291.799 847.692 292.138L847.076 293.594C843.908 293.307 841.355 292.251 840.227 290.518C839.089 292.251 836.525 293.307 833.377 293.594L832.762 292.138ZM855.905 286.416L851.127 304.196H849.179L853.957 286.416H855.905ZM866.047 286.785C866.037 291.656 863.668 295.193 857.659 297.183L856.88 295.645C859.874 294.671 861.771 293.348 862.848 291.728L857.126 292.199L856.818 290.62L863.566 290.333C863.791 289.708 863.935 289.051 863.996 288.364H857.741V286.785H866.047ZM859.997 303.315V297.613H861.966V301.735H872.281V303.315H859.997ZM865.985 292.691V291.092H869.82V285.35H871.769V298.946H869.82V292.691H865.985ZM889.498 285.329V294.783H887.55V290.066H883.674V288.487H887.55V285.329H889.498ZM874.117 293.307C876.988 292.394 878.701 290.108 878.711 287.524V285.924H880.639V287.524C880.639 289.861 882.32 292.035 885.089 292.917L884.063 294.435C882.043 293.737 880.516 292.353 879.706 290.6C878.906 292.579 877.337 294.117 875.163 294.865L874.117 293.307ZM877.48 297.183V295.645H889.498V300.218H879.429V301.92H890.134V303.479H877.521V298.741H887.57V297.183H877.48ZM901.793 286.662V288.221H894.923V290.251H901.28V291.789H894.923V293.881C898.594 293.901 900.737 293.84 903.228 293.409L903.434 294.988C900.778 295.419 898.491 295.491 894.472 295.481H892.954V286.662H901.793ZM894.738 300.279C894.738 298.136 897.086 296.896 900.993 296.896C904.838 296.896 907.238 298.136 907.248 300.279C907.238 302.443 904.838 303.673 900.993 303.663C897.086 303.673 894.738 302.443 894.738 300.279ZM896.686 300.279C896.676 301.479 898.255 302.156 900.993 302.166C903.68 302.156 905.31 301.479 905.3 300.279C905.31 299.11 903.68 298.423 900.993 298.434C898.255 298.423 896.676 299.11 896.686 300.279ZM905.197 296.65V285.35H907.145V296.65H905.197ZM929.664 285.35V296.219H927.716V293.983H923.081V292.384H927.716V290.149H923.276C922.086 293.102 919.328 295.183 915.349 296.321L914.57 294.804C918.918 293.563 921.461 291.225 921.809 288.262H915.513V286.662H923.922C923.922 287.339 923.85 287.995 923.727 288.61H927.716V285.35H929.664ZM917.421 300.013C917.421 297.788 919.841 296.434 923.614 296.424C927.336 296.434 929.777 297.788 929.787 300.013C929.777 302.248 927.336 303.622 923.614 303.622C919.841 303.622 917.421 302.248 917.421 300.013ZM919.348 300.013C919.348 301.305 920.989 302.053 923.614 302.064C926.188 302.053 927.828 301.305 927.839 300.013C927.828 298.7 926.188 297.952 923.614 297.962C920.989 297.952 919.348 298.7 919.348 300.013ZM947.393 285.329V296.465H945.445V292.466H942.574V290.846H945.445V285.329H947.393ZM932.094 288.713V287.154H936.524V285.165H938.452V287.154H942.861V288.713H932.094ZM933.161 292.835C933.161 290.907 934.966 289.554 937.488 289.554C940.01 289.554 941.795 290.907 941.795 292.835C941.795 294.814 940.01 296.127 937.488 296.137C934.966 296.127 933.161 294.814 933.161 292.835ZM935.027 292.835C935.027 293.953 936.022 294.65 937.488 294.66C938.934 294.65 939.928 293.953 939.928 292.835C939.928 291.758 938.934 291.041 937.488 291.051C936.022 291.041 935.027 291.758 935.027 292.835ZM935.273 303.479V297.367H947.393V303.479H935.273ZM937.201 301.9H945.486V298.905H937.201V301.9Z" fill="#F8F9FA"/>
<path d="M822.666 552.03C822.523 550.646 821.313 549.857 819.611 549.857C817.796 549.857 816.647 550.79 816.637 552.051C816.637 553.456 818.165 554.009 819.344 554.286L820.78 554.676C822.677 555.137 825.056 556.173 825.066 558.859C825.056 561.372 823.056 563.207 819.549 563.207C816.227 563.207 814.135 561.546 813.992 558.839H816.247C816.381 560.459 817.816 561.228 819.549 561.238C821.446 561.228 822.82 560.275 822.83 558.818C822.82 557.526 821.59 557.004 820.021 556.583L818.257 556.111C815.868 555.455 814.391 554.245 814.381 552.174C814.391 549.61 816.668 547.908 819.672 547.908C822.687 547.908 824.789 549.631 824.861 552.03H822.666ZM828.214 562.961H825.815L831.147 548.113H833.751L839.104 562.961H836.704L835.351 559.044H829.568L828.214 562.961ZM830.214 557.157H834.695L832.5 550.82H832.398L830.214 557.157ZM840.571 562.961V548.113H845.862C849.317 548.113 851.009 550.185 851.009 552.933C851.009 555.671 849.307 557.752 845.862 557.752H842.826V562.961H840.571ZM842.826 555.824H845.636C847.82 555.835 848.733 554.604 848.733 552.933C848.733 551.251 847.82 550.051 845.636 550.041H842.826V555.824ZM873.589 555.988V557.526H856.793V555.988H873.589ZM858.7 560.685V559.126H871.456V564.704H869.467V560.685H858.7ZM858.987 554.43V546.801H871.538V548.339H860.956V549.836H871.066V551.313H860.956V552.933H871.661V554.43H858.987ZM888.96 546.329V554.02H891.728V555.66H888.96V564.704H887.012V546.329H888.96ZM874.338 559.7C875.784 559.7 877.465 559.7 879.219 559.649V557.783C877.147 557.475 875.794 556.224 875.814 554.45C875.794 552.379 877.588 551.015 880.203 551.005C882.808 551.015 884.623 552.379 884.633 554.45C884.623 556.224 883.248 557.485 881.167 557.783V559.577C882.797 559.495 884.438 559.362 885.966 559.147L886.089 560.582C882.11 561.29 877.814 561.331 874.645 561.32L874.338 559.7ZM874.686 550.062V548.503H879.219V546.37H881.167V548.503H885.699V550.062H874.686ZM877.64 554.45C877.64 555.619 878.665 556.347 880.203 556.337C881.741 556.347 882.756 555.619 882.767 554.45C882.756 553.271 881.741 552.523 880.203 552.523C878.665 552.523 877.64 553.271 877.64 554.45ZM906.331 551.907V554.184H913.755V555.742H897V554.184H904.403V551.907H906.331ZM897.882 551.436C901.532 551.056 904.372 549.303 904.383 547.068V546.473H906.351V547.068C906.341 549.303 909.171 551.056 912.811 551.436L912.135 552.933C909.14 552.533 906.536 551.333 905.357 549.426C904.178 551.333 901.573 552.533 898.579 552.933L897.882 551.436ZM899.01 558.572V557.075H911.642V561.443H900.937V563.023H912.155V564.52H899.03V560.028H909.715V558.572H899.01ZM929.536 547.006V552.01H918.708V554.122H929.926V555.701H916.759V550.513H927.547V548.585H916.698V547.006H929.536ZM914.709 559.003V557.444H931.525V559.003H924.06V564.745H922.112V559.003H914.709ZM938.939 549.651C938.949 552.297 940.59 554.83 943.328 555.886L942.261 557.403C940.262 556.593 938.775 554.984 937.996 552.994C937.206 555.137 935.648 556.839 933.505 557.691L932.459 556.132C935.289 555.086 937.001 552.471 937.011 549.651V547.375H938.939V549.651ZM935.781 564.315V558.654H937.75V562.735H948.188V564.315H935.781ZM942.261 554.245V552.666H945.83V550.533H942.261V548.954H945.83V546.35H947.778V560.028H945.83V554.245H942.261Z" fill="#F8F9FA"/>
<path d="M550.789 547.478V549.098C550.789 550.841 550.789 552.738 550.276 555.353H552.922V556.952H545.477V564.725H543.509V556.952H536.167V555.353H548.308C548.851 552.728 548.851 550.81 548.861 549.098V549.077H538.218V547.478H550.789ZM570.651 555.517V557.075H563.227V559.003H568.6V564.663H566.632V560.582H555.763V559.003H561.3V557.075H553.896V555.517H570.651ZM554.799 553.138C558.449 552.799 560.972 551.466 561.187 549.631H555.578V548.093H561.3V546.268H563.227V548.093H568.97V549.631H563.34C563.535 551.466 566.047 552.799 569.728 553.138L569.113 554.594C565.945 554.307 563.391 553.251 562.264 551.518C561.125 553.251 558.562 554.307 555.414 554.594L554.799 553.138ZM591.611 546.329V564.704H589.642V546.329H591.611ZM576.517 559.782C581.398 557.455 583.787 554.143 584.167 549.857H577.399V548.298H586.135C586.135 553.681 583.849 558.337 577.543 561.361L576.517 559.782ZM603.434 547.026C603.444 549.139 606.357 550.913 609.935 551.313L609.258 552.789C606.244 552.42 603.609 551.149 602.429 549.272C601.24 551.149 598.605 552.42 595.621 552.789L594.944 551.313C598.533 550.913 601.435 549.139 601.445 547.026V546.411H603.434V547.026ZM594.062 555.414V553.856H610.817V555.414H603.393V557.055H608.705V561.402H598V563.023H609.217V564.52H596.092V559.987H606.777V558.552H596.072V557.055H601.445V555.414H594.062ZM621.482 563.166C618.498 563.166 616.663 561.402 616.663 559.024C616.663 557.239 617.832 556.152 619.534 554.994C618.59 553.845 617.903 552.799 617.893 551.477C617.903 549.416 619.38 547.949 621.646 547.949C623.933 547.949 625.337 549.446 625.337 551.19C625.337 552.605 624.599 553.64 623.369 554.532L622.343 555.281L625.317 558.829C625.696 558.09 625.932 557.209 625.932 556.214H627.901C627.901 558.275 627.306 559.598 626.66 560.439L628.783 562.961H626.322L625.317 561.782C624.302 562.725 622.825 563.166 621.482 563.166ZM618.857 558.962C618.847 560.234 619.893 561.32 621.502 561.32C622.405 561.32 623.328 560.972 624.086 560.346L620.764 556.45L620.395 556.727C619.226 557.588 618.847 558.49 618.857 558.962ZM619.944 551.497C619.944 552.256 620.477 553.015 621.154 553.845L622.056 553.199C622.866 552.666 623.348 552.123 623.348 551.251C623.348 550.554 622.692 549.775 621.687 549.775C620.662 549.785 619.944 550.646 619.944 551.497ZM650.645 556.706V558.306H646.379V564.704H644.41V558.306H640.022V564.704H638.012V558.306H633.828V556.706H650.645ZM635.654 551.087C635.664 548.606 638.309 547.026 642.196 547.026C646.082 547.026 648.748 548.606 648.738 551.087C648.748 553.538 646.082 555.086 642.196 555.066C638.309 555.086 635.664 553.538 635.654 551.087ZM637.663 551.087C637.653 552.594 639.468 553.527 642.196 553.527C644.933 553.527 646.738 552.594 646.748 551.087C646.738 549.539 644.933 548.595 642.196 548.585C639.468 548.595 637.653 549.539 637.663 551.087ZM658.346 551.743C658.336 554.819 660.356 557.998 663.186 559.208L662.119 560.726C659.956 559.772 658.233 557.742 657.382 555.291C656.531 557.916 654.808 560.151 652.665 561.197L651.537 559.659C654.306 558.357 656.357 554.912 656.377 551.743V549.795H652.173V548.175H662.53V549.795H658.346V551.743ZM664.847 564.704V546.329H666.795V564.704H664.847ZM686.124 560.808V562.428H669.308V560.808H676.711V557.034H671.235V547.58H673.184V550.738H682.207V547.58H684.135V557.034H678.639V560.808H686.124ZM673.184 555.455H682.207V552.318H673.184V555.455ZM696.45 547.949C696.44 550.39 699.424 552.676 703.033 553.158L702.274 554.758C699.27 554.276 696.635 552.717 695.435 550.554C694.235 552.717 691.6 554.276 688.616 554.758L687.837 553.158C691.436 552.676 694.41 550.421 694.42 547.949V546.944H696.45V547.949ZM687.037 558.162V556.563H703.792V558.162H696.327V564.704H694.42V558.162H687.037Z" fill="#F8F9FA"/>
<path d="M724.488 106.711C721.878 106.711 719.754 104.735 719.754 102.306C719.754 99.8778 721.878 97.9022 724.488 97.9022C727.098 97.9022 729.22 99.8778 729.22 102.306C729.22 104.735 727.098 106.711 724.488 106.711ZM711.295 100.566H706.185C705.395 100.566 704.753 99.9682 704.753 99.2337C704.753 98.4998 705.395 97.9022 706.185 97.9022H716.002V102.306C716.002 102.762 716.046 103.208 716.126 103.643C715.372 101.844 713.491 100.566 711.295 100.566ZM742.143 97.9022V94.4103H736.631V88H732.878V101.121C732.261 97.3273 728.734 94.4103 724.488 94.4103C722.736 94.4103 721.108 94.9067 719.754 95.7558V88H716.002V94.4103H706.185C703.326 94.4103 701 96.5742 701 99.2337C701 101.894 703.326 104.058 706.185 104.058H711.295C712.084 104.058 712.727 104.656 712.727 105.39C712.727 106.124 712.084 106.722 711.295 106.722H702.115V110.214H711.295C714.154 110.214 716.479 108.05 716.479 105.39C716.479 105.192 716.465 104.997 716.44 104.805C717.566 107.938 720.747 110.203 724.488 110.203C728.734 110.203 732.261 107.286 732.878 103.492V105.39C732.878 108.05 735.203 110.214 738.062 110.214H742.143V106.722H738.062C737.273 106.722 736.631 106.124 736.631 105.39V97.9022H742.143Z" fill="#F2F3F5"/>
<path d="M753.898 110.214C750.117 110.214 747.041 107.367 747.041 103.867C747.041 100.368 750.117 97.5203 753.898 97.5203C755.729 97.5203 757.452 98.181 758.747 99.3797L757.344 100.679C756.423 99.8276 755.199 99.3584 753.898 99.3584C751.211 99.3584 749.027 101.381 749.027 103.867C749.027 106.354 751.211 108.376 753.898 108.376C756.244 108.376 758.207 106.833 758.667 104.787H753.898V102.949H760.755V103.867C760.755 107.367 757.679 110.214 753.898 110.214Z" fill="#F2F3F5"/>
<path d="M800.428 110.214H798.469V96.6136H800.428V110.214Z" fill="#F2F3F5"/>
<path d="M763.696 110.214H761.736V96.6136H763.696V110.214Z" fill="#F2F3F5"/>
<path d="M769.572 102.957C767.949 102.957 766.628 104.178 766.628 105.68C766.628 107.183 767.949 108.404 769.572 108.404C771.195 108.404 772.515 107.183 772.515 105.68C772.515 104.178 771.195 102.957 769.572 102.957ZM769.572 110.214C766.872 110.214 764.674 108.181 764.674 105.68C764.674 103.181 766.872 101.147 769.572 101.147C772.272 101.147 774.47 103.181 774.47 105.68C774.47 108.181 772.272 110.214 769.572 110.214Z" fill="#F2F3F5"/>
<path d="M780.838 108.36C779.214 108.36 777.895 107.109 777.895 105.57C777.895 104.031 779.214 102.779 780.838 102.779C782.461 102.779 783.78 104.031 783.78 105.57C783.78 107.109 782.461 108.36 780.838 108.36ZM780.838 100.926C779.733 100.926 778.482 101.476 777.895 102.148V96.6136H775.939V110.089H777.895V108.933C778.646 109.809 779.733 110.214 780.838 110.214C783.538 110.214 785.735 108.131 785.735 105.57C785.735 103.009 783.538 100.926 780.838 100.926Z" fill="#F2F3F5"/>
<path d="M791.613 108.404C789.991 108.404 788.67 107.183 788.67 105.68C788.67 104.178 789.991 102.957 791.613 102.957C793.236 102.957 794.556 104.178 794.556 105.68C794.556 107.183 793.236 108.404 791.613 108.404ZM794.556 101.147V102.355C793.998 101.619 792.716 101.147 791.613 101.147C788.912 101.147 786.715 103.181 786.715 105.68C786.715 108.181 788.912 110.214 791.613 110.214C792.716 110.214 793.923 109.735 794.556 108.948V110.092H796.511V101.147H794.556Z" fill="#F2F3F5"/>
<path d="M747.041 97.3694C747.041 97.7032 746.749 97.9737 746.388 97.9737H743.776C743.415 97.9737 743.123 97.7032 743.123 97.3694V94.9518C743.123 94.6184 743.415 94.3475 743.776 94.3475H746.388C746.749 94.3475 747.041 94.6184 747.041 94.9518V97.3694Z" fill="#FF6600"/>
<path d="M245.747 398.411V409.362H244.127V406.901H239.287V405.568H244.127V403.108H239.471C238.272 406.04 235.462 408.163 231.555 409.321L230.879 408.05C235.277 406.748 238.036 404.276 238.354 401.118H231.801V399.765H240.107C240.107 400.483 240.025 401.17 239.871 401.816H244.127V398.411H245.747ZM233.688 413.033C233.678 410.859 236.047 409.547 239.779 409.547C243.47 409.547 245.849 410.859 245.849 413.033C245.849 415.217 243.47 416.54 239.779 416.54C236.047 416.54 233.678 415.217 233.688 413.033ZM235.267 413.033C235.277 414.407 237.031 415.238 239.779 415.228C242.486 415.238 244.239 414.407 244.25 413.033C244.239 411.659 242.486 410.829 239.779 410.839C237.031 410.829 235.277 411.659 235.267 413.033ZM263.476 398.391V409.444H261.856V405.281H258.759V403.948H261.856V398.391H263.476ZM248.382 401.631V400.318H252.915V398.227H254.494V400.318H259.026V401.631H248.382ZM249.469 405.815C249.469 403.907 251.223 402.574 253.694 402.574C256.175 402.574 257.919 403.907 257.939 405.815C257.919 407.783 256.175 409.075 253.694 409.075C251.223 409.075 249.469 407.783 249.469 405.815ZM251.007 405.815C251.007 407.025 252.105 407.824 253.694 407.845C255.283 407.824 256.38 407.025 256.38 405.815C256.38 404.646 255.283 403.825 253.694 403.825C252.105 403.825 251.007 404.646 251.007 405.815ZM251.561 416.376V410.429H263.476V416.376H251.561ZM253.161 415.064H261.897V411.721H253.161V415.064ZM280.344 398.391V402.513H283.092V403.866H280.344V407.742H278.745V398.391H280.344ZM266.871 407.025V399.601H275.299V407.025H266.871ZM268.04 416.13V409.383H269.598V414.807C270.654 414.766 272.059 414.612 273.351 414.182L273.597 415.474C271.823 416.058 270.09 416.14 268.901 416.13H268.04ZM268.45 405.733H273.741V400.913H268.45V405.733ZM272.961 410.798V409.568H276.796V407.947H278.375V409.568H282.169V410.798H272.961ZM274.171 414.018C274.161 412.439 275.545 411.464 277.555 411.454C279.555 411.464 280.959 412.439 280.98 414.018C280.959 415.597 279.555 416.581 277.555 416.581C275.545 416.581 274.161 415.597 274.171 414.018ZM275.607 414.018C275.607 414.889 276.417 415.453 277.555 415.433C278.693 415.453 279.503 414.889 279.503 414.018C279.503 413.167 278.693 412.613 277.555 412.603C276.417 412.613 275.607 413.167 275.607 414.018ZM298.443 400.236V402.062C298.422 404.297 298.422 406.799 297.766 410.47L296.125 410.285C296.812 406.799 296.812 404.246 296.823 402.062V401.569H285.584V400.236H298.443ZM283.821 414.038V412.705H290.342V406.184H291.921V412.705H300.432V414.038H283.821ZM320.654 398.391V403.948H323.402V405.302H320.654V411.844H319.054V398.391H320.654ZM306.749 404.174C306.739 401.528 308.81 399.693 311.528 399.683C314.265 399.693 316.306 401.528 316.326 404.174C316.306 406.809 314.265 408.665 311.528 408.665C308.81 408.665 306.739 406.809 306.749 404.174ZM308.328 404.174C308.318 405.968 309.723 407.25 311.528 407.25C313.363 407.25 314.737 405.968 314.747 404.174C314.737 402.369 313.363 401.098 311.528 401.098C309.723 401.098 308.318 402.369 308.328 404.174ZM309.251 416.233V410.449H310.83V414.879H321.494V416.233H309.251ZM339.244 398.391V409.26H337.624V404.482H333.953V403.149H337.624V398.391H339.244ZM324.212 407.804C326.919 406.83 328.847 404.359 328.847 401.754V401.077H324.725V399.724H334.548V401.077H330.467V401.734C330.467 404.112 332.292 406.379 334.958 407.291L334.117 408.583C332.077 407.845 330.487 406.307 329.698 404.43C328.919 406.563 327.227 408.265 325.053 409.096L324.212 407.804ZM327.083 413.218C327.073 411.075 329.401 409.824 333.194 409.834C336.978 409.824 339.306 411.075 339.306 413.218C339.306 415.371 336.978 416.602 333.194 416.622C329.401 416.602 327.073 415.371 327.083 413.218ZM328.683 413.218C328.673 414.541 330.395 415.34 333.194 415.33C335.984 415.34 337.706 414.541 337.706 413.218C337.706 411.885 335.984 411.085 333.194 411.085C330.395 411.085 328.673 411.885 328.683 413.218ZM348.196 401.754C348.196 404.123 350.022 406.389 352.688 407.312L351.847 408.583C349.796 407.845 348.207 406.317 347.427 404.441C346.638 406.532 344.946 408.214 342.782 409.014L341.941 407.742C344.628 406.778 346.576 404.348 346.576 401.775V400.975H342.454V399.662H352.277V400.975H348.196V401.754ZM344.71 411.618V410.285H356.974V416.622H355.354V411.618H344.71ZM351.703 404.523V403.169H355.354V398.391H356.974V409.321H355.354V404.523H351.703ZM374.642 398.411V411.741H373.042V398.411H374.642ZM360.02 404.153C360.009 401.528 362.07 399.693 364.798 399.683C367.525 399.693 369.566 401.528 369.576 404.153C369.566 406.809 367.525 408.655 364.798 408.645C362.07 408.655 360.009 406.809 360.02 404.153ZM361.599 404.153C361.578 405.968 362.952 407.23 364.798 407.23C366.613 407.23 367.997 405.968 367.997 404.153C367.997 402.369 366.613 401.098 364.798 401.098C362.952 401.098 361.578 402.369 361.599 404.153ZM362.87 416.233V410.388H364.47V414.879H375.216V416.233H362.87ZM259.077 427.391V445.622H257.498V436.086H254.975V444.72H253.437V427.883H254.975V434.753H257.498V427.391H259.077ZM243.532 440.577C247.767 438.209 249.51 434.876 249.787 431.103H244.229V429.77H251.366C251.345 434.404 249.715 438.783 244.475 441.705L243.532 440.577ZM263.599 428.17V430.795H268.911V428.17H270.51V436.107H262.02V428.17H263.599ZM263.599 434.794H268.911V432.046H263.599V434.794ZM263.866 438.978V437.686H275.494V442.095H265.486V444.105H276.17V445.417H263.907V440.864H273.894V438.978H263.866ZM273.894 436.824V427.391H275.494V431.349H278.242V432.702H275.494V436.824H273.894ZM294.023 427.411V440.741H292.423V427.411H294.023ZM279.401 433.153C279.391 430.528 281.452 428.693 284.179 428.683C286.907 428.693 288.947 430.528 288.958 433.153C288.947 435.809 286.907 437.655 284.179 437.645C281.452 437.655 279.391 435.809 279.401 433.153ZM280.98 433.153C280.959 434.968 282.333 436.23 284.179 436.23C285.994 436.23 287.378 434.968 287.378 433.153C287.378 431.369 285.994 430.098 284.179 430.098C282.333 430.098 280.959 431.369 280.98 433.153ZM282.251 445.233V439.388H283.851V443.879H294.597V445.233H282.251ZM311.732 427.411V441.254H310.112V439.367H306.338V438.198H310.112V427.411H311.732ZM296.597 435.86C299.991 435.84 304.564 435.809 308.471 435.327L308.574 436.496C306.954 436.753 305.241 436.917 303.57 437.019V440.618H301.95V437.101C300.104 437.173 298.35 437.173 296.823 437.173L296.597 435.86ZM298.074 431.328C298.063 429.411 299.889 428.15 302.585 428.15C305.262 428.15 307.087 429.411 307.097 431.328C307.087 433.276 305.262 434.486 302.585 434.486C299.889 434.486 298.063 433.276 298.074 431.328ZM299.222 445.233V439.901H300.842V443.879H312.183V445.233H299.222ZM299.612 431.328C299.591 432.518 300.801 433.287 302.585 433.297C304.318 433.287 305.549 432.518 305.559 431.328C305.549 430.159 304.318 429.359 302.585 429.38C300.801 429.359 299.591 430.159 299.612 431.328ZM328.795 428.58V436.004H320.243V428.58H328.795ZM321.556 444.31C324.694 443.961 327.708 442.187 327.708 440.372H322.315V439.121H327.729V437.337H329.328V439.121H334.783V440.372H329.369C329.359 442.146 332.292 443.92 335.419 444.31L334.865 445.561C332.128 445.181 329.626 443.889 328.539 442.208C327.442 443.93 324.878 445.181 322.13 445.561L321.556 444.31ZM321.823 434.733H327.216V429.893H321.823V434.733ZM332.733 437.87V427.391H334.312V437.87H332.733ZM356.974 439.142V445.622H355.354V440.434H344.71V439.142H356.974ZM342.147 432.784C342.136 430.241 344.156 428.426 346.884 428.437C348.463 428.426 349.806 429.052 350.647 430.077H355.354V427.391H356.974V438.137H355.354V435.512H350.657C349.816 436.547 348.473 437.163 346.884 437.152C344.156 437.173 342.136 435.379 342.147 432.784ZM343.685 432.784C343.685 434.558 345.018 435.799 346.884 435.799C348.678 435.799 350.042 434.558 350.042 432.784C350.042 431.072 348.678 429.811 346.884 429.811C345.018 429.811 343.685 431.072 343.685 432.784ZM351.385 434.179H355.354V431.41H351.375C351.519 431.841 351.601 432.292 351.601 432.784C351.601 433.276 351.519 433.748 351.385 434.179ZM376.61 430.262V431.615H373.842V434.097H376.61V435.471H373.842V438.444H372.242V427.411H373.842V430.262H376.61ZM360.368 429.872V428.539H368.633V433.461H361.988V436.004C365.229 436.014 367.577 435.891 370.417 435.409L370.581 436.763C367.659 437.245 365.218 437.358 361.824 437.358H360.409V432.19H367.054V429.872H360.368ZM361.947 442.3C361.937 440.208 364.234 438.967 367.997 438.978C371.719 438.967 374.006 440.208 374.006 442.3C374.006 444.381 371.719 445.581 367.997 445.581C364.234 445.581 361.937 444.381 361.947 442.3ZM363.526 442.3C363.506 443.571 365.198 444.34 367.997 444.33C370.755 444.34 372.437 443.571 372.447 442.3C372.437 441.018 370.755 440.249 367.997 440.249C365.198 440.249 363.506 441.018 363.526 442.3Z" fill="#F8F9FA"/>
<circle opacity="0.2" cx="109" cy="421.961" r="318.5" stroke="url(#paint1_linear_366_1174)"/>
<circle opacity="0.2" cx="1391" cy="421.961" r="318.5" stroke="url(#paint2_linear_366_1174)"/>
<path d="M1139.81 398.391V416.622H1138.19V398.391H1139.81ZM1124.96 411.885C1129.9 409.547 1132.42 406.05 1132.78 401.693H1125.8V400.38H1134.42C1134.4 405.62 1131.96 410.265 1125.85 413.197L1124.96 411.885ZM1147.49 399.252C1149.93 399.242 1151.8 400.667 1152.15 402.759H1155.96V398.391H1157.58V408.173H1155.96V404.092H1152.16C1151.84 406.245 1149.96 407.681 1147.49 407.681C1144.71 407.681 1142.74 405.958 1142.75 403.456C1142.74 400.985 1144.71 399.242 1147.49 399.252ZM1144.29 403.456C1144.29 405.117 1145.62 406.317 1147.49 406.327C1149.33 406.317 1150.65 405.117 1150.65 403.456C1150.65 401.775 1149.33 400.606 1147.49 400.626C1145.62 400.606 1144.29 401.775 1144.29 403.456ZM1145.83 416.376V409.096H1147.45V411.413H1155.96V409.096H1157.58V416.376H1145.83ZM1147.45 415.064H1155.96V412.705H1147.45V415.064ZM1175.23 398.391V416.663H1173.61V398.391H1175.23ZM1160.87 406.163C1160.88 402.287 1162.81 399.816 1165.53 399.806C1168.24 399.816 1170.19 402.287 1170.18 406.163C1170.19 410.049 1168.24 412.51 1165.53 412.5C1162.81 412.51 1160.88 410.049 1160.87 406.163ZM1162.43 406.163C1162.43 409.127 1163.7 411.075 1165.53 411.065C1167.36 411.075 1168.63 409.127 1168.63 406.163C1168.63 403.2 1167.36 401.252 1165.53 401.241C1163.7 401.252 1162.43 403.2 1162.43 406.163ZM1197.85 398.391V407.865H1196.23V398.391H1197.85ZM1183.08 405.876C1183.81 405.876 1184.6 405.866 1185.42 405.856V400.934H1183.6V399.642H1193.46V400.934H1191.62V405.609C1192.56 405.538 1193.48 405.445 1194.36 405.343L1194.45 406.532C1190.8 407.076 1186.51 407.219 1183.29 407.209L1183.08 405.876ZM1185.91 410.039V408.747H1197.85V413.095H1187.56V415.105H1198.55V416.417H1185.98V411.885H1196.25V410.039H1185.91ZM1186.98 405.825C1187.99 405.794 1189.02 405.763 1190.06 405.702V400.934H1186.98V405.825ZM1217.2 412.931V414.284H1200.51V412.931H1204.65V408.019C1203.09 407.209 1202.15 405.897 1202.15 404.235C1202.15 401.416 1204.92 399.56 1208.81 399.539C1212.71 399.56 1215.48 401.416 1215.48 404.235C1215.48 405.866 1214.56 407.158 1213.06 407.968V412.931H1217.2ZM1203.71 404.235C1203.7 406.276 1205.82 407.64 1208.81 407.64C1211.78 407.64 1213.92 406.276 1213.92 404.235C1213.92 402.195 1211.78 400.852 1208.81 400.872C1205.82 400.852 1203.7 402.195 1203.71 404.235ZM1206.23 412.931H1211.44V408.593C1210.65 408.798 1209.77 408.911 1208.81 408.911C1207.88 408.911 1207.01 408.809 1206.23 408.604V412.931ZM1234.93 413.013V414.366H1218.24V413.013H1225.74V409.568H1220.33V403.948H1231.24V401.077H1220.29V399.744H1232.82V405.261H1221.93V408.234H1233.25V409.568H1227.32V413.013H1234.93ZM1254.93 398.391V405.917H1257.98V407.25H1254.93V416.622H1253.33V398.391H1254.93ZM1240.71 402.656V401.323H1245.41V398.616H1247.01V401.323H1251.56V402.656H1240.71ZM1241.76 408.358C1241.75 405.897 1243.64 404.174 1246.23 404.174C1248.8 404.174 1250.68 405.897 1250.7 408.358C1250.68 410.829 1248.8 412.541 1246.23 412.541C1243.64 412.541 1241.75 410.829 1241.76 408.358ZM1243.3 408.358C1243.29 410.019 1244.53 411.188 1246.23 411.167C1247.91 411.188 1249.14 410.019 1249.16 408.358C1249.14 406.707 1247.91 405.517 1246.23 405.527C1244.53 405.517 1243.29 406.707 1243.3 408.358ZM1273.29 403.928V405.22H1260.8V399.068H1262.4V403.928H1273.29ZM1258.52 409.014V407.701H1275.22V409.014H1258.52ZM1260.7 416.171V410.88H1262.3V414.838H1273.39V416.171H1260.7ZM1139.34 427.391V434.527H1141.82V435.901H1139.34V445.622H1137.74V427.391H1139.34ZM1125.11 441.213V429.093H1126.5V433.81H1128.8V429.093H1130.17V441.213H1125.11ZM1126.5 439.859H1128.8V435.102H1126.5V439.859ZM1131.16 441.213V429.093H1132.53V433.81H1134.77V429.093H1136.14V441.213H1131.16ZM1132.53 439.859H1134.77V435.102H1132.53V439.859ZM1159.16 441.972V443.325H1142.47V441.972H1159.16ZM1144.52 430.118V428.785H1157.05V434.302H1146.16V437.296H1157.48V438.588H1144.56V432.989H1155.47V430.118H1144.52ZM1174.82 429.236V431.062C1174.8 433.297 1174.8 435.799 1174.14 439.47L1172.5 439.285C1173.19 435.799 1173.19 433.246 1173.2 431.062V430.569H1161.96V429.236H1174.82ZM1160.2 443.038V441.705H1166.72V435.184H1168.3V441.705H1176.81V443.038H1160.2ZM1197.89 427.391V438.26H1196.27V433.482H1192.6V432.149H1196.27V427.391H1197.89ZM1182.86 436.804C1185.57 435.83 1187.49 433.359 1187.49 430.754V430.077H1183.37V428.724H1193.19V430.077H1189.11V430.734C1189.11 433.112 1190.94 435.379 1193.61 436.291L1192.76 437.583C1190.72 436.845 1189.13 435.307 1188.34 433.43C1187.57 435.563 1185.87 437.265 1183.7 438.096L1182.86 436.804ZM1185.73 442.218C1185.72 440.075 1188.05 438.824 1191.84 438.834C1195.63 438.824 1197.95 440.075 1197.95 442.218C1197.95 444.371 1195.63 445.602 1191.84 445.622C1188.05 445.602 1185.72 444.371 1185.73 442.218ZM1187.33 442.218C1187.32 443.541 1189.04 444.34 1191.84 444.33C1194.63 444.34 1196.35 443.541 1196.35 442.218C1196.35 440.885 1194.63 440.085 1191.84 440.085C1189.04 440.085 1187.32 440.885 1187.33 442.218ZM1214.74 427.411V432.928H1217.47V434.281H1214.74V439.634H1213.12V427.411H1214.74ZM1200.42 437.768C1201.88 437.768 1203.58 437.768 1205.37 437.716V436.373C1203.24 436.178 1201.87 435.204 1201.88 433.687C1201.87 432.026 1203.58 431 1206.15 431C1208.73 431 1210.41 432.026 1210.43 433.687C1210.41 435.194 1209.08 436.168 1206.97 436.373V437.655C1208.67 437.573 1210.39 437.429 1211.99 437.193L1212.13 438.362C1208.18 439.06 1203.82 439.09 1200.61 439.08L1200.42 437.768ZM1200.88 430.303V429.072H1205.37V427.247H1206.97V429.072H1211.44V430.303H1200.88ZM1202.66 441.828V440.536H1214.74V445.622H1213.12V441.828H1202.66ZM1203.42 433.687C1203.41 434.64 1204.46 435.286 1206.15 435.266C1207.83 435.286 1208.89 434.64 1208.89 433.687C1208.89 432.723 1207.83 432.128 1206.15 432.149C1204.46 432.128 1203.41 432.723 1203.42 433.687ZM1232.49 427.411V433.42H1235.24V434.774H1232.49V441.069H1230.89V427.411H1232.49ZM1218.28 430.959V429.647H1222.91V427.411H1224.51V429.647H1229.15V430.959H1218.28ZM1219.32 435.368C1219.31 433.297 1221.08 431.964 1223.71 431.964C1226.32 431.964 1228.08 433.297 1228.1 435.368C1228.08 437.419 1226.32 438.742 1223.71 438.732C1221.08 438.742 1219.31 437.419 1219.32 435.368ZM1220.86 435.368C1220.85 436.65 1221.99 437.481 1223.71 437.46C1225.41 437.481 1226.56 436.65 1226.58 435.368C1226.56 434.066 1225.41 433.225 1223.71 433.235C1221.99 433.225 1220.85 434.066 1220.86 435.368ZM1221.09 445.233V439.983H1222.67V443.879H1233.33V445.233H1221.09ZM1249.9 432.969V435.368H1257.43V436.681H1240.82V435.368H1248.32V432.969H1249.9ZM1241.74 432.702C1245.07 432.333 1248.3 430.59 1248.3 428.232V427.534H1249.92V428.232C1249.92 430.59 1253.16 432.333 1256.48 432.702L1255.91 433.933C1253.04 433.543 1250.26 432.302 1249.11 430.303C1247.96 432.302 1245.17 433.543 1242.31 433.933L1241.74 432.702ZM1242.83 439.449V438.198H1255.29V442.341H1244.47V444.146H1255.85V445.417H1242.87V441.131H1253.72V439.449H1242.83ZM1273.19 428.129V432.866H1262.2V435.225H1273.58V436.558H1260.58V431.595H1271.55V429.442H1260.53V428.129H1273.19ZM1258.52 439.777V438.485H1275.22V439.777H1267.63V445.663H1266.03V439.777H1258.52ZM1282.51 430.775C1282.51 433.451 1284.34 435.973 1286.98 437.009L1286.08 438.26C1284.08 437.429 1282.51 435.768 1281.74 433.697C1280.96 435.932 1279.32 437.706 1277.2 438.588L1276.32 437.296C1279.03 436.25 1280.92 433.635 1280.93 430.775V428.437H1282.51V430.775ZM1279.6 445.233V439.613H1281.22V443.879H1291.8V445.233H1279.6ZM1286.02 435.184V433.871H1289.77V431.451H1286.02V430.118H1289.77V427.411H1291.39V441.028H1289.77V435.184H1286.02ZM1315.55 441.951V443.284H1298.85V441.951H1306.36V438.014H1300.82V428.683H1302.44V431.984H1311.92V428.683H1313.5V438.014H1307.94V441.951H1315.55ZM1302.44 436.701H1311.92V433.297H1302.44V436.701ZM1333.26 437.788V439.121H1328.85V445.622H1327.23V439.121H1322.55V445.622H1320.89V439.121H1316.56V437.788H1333.26ZM1318.45 432.108C1318.46 429.677 1321.03 428.139 1324.87 428.129C1328.69 428.139 1331.29 429.677 1331.29 432.108C1331.29 434.538 1328.69 436.055 1324.87 436.045C1321.03 436.055 1318.46 434.538 1318.45 432.108ZM1320.11 432.108C1320.09 433.717 1322.03 434.753 1324.87 434.753C1327.71 434.753 1329.64 433.717 1329.65 432.108C1329.64 430.487 1327.71 429.442 1324.87 429.442C1322.03 429.442 1320.09 430.487 1320.11 432.108Z" fill="#F8F9FA"/>
<path d="M671.14 821.391V828.609H674.196V829.963H671.14V839.663H669.54V821.391H671.14ZM657.831 835.09V823.175H666.341V824.508H659.43V833.736C662.732 833.726 665.06 833.583 667.777 833.08L667.982 834.475C665.121 834.987 662.732 835.09 659.266 835.09H657.831ZM691.72 824.159V825.492H689.013V828.035H691.72V829.389H689.013V832.219H687.413V821.391H689.013V824.159H691.72ZM675.109 826.784C675.098 824.241 677.129 822.488 679.887 822.498C682.666 822.488 684.665 824.241 684.686 826.784C684.665 829.317 682.666 831.06 679.887 831.07C677.129 831.06 675.098 829.317 675.109 826.784ZM676.688 826.784C676.678 828.507 678.041 829.696 679.887 829.717C681.753 829.696 683.097 828.507 683.107 826.784C683.097 825.072 681.753 823.852 679.887 823.872C678.041 823.852 676.678 825.072 676.688 826.784ZM677.119 836.197C677.129 834.034 679.446 832.783 683.168 832.773C686.89 832.783 689.177 834.034 689.177 836.197C689.177 838.32 686.89 839.581 683.168 839.581C679.446 839.581 677.129 838.32 677.119 836.197ZM678.739 836.197C678.718 837.51 680.42 838.279 683.168 838.289C685.927 838.279 687.608 837.51 687.619 836.197C687.608 834.875 685.927 834.085 683.168 834.085C680.42 834.085 678.718 834.875 678.739 836.197ZM706.742 821.411V827.42H709.491V828.774H706.742V835.069H705.143V821.411H706.742ZM692.531 824.959V823.647H697.165V821.411H698.765V823.647H703.4V824.959H692.531ZM693.576 829.368C693.566 827.297 695.33 825.964 697.965 825.964C700.57 825.964 702.333 827.297 702.354 829.368C702.333 831.419 700.57 832.742 697.965 832.732C695.33 832.742 693.566 831.419 693.576 829.368ZM695.115 829.368C695.104 830.65 696.242 831.481 697.965 831.46C699.667 831.481 700.816 830.65 700.836 829.368C700.816 828.066 699.667 827.225 697.965 827.235C696.242 827.225 695.104 828.066 695.115 829.368ZM695.34 839.233V833.983H696.919V837.879H707.583V839.233H695.34ZM731.763 835.91V837.284H715.069V835.91H731.763ZM716.546 824.569V823.236H730.163V824.569H727.272V830.947H730.122V832.26H716.587V830.947H719.438V824.569H716.546ZM721.037 830.947H725.692V824.569H721.037V830.947ZM749.492 836.013V837.366H732.799V836.013H740.305V832.568H734.891V826.948H745.801V824.077H734.85V822.744H747.38V828.261H736.49V831.234H747.811V832.568H741.884V836.013H749.492ZM762.464 821.801V832.383H760.905V827.441H758.116V826.108H760.905V821.801H762.464ZM750.61 830.824C752.979 829.83 754.374 827.471 754.363 825.308V824.221H750.959V822.888H759.142V824.221H755.922V825.308C755.922 827.287 757.255 829.45 759.572 830.414L758.731 831.645C757.019 830.927 755.819 829.563 755.184 827.994C754.548 829.768 753.287 831.296 751.472 832.096L750.61 830.824ZM753.728 834.659V833.347H766.012V839.622H764.433V834.659H753.728ZM764.474 832.547V821.391H766.012V832.547H764.474ZM783.023 831.255V832.568H770.411V822.97H782.818V824.323H772.052V827.03H782.429V828.322H772.052V831.255H783.023ZM768.258 837.243V835.91H784.951V837.243H768.258ZM802.66 829.86V831.132H785.967V829.86H802.66ZM787.976 833.798V832.588H800.568V836.464H789.617V838.207H801.163V839.376H787.997V835.357H798.969V833.798H787.976ZM788.079 823.113V821.944H800.507V825.718H789.74V827.318H800.835V828.486H788.14V824.61H798.887V823.113H788.079ZM825.178 831.07V832.383H808.547V831.07H816.052V829.266H810.761V821.924H823.107V823.236H812.381V824.939H822.615V826.169H812.381V827.974H823.21V829.266H817.652V831.07H825.178ZM810.577 836.669C810.567 834.772 812.833 833.736 816.873 833.757C820.872 833.736 823.128 834.772 823.148 836.669C823.128 838.587 820.872 839.581 816.873 839.581C812.833 839.581 810.567 838.587 810.577 836.669ZM812.197 836.669C812.176 837.776 813.858 838.351 816.873 838.33C819.857 838.351 821.518 837.776 821.528 836.669C821.518 835.582 819.857 834.977 816.873 834.967C813.858 834.977 812.176 835.582 812.197 836.669ZM835.402 824.549V825.861H826.255V824.549H830.049V821.944H831.649V824.549H835.402ZM826.912 831.234C826.912 828.815 828.563 827.102 830.829 827.092C833.126 827.102 834.766 828.815 834.787 831.234C834.766 833.685 833.126 835.408 830.829 835.418C828.563 835.408 826.912 833.685 826.912 831.234ZM828.347 831.234C828.347 832.855 829.383 834.013 830.829 834.003C832.285 834.013 833.351 832.855 833.351 831.234C833.351 829.635 832.285 828.466 830.829 828.445C829.383 828.466 828.347 829.635 828.347 831.234ZM836.345 838.72V821.842H837.863V829.081H840.283V821.391H841.821V839.622H840.283V830.414H837.863V838.72H836.345ZM616.941 850.391V868.622H615.321V850.391H616.941ZM602.094 863.885C607.026 861.547 609.548 858.05 609.907 853.693H602.934V852.38H611.548C611.527 857.62 609.087 862.265 602.975 865.197L602.094 863.885ZM624.622 851.252C627.062 851.242 628.928 852.667 629.277 854.759H633.092V850.391H634.712V860.173H633.092V856.092H629.287C628.969 858.245 627.093 859.681 624.622 859.681C621.843 859.681 619.874 857.958 619.884 855.456C619.874 852.985 621.843 851.242 624.622 851.252ZM621.423 855.456C621.423 857.117 622.745 858.317 624.622 858.327C626.457 858.317 627.78 857.117 627.78 855.456C627.78 853.775 626.457 852.606 624.622 852.626C622.745 852.606 621.423 853.775 621.423 855.456ZM622.961 868.376V861.096H624.581V863.413H633.092V861.096H634.712V868.376H622.961ZM624.581 867.064H633.092V864.705H624.581V867.064ZM643.295 851.724C646.155 851.734 648.186 853.477 648.196 856.01C648.186 858.553 646.155 860.286 643.295 860.296C640.413 860.286 638.362 858.553 638.373 856.01C638.362 853.477 640.413 851.734 643.295 851.724ZM637.429 863.27C640.793 863.28 645.438 863.249 649.467 862.654L649.59 863.844C645.417 864.623 640.936 864.644 637.655 864.644L637.429 863.27ZM639.952 856.01C639.942 857.712 641.346 858.881 643.295 858.881C645.222 858.881 646.627 857.712 646.617 856.01C646.627 854.318 645.222 853.139 643.295 853.139C641.346 853.139 639.942 854.318 639.952 856.01ZM650.677 868.663V850.391H652.277V868.663H650.677ZM660.809 866.961V852.113H666.018C669.135 852.113 670.602 853.867 670.591 856.051C670.602 857.958 669.463 858.809 668.171 859.168V859.312C669.556 859.394 671.176 860.665 671.186 863.024C671.176 865.249 669.709 866.961 666.203 866.961H660.809ZM662.655 865.32H666.182C668.51 865.32 669.412 864.295 669.402 863.003C669.412 861.496 668.192 860.214 666.285 860.214H662.655V865.32ZM662.655 858.614H665.957C667.566 858.625 668.828 857.62 668.828 856.071C668.828 854.779 667.956 853.754 666.018 853.754H662.655V858.614ZM673.391 866.961V852.113H678.436C681.912 852.113 683.501 854.185 683.501 856.83C683.501 859.465 681.912 861.568 678.456 861.568H675.237V866.961H673.391ZM675.237 859.927H678.374C680.743 859.927 681.666 858.594 681.676 856.83C681.666 855.056 680.743 853.754 678.354 853.754H675.237V859.927ZM701.436 858.86V860.132H684.743V858.86H701.436ZM686.752 862.798V861.588H699.344V865.464H688.393V867.207H699.939V868.376H686.773V864.357H697.744V862.798H686.752ZM686.855 852.113V850.944H699.283V854.718H688.516V856.318H699.611V857.486H686.916V853.61H697.662V852.113H686.855ZM713.516 853.282C713.495 855.456 715.382 857.435 718.069 858.225L717.31 859.476C715.197 858.85 713.547 857.507 712.736 855.784C711.947 857.743 710.224 859.25 707.999 859.947L707.199 858.696C709.958 857.835 711.885 855.702 711.896 853.323V852.749H707.753V851.437H717.576V852.749H713.516V853.282ZM709.968 861.937V860.645H721.596V865.013H711.588V867.187H722.273V868.458H710.009V863.823H719.996V861.937H709.968ZM719.996 859.804V850.391H721.596V854.39H724.344V855.723H721.596V859.804H719.996ZM744.955 850.391V868.663H743.335V850.391H744.955ZM730.6 858.163C730.61 854.287 732.538 851.816 735.255 851.806C737.962 851.816 739.92 854.287 739.91 858.163C739.92 862.049 737.962 864.51 735.255 864.5C732.538 864.51 730.61 862.049 730.6 858.163ZM732.158 858.163C732.158 861.127 733.43 863.075 735.255 863.065C737.09 863.075 738.352 861.127 738.352 858.163C738.352 855.2 737.09 853.252 735.255 853.241C733.43 853.252 732.158 855.2 732.158 858.163ZM756.758 853.549V854.861H747.611V853.549H751.405V850.944H753.005V853.549H756.758ZM748.268 860.234C748.268 857.815 749.918 856.102 752.184 856.092C754.481 856.102 756.122 857.815 756.143 860.234C756.122 862.685 754.481 864.408 752.184 864.418C749.918 864.408 748.268 862.685 748.268 860.234ZM749.703 860.234C749.703 861.855 750.739 863.013 752.184 863.003C753.641 863.013 754.707 861.855 754.707 860.234C754.707 858.635 753.641 857.466 752.184 857.445C750.739 857.466 749.703 858.635 749.703 860.234ZM757.701 867.72V850.842H759.219V858.081H761.639V850.391H763.177V868.622H761.639V859.414H759.219V867.72H757.701ZM779.491 850.391V857.917H782.547V859.25H779.491V868.622H777.891V850.391H779.491ZM765.279 854.656V853.323H769.975V850.616H771.575V853.323H776.128V854.656H765.279ZM766.325 860.358C766.315 857.897 768.202 856.174 770.796 856.174C773.369 856.174 775.246 857.897 775.266 860.358C775.246 862.829 773.369 864.541 770.796 864.541C768.202 864.541 766.315 862.829 766.325 860.358ZM767.863 860.358C767.853 862.019 769.094 863.188 770.796 863.167C772.477 863.188 773.708 862.019 773.728 860.358C773.708 858.707 772.477 857.517 770.796 857.527C769.094 857.517 767.853 858.707 767.863 860.358ZM797.856 855.928V857.22H785.367V851.068H786.967V855.928H797.856ZM783.091 861.014V859.701H799.784V861.014H783.091ZM785.264 868.171V862.88H786.864V866.838H797.959V868.171H785.264ZM815.166 851.867C815.145 856.574 812.715 860.111 806.839 862.08L806.183 860.788C809.311 859.753 811.3 858.307 812.407 856.523L806.368 857.035L806.081 855.702L812.982 855.374C813.248 854.687 813.412 853.959 813.474 853.2H807.004V851.867H815.166ZM809.28 868.233V862.593H810.921V866.879H821.318V868.233H809.28ZM815.125 857.568V856.215H819.185V850.411H820.805V863.946H819.185V857.568H815.125ZM838.535 850.391V859.824H836.915V855.087H832.854V853.754H836.915V850.391H838.535ZM823.4 858.573C826.148 857.661 828.035 855.374 828.055 852.708V850.985H829.634V852.708C829.614 855.097 831.501 857.292 834.167 858.163L833.305 859.414C831.285 858.696 829.675 857.261 828.865 855.415C828.086 857.497 826.435 859.086 824.282 859.865L823.4 858.573ZM826.722 862.039V860.747H838.535V865.095H828.342V867.084H839.211V868.376H826.763V863.864H836.935V862.039H826.722ZM850.953 851.744V853.057H843.836V855.354H850.44V856.666H843.836V859.066C847.712 859.076 849.886 859.004 852.45 858.573L852.614 859.886C849.958 860.317 847.723 860.409 843.693 860.399H842.216V851.744H850.953ZM843.98 865.259C843.98 863.177 846.287 861.957 850.153 861.978C853.947 861.957 856.295 863.177 856.285 865.259C856.295 867.381 853.947 868.581 850.153 868.581C846.287 868.581 843.98 867.381 843.98 865.259ZM845.58 865.259C845.58 866.551 847.282 867.31 850.153 867.31C852.942 867.31 854.695 866.551 854.706 865.259C854.695 864.018 852.942 863.249 850.153 863.249C847.282 863.249 845.58 864.018 845.58 865.259ZM854.603 861.711V850.411H856.203V861.711H854.603ZM874.209 852.38V853.713H872.179V862.49C873.163 862.429 874.137 862.337 875.071 862.224L875.153 863.413C871.297 864.028 866.939 864.09 863.709 864.11L863.504 862.736C864.273 862.736 865.094 862.726 865.965 862.716V853.713H863.955V852.38H874.209ZM867.524 862.695C868.539 862.675 869.595 862.634 870.641 862.583V853.713H867.524V862.695ZM876.24 868.622V850.391H877.839V857.712H880.895V859.066H877.839V868.622H876.24ZM896.553 850.411V868.643H894.912V864.11H890.708V862.88H894.912V850.411H896.553ZM881.377 860.009C884.853 859.999 889.478 859.988 893.497 859.414L893.6 860.624C891.795 860.932 889.919 861.106 888.104 861.219V868.068H886.484V861.301C884.74 861.362 883.069 861.383 881.603 861.383L881.377 860.009ZM882.772 854.902C882.761 852.759 884.648 851.314 887.386 851.314C890.093 851.314 891.99 852.759 891.98 854.902C891.99 857.066 890.093 858.461 887.386 858.471C884.648 858.461 882.761 857.066 882.772 854.902ZM884.289 854.902C884.279 856.287 885.55 857.23 887.386 857.22C889.18 857.23 890.452 856.287 890.462 854.902C890.452 853.528 889.18 852.575 887.386 852.565C885.55 852.575 884.279 853.528 884.289 854.902Z" fill="#F8F9FA"/>
<circle opacity="0.2" cx="750" cy="1062.96" r="318.5" stroke="url(#paint3_linear_366_1174)"/>
</g>
<defs>
<filter id="filter0_b_366_1174" x="457.5" y="128.461" width="586" height="586" filterUnits="userSpaceOnUse" color-interpolation-filters="sRGB">
<feFlood flood-opacity="0" result="BackgroundImageFix"/>
<feGaussianBlur in="BackgroundImageFix" stdDeviation="15"/>
<feComposite in2="SourceAlpha" operator="in" result="effect1_backgroundBlur_366_1174"/>
<feBlend mode="normal" in="SourceGraphic" in2="effect1_backgroundBlur_366_1174" result="shape"/>
</filter>
<linearGradient id="paint0_linear_366_1174" x1="516" y1="246.961" x2="862" y2="619.961" gradientUnits="userSpaceOnUse">
<stop stop-color="#F2F3F5"/>
<stop offset="1" stop-color="#F2F3F5" stop-opacity="0"/>
</linearGradient>
<linearGradient id="paint1_linear_366_1174" x1="428" y1="421.961" x2="109" y2="421.961" gradientUnits="userSpaceOnUse">
<stop stop-color="#F8F9FA"/>
<stop offset="1" stop-color="#F8F9FA" stop-opacity="0"/>
</linearGradient>
<linearGradient id="paint2_linear_366_1174" x1="1072" y1="421.961" x2="1391" y2="421.961" gradientUnits="userSpaceOnUse">
<stop stop-color="#F8F9FA"/>
<stop offset="1" stop-color="#F8F9FA" stop-opacity="0"/>
</linearGradient>
<linearGradient id="paint3_linear_366_1174" x1="750" y1="743.961" x2="750" y2="1062.96" gradientUnits="userSpaceOnUse">
<stop stop-color="#F8F9FA"/>
<stop offset="1" stop-color="#F8F9FA" stop-opacity="0"/>
</linearGradient>
</defs>
</svg>
