<svg width="46" height="46" viewBox="0 0 46 46" fill="none" xmlns="http://www.w3.org/2000/svg">
<path fill-rule="evenodd" clip-rule="evenodd" d="M33.6956 25.8006L39.8005 19.6956C43.5843 15.9118 43.6304 9.82324 39.9035 6.09635C36.1766 2.36946 30.088 2.41557 26.3042 6.19934L20.1993 12.3043C19.4217 13.0819 18.802 13.9568 18.3404 14.8885C21.6986 14.641 25.1211 15.7867 27.6672 18.3327C32.3535 23.019 32.2955 30.6749 27.5377 35.4328L21.4327 41.5377C16.6749 46.2955 9.01893 46.3535 4.33264 41.6672C-0.35365 36.9809 -0.295674 29.325 4.46214 24.5672L10.5671 18.4622C11.1882 17.8411 11.8587 17.3001 12.5656 16.8392C12.4394 17.8826 12.4245 18.939 12.5208 19.9892C12.4478 20.0579 12.3756 20.128 12.3042 20.1993L6.19929 26.3043C2.41551 30.0881 2.3694 36.1767 6.0963 39.9036C9.82319 43.6305 15.9118 43.5843 19.6956 39.8006L25.8005 33.6956C26.5781 32.918 27.1978 32.0431 27.6594 31.1114C24.3013 31.3589 20.8787 30.2132 18.3326 27.6672C15.2789 24.6135 14.2397 20.2988 15.2027 16.3467C15.2594 16.0532 15.3269 15.7616 15.4052 15.4726C15.4221 15.467 15.439 15.4614 15.4559 15.4559C16.0369 13.6718 17.0394 11.9899 18.4621 10.5672L24.5671 4.46219C29.3249 -0.295619 36.9809 -0.353597 41.6672 4.33269C46.3535 9.01899 46.2955 16.6749 41.5377 21.4328L35.4327 27.5377C34.5267 28.4437 33.5156 29.1793 32.4399 29.7442C32.6084 28.7441 32.6729 27.731 32.6332 26.7225C33.0034 26.4448 33.3586 26.1375 33.6956 25.8006ZM17.4838 17.4839C16.9491 20.4622 17.8172 23.6245 20.0963 25.9036C22.3754 28.1827 25.5377 29.0508 28.516 28.516C29.0507 25.5377 28.1826 22.3754 25.9035 20.0964C23.6244 17.8173 20.4621 16.9491 17.4838 17.4839Z" fill="#998EE8"/>
</svg>
