<svg width="56" height="56" viewBox="0 0 56 56" fill="none" xmlns="http://www.w3.org/2000/svg">
<path fill-rule="evenodd" clip-rule="evenodd" d="M38.6957 30.8008L44.8006 24.6959C48.5844 20.9121 48.6305 14.8235 44.9036 11.0966C41.1767 7.3697 35.0881 7.41581 31.3044 11.1996L25.1994 17.3045C24.4218 18.0821 23.8021 18.957 23.3405 19.8888C26.6987 19.6412 30.1213 20.7869 32.6673 23.3329C37.3536 28.0192 37.2956 35.6752 32.5378 40.433L26.4328 46.538C21.675 51.2958 14.0191 51.3538 9.33276 46.6675C4.64647 41.9812 4.70445 34.3252 9.46226 29.5674L15.5672 23.4624C16.1883 22.8413 16.8589 22.3003 17.5657 21.8395C17.4395 22.8828 17.4247 23.9392 17.5209 24.9895C17.4479 25.0582 17.3757 25.1282 17.3044 25.1996L11.1994 31.3045C7.41563 35.0883 7.36953 41.1769 11.0964 44.9038C14.8233 48.6307 20.9119 48.5846 24.6957 44.8008L30.8006 38.6959C31.5782 37.9183 32.1979 37.0434 32.6595 36.1116C29.3014 36.3592 25.8788 35.2135 23.3328 32.6675C20.279 29.6137 19.2398 25.299 20.2028 21.3469C20.2595 21.0535 20.327 20.7619 20.4053 20.4728C20.4222 20.4672 20.4391 20.4617 20.456 20.4562C21.037 18.672 22.0395 16.9901 23.4623 15.5674L29.5672 9.46244C34.325 4.70462 41.981 4.64665 46.6673 9.33294C51.3536 14.0192 51.2956 21.6752 46.5378 26.433L40.4328 32.538C39.5268 33.444 38.5157 34.1796 37.44 34.7444C37.6085 33.7443 37.673 32.7313 37.6333 31.7227C38.0035 31.4451 38.3587 31.1378 38.6957 30.8008ZM22.484 22.4841C21.9492 25.4624 22.8173 28.6247 25.0964 30.9038C27.3755 33.1829 30.5378 34.051 33.5161 33.5163C34.0508 30.538 33.1827 27.3757 30.9036 25.0966C28.6245 22.8175 25.4623 21.9494 22.484 22.4841Z" fill="#363A3F"/>
</svg>
