<svg width="56" height="56" viewBox="0 0 56 56" fill="none" xmlns="http://www.w3.org/2000/svg">
<path fill-rule="evenodd" clip-rule="evenodd" d="M45.125 27.625C45.125 27.0727 45.5168 26.625 46 26.625H51.25C51.7332 26.625 52.125 27.0727 52.125 27.625C52.125 28.1773 51.7332 28.625 51.25 28.625H46C45.5168 28.625 45.125 28.1773 45.125 27.625Z" fill="#363A3F"/>
<path fill-rule="evenodd" clip-rule="evenodd" d="M10.875 27.625C10.875 28.1773 10.4832 28.625 10 28.625L4.75 28.625C4.26675 28.625 3.875 28.1773 3.875 27.625C3.875 27.0727 4.26675 26.625 4.75 26.625L10 26.625C10.4832 26.625 10.875 27.0727 10.875 27.625Z" fill="#363A3F"/>
<path fill-rule="evenodd" clip-rule="evenodd" d="M41.1678 15.4283C40.7773 15.0378 40.7501 14.4318 41.1071 14.0747L44.764 10.4179C45.121 10.0609 45.727 10.088 46.1175 10.4786C46.5081 10.8691 46.5352 11.4751 46.1782 11.8321L42.5214 15.489C42.1643 15.846 41.5583 15.8188 41.1678 15.4283Z" fill="#363A3F"/>
<path fill-rule="evenodd" clip-rule="evenodd" d="M15.0821 15.4284C14.6916 15.8189 14.0856 15.8461 13.7286 15.4891L10.0717 11.8322C9.71468 11.4752 9.74184 10.8692 10.1324 10.4786C10.5229 10.0881 11.1289 10.061 11.4859 10.418L15.1428 14.0748C15.4998 14.4319 15.4726 15.0379 15.0821 15.4284Z" fill="#363A3F"/>
<path fill-rule="evenodd" clip-rule="evenodd" d="M28.125 10.125C27.5727 10.125 27.125 9.73325 27.125 9.25L27.125 4C27.125 3.51675 27.5727 3.125 28.125 3.125C28.6773 3.125 29.125 3.51675 29.125 4L29.125 9.25C29.125 9.73325 28.6773 10.125 28.125 10.125Z" fill="#363A3F"/>
<path fill-rule="evenodd" clip-rule="evenodd" d="M41.1679 39.4178C41.5584 39.0273 42.1644 39.0001 42.5214 39.3571L46.1783 43.014C46.5353 43.371 46.5082 43.977 46.1176 44.3675C45.7271 44.7581 45.1211 44.7852 44.7641 44.4282L41.1072 40.7714C40.7502 40.4143 40.7774 39.8083 41.1679 39.4178Z" fill="#363A3F"/>
<path fill-rule="evenodd" clip-rule="evenodd" d="M14.0822 39.4179C14.4727 39.8084 14.4999 40.4144 14.1429 40.7714L10.486 44.4283C10.129 44.7853 9.52298 44.7582 9.13245 44.3676C8.74193 43.9771 8.71477 43.3711 9.07179 43.0141L12.7286 39.3572C13.0857 39.0002 13.6917 39.0274 14.0822 39.4179Z" fill="#363A3F"/>
<path d="M34 41.946C34 39.7153 35.3233 37.7479 36.938 36.2088C39.4396 33.8243 41 30.4497 41 26.7083C41 19.4826 35.1797 13.625 28 13.625C20.8203 13.625 15 19.4826 15 26.7083C15 30.4497 16.5604 33.8243 19.062 36.2088C20.6767 37.7479 22 39.7153 22 41.946V47.2185C22 48.9591 23.0077 50.5423 24.5847 51.2792V51.2792C26.7492 52.2906 29.2508 52.2906 31.4153 51.2792V51.2792C32.9923 50.5423 34 48.9591 34 47.2185V41.946Z" stroke="#363A3F" stroke-width="2.5"/>
<path d="M19.75 42.8232H35.75" stroke="#363A3F" stroke-width="2.5" stroke-linecap="round"/>
<path d="M19.75 47.6099H35.75" stroke="#363A3F" stroke-width="2.5" stroke-linecap="round"/>
</svg>
