<svg width="50" height="51" viewBox="0 0 50 51" fill="none" xmlns="http://www.w3.org/2000/svg">
<path fill-rule="evenodd" clip-rule="evenodd" d="M42.125 24.625C42.125 24.0727 42.5168 23.625 43 23.625H48.25C48.7332 23.625 49.125 24.0727 49.125 24.625C49.125 25.1773 48.7332 25.625 48.25 25.625H43C42.5168 25.625 42.125 25.1773 42.125 24.625Z" fill="#998EE8"/>
<path fill-rule="evenodd" clip-rule="evenodd" d="M7.875 24.625C7.875 25.1773 7.48325 25.625 7 25.625L1.75 25.625C1.26675 25.625 0.875 25.1773 0.875 24.625C0.875 24.0727 1.26675 23.625 1.75 23.625L7 23.625C7.48325 23.625 7.875 24.0727 7.875 24.625Z" fill="#998EE8"/>
<path fill-rule="evenodd" clip-rule="evenodd" d="M38.1678 12.4283C37.7773 12.0378 37.7501 11.4318 38.1071 11.0747L41.764 7.41789C42.121 7.06087 42.727 7.08803 43.1175 7.47855C43.5081 7.86907 43.5352 8.47508 43.1782 8.8321L39.5214 12.489C39.1643 12.846 38.5583 12.8188 38.1678 12.4283Z" fill="#998EE8"/>
<path fill-rule="evenodd" clip-rule="evenodd" d="M12.0821 12.4284C11.6916 12.8189 11.0856 12.8461 10.7286 12.4891L7.0717 8.8322C6.71468 8.47517 6.74183 7.86917 7.13236 7.47864C7.52288 7.08812 8.12889 7.06096 8.48591 7.41798L12.1428 11.0748C12.4998 11.4319 12.4726 12.0379 12.0821 12.4284Z" fill="#998EE8"/>
<path fill-rule="evenodd" clip-rule="evenodd" d="M25.125 7.125C24.5727 7.125 24.125 6.73325 24.125 6.25L24.125 1C24.125 0.516751 24.5727 0.125 25.125 0.125C25.6773 0.125 26.125 0.516751 26.125 1L26.125 6.25C26.125 6.73325 25.6773 7.125 25.125 7.125Z" fill="#998EE8"/>
<path fill-rule="evenodd" clip-rule="evenodd" d="M38.1679 36.4178C38.5584 36.0273 39.1644 36.0001 39.5214 36.3571L43.1783 40.014C43.5353 40.371 43.5082 40.977 43.1176 41.3675C42.7271 41.7581 42.1211 41.7852 41.7641 41.4282L38.1072 37.7714C37.7502 37.4143 37.7774 36.8083 38.1679 36.4178Z" fill="#998EE8"/>
<path fill-rule="evenodd" clip-rule="evenodd" d="M11.0822 36.4179C11.4727 36.8084 11.4999 37.4144 11.1429 37.7714L7.48601 41.4283C7.12898 41.7853 6.52298 41.7582 6.13245 41.3676C5.74193 40.9771 5.71477 40.3711 6.07179 40.0141L9.72865 36.3572C10.0857 36.0002 10.6917 36.0274 11.0822 36.4179Z" fill="#998EE8"/>
<path d="M31 38.946C31 36.7153 32.3233 34.7479 33.938 33.2088C36.4396 30.8243 38 27.4497 38 23.7083C38 16.4826 32.1797 10.625 25 10.625C17.8203 10.625 12 16.4826 12 23.7083C12 27.4497 13.5604 30.8243 16.062 33.2088C17.6767 34.7479 19 36.7153 19 38.946V44.2185C19 45.9591 20.0077 47.5423 21.5847 48.2792V48.2792C23.7492 49.2906 26.2508 49.2906 28.4153 48.2792V48.2792C29.9923 47.5423 31 45.9591 31 44.2185V38.946Z" stroke="#998EE8" stroke-width="2.5"/>
<path d="M16.75 39.8232H32.75" stroke="#998EE8" stroke-width="2.5" stroke-linecap="round"/>
<path d="M16.75 44.6099H32.75" stroke="#998EE8" stroke-width="2.5" stroke-linecap="round"/>
</svg>
