<svg width="56" height="56" viewBox="0 0 56 56" fill="none" xmlns="http://www.w3.org/2000/svg">
<path fill-rule="evenodd" clip-rule="evenodd" d="M27.9999 5C19.7668 5 13.0925 11.6965 13.0925 19.9571V36.0429C13.0925 44.3035 19.7668 51 27.9999 51C36.2331 51 42.9073 44.3035 42.9073 36.0429V25.4443H40.6572V25.4444H15.3427V19.9571C15.3427 12.9434 21.0095 7.25767 27.9999 7.25767C34.9903 7.25767 40.6572 12.9434 40.6572 19.9571V22.8888H42.9073V19.9571C42.9073 11.6965 36.2331 5 27.9999 5ZM15.3427 36.0429V27.9999H40.6572V36.0429C40.6572 43.0566 34.9903 48.7423 27.9999 48.7423C21.0095 48.7423 15.3427 43.0566 15.3427 36.0429ZM26.722 30.5556H29.2776V37.6574C30.2849 38.1359 30.9813 39.1626 30.9813 40.352C30.9813 41.9986 29.6465 43.3334 27.9999 43.3334C26.3532 43.3334 25.0184 41.9986 25.0184 40.352C25.0184 39.1626 25.7148 38.1359 26.722 37.6574V30.5556Z" fill="#363A3F"/>
</svg>
