<svg width="56" height="56" viewBox="0 0 56 56" fill="none" xmlns="http://www.w3.org/2000/svg">
<path fill-rule="evenodd" clip-rule="evenodd" d="M28.0001 5C19.7669 5 13.0927 11.6965 13.0927 19.9571V36.0429C13.0927 44.3035 19.7669 51 28.0001 51C36.2332 51 42.9075 44.3035 42.9075 36.0429V25.4443H40.6573V25.4444H15.3428V19.9571C15.3428 12.9434 21.0097 7.25767 28.0001 7.25767C34.9905 7.25767 40.6573 12.9434 40.6573 19.9571V22.8888H42.9075V19.9571C42.9075 11.6965 36.2332 5 28.0001 5ZM15.3428 36.0429V27.9999H40.6573V36.0429C40.6573 43.0566 34.9905 48.7423 28.0001 48.7423C21.0097 48.7423 15.3428 43.0566 15.3428 36.0429ZM26.7222 30.5556H29.2777V37.6574C30.285 38.1359 30.9815 39.1626 30.9815 40.352C30.9815 41.9986 29.6466 43.3334 28 43.3334C26.3534 43.3334 25.0185 41.9986 25.0185 40.352C25.0185 39.1626 25.7149 38.1359 26.7222 37.6574V30.5556Z" fill="#998EE8"/>
</svg>
