<svg xmlns="http://www.w3.org/2000/svg" width="24" height="24" viewBox="0 0 24 24"><g fill="none"><path data-name="사각형 501" d="M0 0h24v24H0z"/><g data-name="icon-floating"><path d="M8.248 17.999H3a2 2 0 01-2-2v-11a2 2 0 012-2h18a2 2 0 012 2v11a2 2 0 01-2 2h-6v6z"/><path d="M13.498 20.66V16.5h7.501a.502.502 0 00.502-.502v-11a.5.5 0 00-.502-.498h-18a.499.499 0 00-.498.498v11a.5.5 0 00.498.501h5.82l.426.38 4.253 3.78m1.5 3.341l-6.75-6H2.999a2 2 0 01-1.998-2.002v-11A2 2 0 012.999 3h18a2 2 0 012.002 1.998v11a2.001 2.001 0 01-2.002 2.001h-6.001V24z" fill="#fff"/></g></g></svg>