<svg width="48" height="48" viewBox="0 0 48 48" fill="none" xmlns="http://www.w3.org/2000/svg">
<path d="M12.6842 42V34.3628C10.8842 32.7207 9.48685 30.8387 8.49211 28.7168C7.49737 26.5949 7 24.3867 7 22.0921C7 17.6221 8.5658 13.8226 11.6974 10.6936C14.829 7.56452 18.6316 6 23.1053 6C26.7854 6 30.0763 7.09981 32.9779 9.29941C35.8795 11.499 37.7639 14.3527 38.6311 17.8603L40.9154 26.905C41.0363 27.3723 40.951 27.7945 40.6595 28.1714C40.368 28.5483 39.9732 28.7368 39.4753 28.7368H35.421V35.2469C35.421 36.0557 35.1293 36.7518 34.5458 37.3352C33.9623 37.9188 33.2662 38.2105 32.4575 38.2105H27.8421V42H25.4616V35.83H32.4575C32.6275 35.83 32.7672 35.7753 32.8765 35.666C32.9859 35.5567 33.0405 35.417 33.0405 35.2469V26.3563H38.2972L36.3369 18.4312C35.5976 15.4514 33.9907 13.0314 31.5162 11.171C29.0417 9.31068 26.2381 8.38051 23.1053 8.38051C19.2996 8.38051 16.0607 9.70261 13.3886 12.3468C10.7166 14.991 9.38051 18.2135 9.38051 22.0142C9.38051 23.9826 9.78251 25.8478 10.5865 27.6097C11.3905 29.3715 12.5262 30.9349 13.9935 32.2999L15.0647 33.3061V42H12.6842ZM21.8409 28.9628H24.3307L24.4716 27.0449C24.9056 26.9632 25.3161 26.8121 25.7031 26.5918C26.0901 26.3714 26.4221 26.103 26.6992 25.7866L28.4603 26.5141L29.6664 24.4652L28.2575 23.3733C28.4324 22.8985 28.5198 22.4132 28.5198 21.9174C28.5198 21.4216 28.4324 20.9376 28.2575 20.4655L29.6664 19.3737L28.4603 17.3247L26.6992 18.0523C26.4145 17.7446 26.0773 17.4836 25.6876 17.2695C25.298 17.0553 24.8927 16.9008 24.4716 16.806L24.3307 14.8761H21.8409L21.7 16.806C21.2709 16.9008 20.8615 17.0553 20.4718 17.2695C20.0822 17.4836 19.745 17.7446 19.4603 18.0523L17.6992 17.3247L16.5053 19.3737L17.9142 20.4655C17.7312 20.9403 17.6397 21.4256 17.6397 21.9215C17.6397 22.4173 17.7312 22.9012 17.9142 23.3733L16.5053 24.4652L17.6992 26.5141L19.4603 25.7866C19.7374 26.103 20.0694 26.3714 20.4564 26.5918C20.8434 26.8121 21.2579 26.9632 21.7 27.0449L21.8409 28.9628ZM23.0885 25.3446C22.1321 25.3446 21.3227 25.0124 20.6603 24.3481C19.9979 23.6838 19.6668 22.8772 19.6668 21.9281C19.6668 20.9717 19.9971 20.1623 20.6576 19.5C21.3182 18.8376 22.1247 18.5064 23.0771 18.5064C24.0295 18.5064 24.8389 18.8367 25.5053 19.4973C26.1717 20.1579 26.5049 20.9644 26.5049 21.9168C26.5049 22.8692 26.1727 23.6786 25.5085 24.3449C24.8441 25.0114 24.0375 25.3446 23.0885 25.3446Z" fill="#B0B5BC"/>
</svg>
