<svg width="31" height="32" viewBox="0 0 31 32" fill="none" xmlns="http://www.w3.org/2000/svg">
<path d="M5.8335 31.8333V25.1154C4.25016 23.6709 3.021 22.0155 2.146 20.149C1.271 18.2825 0.833496 16.3401 0.833496 14.3217C0.833496 10.3898 2.21082 7.04763 4.96545 4.29527C7.72007 1.54288 11.065 0.166687 15.0001 0.166687C18.2373 0.166687 21.132 1.13411 23.6844 3.06894C26.2367 5.00377 27.8943 7.51391 28.6571 10.5994L30.6664 18.5553C30.7727 18.9664 30.6977 19.3377 30.4413 19.6693C30.1849 20.0008 29.8377 20.1666 29.3996 20.1666H25.8334V25.8931C25.8334 26.6045 25.5768 27.2168 25.0635 27.73C24.5503 28.2433 23.9379 28.4999 23.2266 28.4999H19.1668V31.8333H17.0728V26.406H23.2266C23.3762 26.406 23.499 26.3579 23.5952 26.2617C23.6914 26.1656 23.7395 26.0427 23.7395 25.8931V18.0726H28.3634L26.639 11.1015C25.9887 8.4804 24.5753 6.35166 22.3986 4.71527C20.222 3.07885 17.7558 2.26065 15.0001 2.26065C11.6525 2.26065 8.80354 3.42361 6.45312 5.74952C4.10268 8.07544 2.92745 10.91 2.92745 14.2532C2.92745 15.9847 3.28107 17.6253 3.98829 19.1751C4.69551 20.7249 5.69447 22.1001 6.98516 23.3008L7.92746 24.1859V31.8333H5.8335ZM13.888 20.3654H16.0781L16.202 18.6784C16.5838 18.6065 16.9449 18.4736 17.2852 18.2798C17.6256 18.0859 17.9177 17.8499 18.1615 17.5715L19.7106 18.2115L20.7715 16.4092L19.5322 15.4487C19.686 15.0311 19.7629 14.6042 19.7629 14.1681C19.7629 13.7319 19.686 13.3062 19.5322 12.891L20.7715 11.9305L19.7106 10.1282L18.1615 10.7682C17.911 10.4975 17.6144 10.268 17.2717 10.0796C16.9289 9.89119 16.5724 9.75531 16.202 9.67198L16.0781 7.97436H13.888L13.764 9.67198C13.3865 9.75531 13.0264 9.89119 12.6837 10.0796C12.341 10.268 12.0444 10.4975 11.7939 10.7682L10.2448 10.1282L9.19462 11.9305L10.4339 12.891C10.2729 13.3086 10.1925 13.7355 10.1925 14.1716C10.1925 14.6078 10.2729 15.0335 10.4339 15.4487L9.19462 16.4092L10.2448 18.2115L11.7939 17.5715C12.0377 17.8499 12.3297 18.0859 12.6701 18.2798C13.0105 18.4736 13.3752 18.6065 13.764 18.6784L13.888 20.3654ZM14.9854 17.1827C14.1441 17.1827 13.4321 16.8905 12.8495 16.3062C12.2668 15.7219 11.9755 15.0123 11.9755 14.1775C11.9755 13.3362 12.2661 12.6243 12.8471 12.0416C13.4282 11.459 14.1376 11.1677 14.9754 11.1677C15.8131 11.1677 16.5251 11.4582 17.1112 12.0393C17.6974 12.6204 17.9905 13.3298 17.9905 14.1675C17.9905 15.0053 17.6984 15.7172 17.114 16.3034C16.5297 16.8896 15.8201 17.1827 14.9854 17.1827Z" fill="white"/>
</svg>
