<svg xmlns="http://www.w3.org/2000/svg" viewBox="0 0 445.92 312.12"><defs><style>.cls-1{fill:#119cd8;}.cls-2,.cls-3{fill:#fff;}.cls-3{fill-rule:evenodd;}</style></defs><g id="&#xB808;&#xC774;&#xC5B4;_2" data-name="&#xB808;&#xC774;&#xC5B4; 2"><g id="Layer_1" data-name="Layer 1"><path class="cls-1" d="M185.56,34A78.15,78.15,0,0,1,242.11,9.76c29.43,0,55.11,16.42,68.79,40.78a95.08,95.08,0,0,1,38.88-8.26c53.09,0,96.14,43.42,96.14,97s-43.05,97-96.14,97a96.17,96.17,0,0,1-18.94-1.88,70.27,70.27,0,0,1-92.08,28.91,80.17,80.17,0,0,1-149-3.62,74.15,74.15,0,0,1-15.3,1.59C33.32,261.23,0,227.56,0,186a75.29,75.29,0,0,1,37.21-65.14A86.6,86.6,0,0,1,185.56,34"></path><path class="cls-2" d="M64.58,161.85c-.28.74.1.89.19,1a26.18,26.18,0,0,0,2.55,1.54,27.05,27.05,0,0,0,13.33,3.12c9.15,0,14.83-4.87,14.83-12.7v-.15c0-7.24-6.41-9.87-12.42-11.77l-.79-.25c-4.53-1.48-8.45-2.75-8.45-5.74v-.15c0-2.55,2.29-4.44,5.84-4.44a26.41,26.41,0,0,1,11.62,3s.89.57,1.21-.29c.18-.46,1.7-4.56,1.86-5a.84.84,0,0,0-.45-1,25.85,25.85,0,0,0-13.1-3.52h-.91c-8.38,0-14.23,5.06-14.23,12.31v.15c0,7.64,6.45,10.12,12.5,11.84l1,.31c4.4,1.35,8.19,2.51,8.19,5.6v.16c0,2.83-2.47,4.94-6.44,4.94a21.57,21.57,0,0,1-11.78-3.38c-.64-.38-1-.65-1.51-.95a.72.72,0,0,0-1.2.41Z"></path><path class="cls-2" d="M198.49,161.85c-.28.74.1.89.19,1a26.69,26.69,0,0,0,15.88,4.66c9.15,0,14.83-4.87,14.83-12.7v-.15c0-7.24-6.41-9.87-12.42-11.77l-.79-.25c-4.54-1.48-8.45-2.75-8.45-5.74v-.15c0-2.55,2.29-4.44,5.83-4.44a26.37,26.37,0,0,1,11.62,3s.9.57,1.22-.29l1.86-5a.84.84,0,0,0-.45-1,25.83,25.83,0,0,0-13.11-3.52h-.91c-8.37,0-14.22,5.06-14.22,12.31v.15c0,7.64,6.46,10.12,12.49,11.84l1,.31c4.41,1.35,8.21,2.51,8.21,5.6v.16c0,2.83-2.47,4.94-6.45,4.94A21.57,21.57,0,0,1,203,157.39c-.65-.38-1-.64-1.51-.95a.77.77,0,0,0-1.2.41Z"></path><path class="cls-2" d="M297.54,138.31a18.54,18.54,0,0,0-3.47-6.64,16.78,16.78,0,0,0-5.87-4.45,21.13,21.13,0,0,0-16.37,0,16.83,16.83,0,0,0-5.86,4.46,18.34,18.34,0,0,0-3.47,6.63,30.35,30.35,0,0,0,0,16.41,18.42,18.42,0,0,0,3.47,6.63,16.42,16.42,0,0,0,5.87,4.42,21.71,21.71,0,0,0,16.36,0,16.33,16.33,0,0,0,5.87-4.42,18.49,18.49,0,0,0,3.47-6.63,30.35,30.35,0,0,0,0-16.41m-7.63,8.2c0,4.43-.83,7.92-2.45,10.38s-4,3.63-7.44,3.63-5.81-1.19-7.4-3.63-2.41-5.95-2.41-10.38.81-7.9,2.41-10.34,4-3.58,7.4-3.58,5.82,1.17,7.44,3.58,2.45,5.93,2.45,10.34"></path><path class="cls-3" d="M360.24,159.34a.72.72,0,0,0-1-.46,17.92,17.92,0,0,1-3.56,1,27,27,0,0,1-4.18.3c-3.69,0-6.63-1.1-8.73-3.27s-3.29-5.69-3.28-10.44c0-4.32,1.05-7.57,2.93-10s4.7-3.73,8.47-3.73a25.54,25.54,0,0,1,8.07,1.15s.6.26.88-.52c.68-1.87,1.17-3.18,1.89-5.22a.69.69,0,0,0-.48-.9,29.83,29.83,0,0,0-5.09-1.29,38.8,38.8,0,0,0-5.73-.38,20.8,20.8,0,0,0-8.51,1.64,17.52,17.52,0,0,0-6.15,4.45,18.73,18.73,0,0,0-3.71,6.63,26.27,26.27,0,0,0-1.25,8.22c0,6.34,1.71,11.45,5.08,15.2s8.46,5.67,15.07,5.67a31,31,0,0,0,10.82-1.93.69.69,0,0,0,.31-.91Z"></path><path class="cls-3" d="M399.3,136.87a16,16,0,0,0-3.3-6.05,15,15,0,0,0-4.91-3.74,18.87,18.87,0,0,0-7.4-1.5,20.18,20.18,0,0,0-8.54,1.66,17.07,17.07,0,0,0-5.95,4.54,18.91,18.91,0,0,0-3.5,6.71,29.1,29.1,0,0,0-1.13,8.24,27.6,27.6,0,0,0,1.17,8.25A16.56,16.56,0,0,0,376,165.86a25.83,25.83,0,0,0,9.38,1.52c7.47,0,11.4-1.69,13-2.58.29-.17.55-.44.22-1.24l-1.7-4.73a.74.74,0,0,0-1-.45,24.88,24.88,0,0,1-10.61,1.91c-4,0-7-1.19-8.84-3s-2.85-4.67-3-8.6l25.84,0a.76.76,0,0,0,.76-.67,27.89,27.89,0,0,0-.78-11.13m-25.7,5.4a15,15,0,0,1,2.09-6.09,8.23,8.23,0,0,1,7.39-3.76,8,8,0,0,1,7.24,3.76,12.8,12.8,0,0,1,1.72,6.1Z"></path><path class="cls-3" d="M192.31,136.87a16.11,16.11,0,0,0-3.3-6.05,15.08,15.08,0,0,0-4.91-3.74,18.94,18.94,0,0,0-7.4-1.5,20.18,20.18,0,0,0-8.54,1.66,16.89,16.89,0,0,0-5.95,4.54,18.6,18.6,0,0,0-3.5,6.71,29.1,29.1,0,0,0-1.13,8.24,27.6,27.6,0,0,0,1.17,8.25A16.51,16.51,0,0,0,169,165.86a25.85,25.85,0,0,0,9.39,1.52c7.46,0,11.39-1.69,13-2.58.29-.17.56-.44.23-1.24l-1.7-4.73a.74.74,0,0,0-1-.45,25,25,0,0,1-10.61,1.91c-4,0-7-1.19-8.84-3s-2.85-4.67-3-8.6l25.84,0a.75.75,0,0,0,.75-.67,27.57,27.57,0,0,0-.77-11.13m-25.7,5.4a15,15,0,0,1,2.08-6.09,8.25,8.25,0,0,1,7.39-3.76,8,8,0,0,1,7.25,3.76,12.8,12.8,0,0,1,1.71,6.1Z"></path><path class="cls-2" d="M121,141c-1-.08-2.4-.12-4-.12a24.18,24.18,0,0,0-6.37.82,16.67,16.67,0,0,0-5.39,2.49,12.61,12.61,0,0,0-3.75,4.27,12.39,12.39,0,0,0-1.38,5.95,13.51,13.51,0,0,0,1.18,5.91,10.67,10.67,0,0,0,3.37,4,14.26,14.26,0,0,0,5.26,2.28,31.3,31.3,0,0,0,6.85.7,47.43,47.43,0,0,0,7.85-.65c2.54-.44,5.65-1.07,6.51-1.27s1.81-.46,1.81-.46a.81.81,0,0,0,.59-.84V140.52c0-5.19-1.39-9-4.1-11.41s-6.72-3.57-11.88-3.57a43.24,43.24,0,0,0-6.93.63s-5.64,1.1-8,2.92a.81.81,0,0,0-.24,1l1.83,4.91a.65.65,0,0,0,.85.42,4,4,0,0,0,.43-.21c5-2.7,11.26-2.63,11.26-2.63a10.43,10.43,0,0,1,6.39,1.68c1.41,1.08,2.12,2.71,2.12,6.16v1.09c-2.21-.32-4.26-.5-4.26-.5M110.74,159.2a5,5,0,0,1-1.49-1.54,6.12,6.12,0,0,1-.78-3.36,5.66,5.66,0,0,1,2.31-5s2.23-1.94,7.5-1.87a52.82,52.82,0,0,1,7,.6v11.75a53,53,0,0,1-7,.92c-5.26.32-7.6-1.51-7.58-1.5"></path><path class="cls-3" d="M329.49,127.72a.7.7,0,0,0-.39-.93,22.86,22.86,0,0,0-4.33-.74,12.82,12.82,0,0,0-6.67,1.07,11.58,11.58,0,0,0-4.36,3.23v-3.16a.75.75,0,0,0-.74-.78h-6.62a.74.74,0,0,0-.74.78v38.56a.77.77,0,0,0,.78.78h6.79a.78.78,0,0,0,.78-.78V146.49a22.63,22.63,0,0,1,.86-6.79,9.75,9.75,0,0,1,2.26-3.8,7.91,7.91,0,0,1,3.2-1.92,12.78,12.78,0,0,1,3.46-.49,14,14,0,0,1,2.84.36c.5.05.78-.26.95-.71.44-1.18,1.7-4.72,1.94-5.42"></path><path class="cls-3" d="M265.75,109.85a18.56,18.56,0,0,0-2.56-.6,19,19,0,0,0-3.51-.28c-4.67,0-8.35,1.33-10.94,3.93s-4.32,6.54-5.2,11.72l-.31,1.75h-5.87a.88.88,0,0,0-.87.76l-1,5.37c-.07.51.15.83.84.83h5.71l-5.8,32.35a40.87,40.87,0,0,1-1.54,6.37,13.11,13.11,0,0,1-1.8,3.68,4.86,4.86,0,0,1-2.37,1.83,9.88,9.88,0,0,1-3,.43,12,12,0,0,1-2.07-.23,6.23,6.23,0,0,1-1.4-.45.71.71,0,0,0-.93.42c-.21.55-1.74,4.73-1.92,5.25a.77.77,0,0,0,.4,1,18.67,18.67,0,0,0,2.36.69,15.57,15.57,0,0,0,3.79.36,18.81,18.81,0,0,0,6.34-1,12.1,12.1,0,0,0,4.78-3.33,17.38,17.38,0,0,0,3.36-5.79,50.71,50.71,0,0,0,2.27-8.68l5.82-32.95h8.51a.87.87,0,0,0,.87-.75l1-5.38c.07-.51-.15-.83-.84-.83h-8.26a34.56,34.56,0,0,1,1.36-5.82,7.46,7.46,0,0,1,1.82-2.76,5.32,5.32,0,0,1,2.16-1.35,8.87,8.87,0,0,1,2.77-.4,10.85,10.85,0,0,1,2.12.21c.8.17,1.12.26,1.33.32.84.27.95,0,1.12-.39l2-5.43a.68.68,0,0,0-.47-.9"></path><path class="cls-3" d="M150.28,165.75a.74.74,0,0,1-.74.78h-6.85a.74.74,0,0,1-.74-.78V110.59a.74.74,0,0,1,.74-.78h6.85a.74.74,0,0,1,.74.78Z"></path></g></g></svg>