<svg width="218" height="334" viewBox="0 0 218 334" fill="none" xmlns="http://www.w3.org/2000/svg">
<path d="M21 21L21 312" stroke="#E6F2FE" stroke-width="6"/>
<circle cx="21" cy="167" r="20.2402" fill="white" stroke="#E6F2FE" stroke-width="1.51963"/>
<path d="M20.9927 172.146C18.7295 172.146 17.1108 170.916 17.0669 169.129H18.9858C19.0371 169.979 19.8867 170.542 20.9927 170.535C22.1572 170.542 22.9995 169.898 22.9995 168.953C22.9995 168.001 22.1792 167.32 20.8022 167.312H19.8501V165.848H20.8022C21.9302 165.848 22.7139 165.218 22.7065 164.295C22.7139 163.401 22.04 162.801 21.0073 162.801C20.0112 162.801 19.1543 163.357 19.1177 164.251H17.2866C17.3306 162.471 18.9492 161.248 21.022 161.248C23.1753 161.248 24.5669 162.566 24.5522 164.192C24.5669 165.379 23.7759 166.236 22.6187 166.478V166.565C24.1128 166.763 24.9624 167.723 24.9478 169.056C24.9624 170.85 23.2852 172.146 20.9927 172.146Z" fill="#00A1E0"/>
<path d="M69.8496 144.744V150.844H72.3809V152.215H69.8496V160.529H68.1797V144.744H69.8496ZM58.248 156.609V146.256H65.6133V147.609H59.918V155.221C62.5635 155.212 64.541 155.098 66.791 154.693L67.002 156.1C64.5322 156.539 62.4404 156.618 59.5137 156.609H58.248ZM87.3841 146.977V148.348H85.1517V150.352H87.3841V151.74H85.1517V154.043H83.4818V144.744H85.1517V146.977H87.3841ZM73.0228 149.402C73.0052 147.188 74.7982 145.658 77.2064 145.658C79.6234 145.658 81.39 147.188 81.4076 149.402C81.39 151.6 79.6234 153.138 77.2064 153.146C74.7982 153.138 73.0052 151.6 73.0228 149.402ZM74.6576 149.402C74.64 150.8 75.7298 151.723 77.2064 151.74C78.683 151.723 79.764 150.8 79.7728 149.402C79.764 148.014 78.683 147.056 77.2064 147.064C75.7298 147.056 74.64 148.014 74.6576 149.402ZM74.7806 157.471C74.7806 155.581 76.8197 154.474 80.0716 154.465C83.2884 154.474 85.2923 155.581 85.2923 157.471C85.2923 159.352 83.2884 160.468 80.0716 160.459C76.8197 160.468 74.7806 159.352 74.7806 157.471ZM76.4505 157.471C76.4418 158.543 77.7953 159.132 80.0716 159.123C82.3304 159.132 83.6664 158.543 83.6576 157.471C83.6664 156.416 82.3304 155.81 80.0716 155.818C77.7953 155.81 76.4418 156.416 76.4505 157.471ZM100.348 144.762V149.824H102.634V151.213H100.348V156.539H98.6784V144.762H100.348ZM87.9909 147.943V146.59H91.8581V144.744H93.528V146.59H97.3777V147.943H87.9909ZM88.8523 151.67C88.8435 149.868 90.3991 148.69 92.6843 148.699C94.9431 148.69 96.4988 149.868 96.4988 151.67C96.4988 153.454 94.9431 154.614 92.6843 154.623C90.3991 154.614 88.8435 153.454 88.8523 151.67ZM90.364 160.16V155.607H92.0339V158.807H101.016V160.16H90.364ZM90.4695 151.67C90.4519 152.698 91.3484 153.331 92.6843 153.322C94.0202 153.331 94.9167 152.698 94.9343 151.67C94.9167 150.633 94.0202 149.991 92.6843 149.982C91.3484 149.991 90.4519 150.633 90.4695 151.67ZM120.248 144.744V160.529H118.578V144.744H120.248ZM107.749 151.441C107.749 148.075 109.446 145.931 111.828 145.922C114.165 145.931 115.888 148.075 115.888 151.441C115.888 154.843 114.165 156.987 111.828 156.979C109.446 156.987 107.749 154.843 107.749 151.441ZM109.367 151.441C109.358 153.946 110.36 155.484 111.828 155.484C113.269 155.484 114.271 153.946 114.271 151.441C114.271 148.972 113.269 147.425 111.828 147.416C110.36 147.425 109.358 148.972 109.367 151.441ZM135.497 144.744V160.494H133.809V144.744H135.497ZM122.559 156.275C126.743 154.28 128.791 151.441 129.116 147.768H123.315V146.432H130.804C130.804 151.046 128.844 155.036 123.438 157.629L122.559 156.275ZM145.596 150.352V152.479H151.959V153.85H137.598V152.479H143.944V150.352H145.596ZM138.336 149.859C141.184 149.569 143.416 148.321 143.645 146.801H138.916V145.465H150.676V146.801H145.895C146.132 148.312 148.364 149.569 151.221 149.859L150.623 151.178C147.89 150.861 145.631 149.736 144.77 148.075C143.908 149.736 141.667 150.861 138.934 151.178L138.336 149.859ZM139.303 157.734C139.303 155.968 141.342 154.992 144.77 154.992C148.171 154.992 150.193 155.968 150.201 157.734C150.193 159.492 148.171 160.468 144.77 160.459C141.342 160.468 139.303 159.492 139.303 157.734ZM140.99 157.734C140.982 158.675 142.335 159.193 144.77 159.193C147.169 159.193 148.531 158.675 148.531 157.734C148.531 156.794 147.169 156.284 144.77 156.275C142.335 156.284 140.982 156.794 140.99 157.734ZM71.1152 173.744V189.494H69.498V173.744H71.1152ZM58.1426 185.785V175.625H64.1191V176.996H59.7773V184.396C61.834 184.379 63.2227 184.291 64.8574 183.939L64.998 185.346C63.1963 185.706 61.6406 185.785 59.1797 185.785H58.1426ZM63.0469 181.057V179.668H66.2812V174.078H67.8633V188.703H66.2812V181.057H63.0469ZM85.8197 173.744V189.529H84.1498V173.744H85.8197ZM73.3216 180.441C73.3216 177.075 75.0179 174.931 77.3998 174.922C79.7377 174.931 81.4603 177.075 81.4603 180.441C81.4603 183.843 79.7377 185.987 77.3998 185.979C75.0179 185.987 73.3216 183.843 73.3216 180.441ZM74.9388 180.441C74.93 182.946 75.932 184.484 77.3998 184.484C78.8412 184.484 79.8431 182.946 79.8431 180.441C79.8431 177.972 78.8412 176.425 77.3998 176.416C75.932 176.425 74.93 177.972 74.9388 180.441ZM101.104 173.744V189.529H99.4519V180.934H96.323V179.562H99.4519V173.744H101.104ZM88.6941 185.803V175.15H96.0593V176.504H90.3816V179.562H95.3913V180.898H90.3816V184.414C93.0183 184.414 94.8464 184.335 96.9382 183.975L97.114 185.328C94.82 185.697 92.8425 185.794 89.9245 185.803H88.6941ZM121.619 186.119V187.49H107.205V186.119H113.515V182.375H115.167V186.119H121.619ZM107.697 181.285C110.729 180.775 113.436 178.438 113.445 175.941V174.746H115.203V175.941C115.203 178.438 117.945 180.775 120.986 181.285L120.265 182.656C117.707 182.155 115.37 180.573 114.332 178.42C113.295 180.564 110.975 182.155 108.435 182.656L107.697 181.285ZM130.399 175.977C130.399 178.543 133.133 180.969 136.165 181.514L135.391 182.902C132.869 182.357 130.557 180.705 129.538 178.49C128.501 180.696 126.189 182.34 123.667 182.902L122.929 181.514C125.917 180.951 128.633 178.543 128.641 175.977V174.781H130.399V175.977ZM122.401 187.42V186.031H136.815V187.42H122.401ZM154.746 173.744V182.322H153.093V178.842H150.14V177.471H153.093V173.744H154.746ZM141.65 181.268C144.067 180.424 145.579 178.358 145.57 176.188V175.977H142.16V174.623H150.65V175.977H147.275V176.205C147.266 178.156 148.69 180.134 151.072 180.934L150.21 182.234C148.435 181.602 147.134 180.354 146.449 178.807C145.763 180.538 144.383 181.927 142.511 182.586L141.65 181.268ZM144.498 189.301V183.025H146.15V184.836H153.093V183.025H154.746V189.301H144.498ZM146.15 187.947H153.093V186.137H146.15V187.947ZM169.415 174.676V175.924C169.424 177.26 169.424 178.815 169.019 180.898H171.243V182.27H156.829V180.898H167.341C167.754 178.851 167.763 177.356 167.763 176.029H158.64V174.676H169.415ZM158.71 189.16V183.904H160.362V187.789H169.89V189.16H158.71ZM188.33 173.744V180.02H190.773V181.408H188.33V189.477H186.66V173.744H188.33ZM176.078 185.275C180.024 183.307 182.169 180.459 182.511 176.785H176.869V175.396H184.216C184.199 179.949 182.195 184.019 177.009 186.576L176.078 185.275ZM203.983 177.998V179.352H193.173V174.025H194.825V177.998H203.983ZM191.257 182.393V181.021H205.636V182.393H191.257ZM192.962 186.541C192.962 184.704 195.01 183.667 198.429 183.676C201.821 183.667 203.852 184.704 203.86 186.541C203.852 188.387 201.821 189.424 198.429 189.424C195.01 189.424 192.962 188.387 192.962 186.541ZM194.649 186.541C194.641 187.552 196.02 188.132 198.429 188.141C200.802 188.132 202.19 187.552 202.19 186.541C202.19 185.521 200.802 184.985 198.429 184.977C196.02 184.985 194.641 185.521 194.649 186.541Z" fill="#4B5056"/>
<circle cx="21" cy="244" r="20.2402" fill="white" stroke="#E6F2FE" stroke-width="1.51963"/>
<path d="M16.8472 247.022V245.499L21.4321 238.395H23.8052V245.455H25.1968V247.022H23.8052V249H21.9888V247.022H16.8472ZM18.7954 245.455H22.0181V240.562H21.9009L18.7954 245.382V245.455Z" fill="#00A1E0"/>
<path d="M71.1152 236.744V252.494H69.498V236.744H71.1152ZM58.1426 248.785V238.625H64.1191V239.996H59.7773V247.396C61.834 247.379 63.2227 247.291 64.8574 246.939L64.998 248.346C63.1963 248.706 61.6406 248.785 59.1797 248.785H58.1426ZM63.0469 244.057V242.668H66.2812V237.078H67.8633V251.703H66.2812V244.057H63.0469ZM85.8197 236.744V252.529H84.1498V236.744H85.8197ZM73.3216 243.441C73.3216 240.075 75.0179 237.931 77.3998 237.922C79.7377 237.931 81.4603 240.075 81.4603 243.441C81.4603 246.843 79.7377 248.987 77.3998 248.979C75.0179 248.987 73.3216 246.843 73.3216 243.441ZM74.9388 243.441C74.93 245.946 75.932 247.484 77.3998 247.484C78.8412 247.484 79.8431 245.946 79.8431 243.441C79.8431 240.972 78.8412 239.425 77.3998 239.416C75.932 239.425 74.93 240.972 74.9388 243.441ZM101.104 236.744V252.529H99.4519V243.934H96.323V242.562H99.4519V236.744H101.104ZM88.6941 248.803V238.15H96.0593V239.504H90.3816V242.562H95.3913V243.898H90.3816V247.414C93.0183 247.414 94.8464 247.335 96.9382 246.975L97.114 248.328C94.82 248.697 92.8425 248.794 89.9245 248.803H88.6941ZM120.265 236.762V248.205H118.595V236.762H120.265ZM107.521 241.719C107.53 239.442 109.34 237.825 111.722 237.816C114.095 237.825 115.906 239.442 115.906 241.719C115.906 244.03 114.095 245.639 111.722 245.639C109.34 245.639 107.53 244.03 107.521 241.719ZM109.156 241.719C109.147 243.204 110.254 244.18 111.722 244.18C113.164 244.18 114.271 243.204 114.271 241.719C114.271 240.269 113.164 239.275 111.722 239.275C110.254 239.275 109.147 240.269 109.156 241.719ZM109.964 252.16V247.045H111.652V250.807H120.74V252.16H109.964ZM136.815 249.119V250.525H122.401V249.119H136.815ZM123.632 239.627V238.256H135.497V239.627H133.089V244.883H135.444V246.219H123.667V244.883H126.022V239.627H123.632ZM127.675 244.883H131.454V239.627H127.675V244.883ZM149.867 236.744V242.896H152.399V244.303H149.867V252.529H148.215V236.744H149.867ZM138.213 239.521V238.168H145.42V243.951H139.901V247.361C142.599 247.353 144.611 247.256 146.914 246.834L147.072 248.188C144.611 248.645 142.485 248.75 139.531 248.768H138.248V242.598H143.768V239.521H138.213ZM169.96 236.762V248.768H168.29V245.516H165.759V244.18H168.29V242.229H165.759V240.857H168.29V236.762H169.96ZM156.847 239.943V238.59H160.538V236.744H162.19V238.59H165.706V239.943H156.847ZM157.725 243.723C157.725 241.921 159.22 240.69 161.347 240.699C163.465 240.69 164.976 241.921 164.985 243.723C164.976 245.533 163.465 246.764 161.347 246.764C159.22 246.764 157.725 245.533 157.725 243.723ZM159.29 243.723C159.281 244.795 160.125 245.463 161.347 245.463C162.551 245.463 163.403 244.795 163.421 243.723C163.403 242.686 162.551 242.018 161.347 242C160.125 242.018 159.281 242.686 159.29 243.723ZM159.677 252.16V247.713H161.364V250.807H170.311V252.16H159.677ZM185.543 236.744V252.494H183.944V244.355H181.905V251.686H180.375V237.061H181.905V242.984H183.944V236.744H185.543ZM172.553 248.715V238.643H178.459V239.996H174.223V247.291C176.156 247.282 177.615 247.194 179.303 246.869L179.426 248.24C177.536 248.636 175.902 248.697 173.608 248.715H172.553ZM199.562 236.744V243.336H201.935V244.742H199.562V252.494H197.892V236.744H199.562ZM187.029 248.205C188.268 248.205 189.71 248.205 191.212 248.161V246.562C189.437 246.298 188.277 245.226 188.295 243.705C188.277 241.93 189.815 240.761 192.056 240.752C194.289 240.761 195.844 241.93 195.853 243.705C195.844 245.226 194.667 246.307 192.882 246.562V248.1C194.28 248.029 195.686 247.915 196.996 247.73L197.101 248.961C193.691 249.567 190.008 249.603 187.293 249.594L187.029 248.205ZM187.328 239.943V238.607H191.212V236.779H192.882V238.607H196.767V239.943H187.328ZM189.859 243.705C189.859 244.707 190.738 245.331 192.056 245.322C193.375 245.331 194.245 244.707 194.254 243.705C194.245 242.694 193.375 242.053 192.056 242.053C190.738 242.053 189.859 242.694 189.859 243.705Z" fill="#4B5056"/>
<circle cx="21" cy="313" r="20.2402" fill="white" stroke="#E6F2FE" stroke-width="1.51963"/>
<path d="M21.0146 318.146C18.8979 318.146 17.3379 316.879 17.2793 315.129H19.1396C19.1982 315.986 20.0112 316.601 21.0146 316.608C22.2012 316.601 23.0581 315.744 23.0508 314.572C23.0581 313.356 22.1792 312.5 20.9561 312.492C20.1284 312.485 19.5278 312.778 19.1982 313.4H17.4258L18.0703 307.395H24.3398V308.991H19.6377L19.3154 311.804H19.418C19.8281 311.342 20.5972 311.005 21.4688 310.998C23.439 311.005 24.9038 312.47 24.8965 314.514C24.9038 316.63 23.3071 318.146 21.0146 318.146Z" fill="#00A1E0"/>
<path d="M70.6758 305.744V321.494H68.9883V305.744H70.6758ZM57.7383 317.275C61.9219 315.28 63.9697 312.441 64.2949 308.768H58.4941V307.432H65.9824C65.9824 312.046 64.0225 316.036 58.6172 318.629L57.7383 317.275ZM77.1361 306.465C79.2103 306.447 80.8187 307.651 81.1615 309.418H84.2377V305.744H85.9076V314.199H84.2377V310.789H81.1703C80.8451 312.6 79.2279 313.812 77.1361 313.812C74.7279 313.812 72.9964 312.292 73.0052 310.121C72.9964 307.977 74.7279 306.447 77.1361 306.465ZM74.6048 310.121C74.5961 311.466 75.6507 312.406 77.1361 312.406C78.5951 312.406 79.6322 311.466 79.6322 310.121C79.6322 308.768 78.5951 307.845 77.1361 307.854C75.6507 307.845 74.5961 308.768 74.6048 310.121ZM75.642 321.301V314.955H77.2943V316.783H84.2377V314.955H85.9076V321.301H75.642ZM77.2943 319.93H84.2377V318.102H77.2943V319.93ZM105.174 305.762V321.494H103.486V317.732H100.006V316.467H103.486V305.762H105.174ZM91.9376 313.953C94.9259 313.936 98.8897 313.927 102.344 313.443L102.432 314.674C100.929 314.938 99.3731 315.096 97.8614 315.192V321.002H96.1915V315.271C94.7501 315.324 93.379 315.342 92.1661 315.342L91.9376 313.953ZM93.0977 309.629C93.1065 307.766 94.7589 306.482 97.1231 306.482C99.4522 306.482 101.113 307.766 101.113 309.629C101.113 311.527 99.4522 312.749 97.1231 312.758C94.7589 312.749 93.1065 311.527 93.0977 309.629ZM94.6798 309.629C94.671 310.754 95.6729 311.483 97.1231 311.475C98.5206 311.483 99.5225 310.754 99.5313 309.629C99.5225 308.521 98.5294 307.774 97.1231 307.766C95.6729 307.774 94.671 308.521 94.6798 309.629ZM119.878 307.273V309.189C119.878 311.492 119.878 313.654 119.193 316.924L117.54 316.766C117.874 315.315 118.05 314.059 118.138 312.89L108.681 313.391L108.47 312.02L118.217 311.65C118.252 310.807 118.252 309.998 118.261 309.189V308.645H108.91V307.273H119.878ZM107.205 319.385V318.014H121.566V319.385H107.205ZM135.409 306.219V307.484H133.124V310.209H135.339V311.492H123.79V310.209H126.022V307.484H123.72V306.219H135.409ZM122.401 313.971V312.652H136.762V313.971H122.401ZM124.124 316.449V315.201H134.952V318.805H125.776V320.07H135.391V321.336H124.141V317.627H133.3V316.449H124.124ZM127.675 310.209H131.454V307.484H127.675V310.209ZM152.012 318.207V319.613H137.598V318.207H143.944V315.447H139.356V310.438H148.602V308.223H139.32V306.852H150.254V311.773H141.008V314.076H150.623V315.447H145.596V318.207H152.012ZM167.191 314.691V316.08H160.757V321.494H159.123V316.08H152.777V314.691H167.191ZM154.341 309.84C154.35 307.695 156.618 306.342 159.949 306.342C163.28 306.342 165.565 307.695 165.556 309.84C165.565 311.958 163.28 313.303 159.949 313.303C156.618 313.303 154.35 311.958 154.341 309.84ZM156.064 309.84C156.055 311.149 157.611 311.967 159.949 311.967C162.295 311.967 163.842 311.149 163.851 309.84C163.842 308.513 162.295 307.687 159.949 307.678C157.611 307.687 156.055 308.513 156.064 309.84ZM177.51 310.385C177.501 312.872 179.145 315.649 181.535 316.783L180.586 318.084C178.82 317.24 177.413 315.465 176.701 313.408C175.981 315.649 174.504 317.592 172.711 318.488L171.727 317.17C174.117 316.019 175.849 313.048 175.858 310.385V308.715H172.307V307.326H180.938V308.715H177.51V310.385ZM182.625 321.494V305.744H184.295V311.984H186.826V313.391H184.295V321.494H182.625ZM201.601 313.408V314.744H187.222V313.408H193.603V311.738H189.015V306.465H199.826V307.783H190.668V310.402H199.931V311.738H195.22V313.408H201.601ZM188.927 318.629C188.927 316.801 190.975 315.772 194.394 315.764C197.787 315.772 199.817 316.801 199.826 318.629C199.817 320.457 197.787 321.485 194.394 321.494C190.975 321.485 188.927 320.457 188.927 318.629ZM190.615 318.629C190.606 319.64 191.986 320.193 194.394 320.176C196.767 320.193 198.156 319.64 198.156 318.629C198.156 317.636 196.767 317.064 194.394 317.064C191.986 317.064 190.606 317.636 190.615 318.629ZM214.759 305.744V312.336H217.132V313.742H214.759V321.494H213.089V305.744H214.759ZM202.226 317.205C203.465 317.205 204.906 317.205 206.409 317.161V315.562C204.634 315.298 203.474 314.226 203.491 312.705C203.474 310.93 205.012 309.761 207.253 309.752C209.485 309.761 211.041 310.93 211.05 312.705C211.041 314.226 209.863 315.307 208.079 315.562V317.1C209.477 317.029 210.883 316.915 212.192 316.73L212.298 317.961C208.888 318.567 205.205 318.603 202.489 318.594L202.226 317.205ZM202.524 308.943V307.607H206.409V305.779H208.079V307.607H211.964V308.943H202.524ZM205.056 312.705C205.056 313.707 205.935 314.331 207.253 314.322C208.571 314.331 209.441 313.707 209.45 312.705C209.441 311.694 208.571 311.053 207.253 311.053C205.935 311.053 205.056 311.694 205.056 312.705Z" fill="#4B5056"/>
<circle cx="21" cy="21" r="20.2402" fill="white" stroke="#E6F2FE" stroke-width="1.51963"/>
<path d="M22.7432 15.3945V26H20.8242V17.2549H20.7656L18.29 18.8369V17.0938L20.9121 15.3945H22.7432Z" fill="#00A1E0"/>
<path d="M62.3965 16.7676C62.3965 18.4902 63.4951 20.2305 65.543 21.0039L64.6641 22.2871C63.1963 21.7246 62.168 20.6523 61.6055 19.3604C61.0254 20.8193 59.9531 22.085 58.4238 22.7441L57.5098 21.4434C59.6367 20.5205 60.7793 18.5166 60.7793 16.7676V14.7285H62.3965V16.7676ZM60.4102 26.6113C60.3926 24.8184 62.4404 23.7549 65.7363 23.7461C69.0234 23.7549 71.0889 24.8184 71.0977 26.6113C71.0889 28.4043 69.0234 29.4678 65.7363 29.459C62.4404 29.4678 60.3926 28.4043 60.4102 26.6113ZM62.0625 26.6113C62.0449 27.6133 63.4424 28.1934 65.7363 28.1758C68.0215 28.1934 69.4189 27.6133 69.4277 26.6113C69.4189 25.6006 68.0215 25.0205 65.7363 25.0293C63.4424 25.0205 62.0449 25.6006 62.0625 26.6113ZM66.0352 22.9551V14.043H67.582V17.8574H69.4277V13.7617H71.0098V23.4473H69.4277V19.2285H67.582V22.9551H66.0352ZM78.2435 16.627C78.2435 18.7363 79.7113 20.7227 82.1107 21.5312L81.2494 22.8496C79.4828 22.2344 78.1644 20.9775 77.4701 19.3867C76.7845 21.1621 75.431 22.5332 73.5853 23.2188L72.6537 21.9004C75.1498 21.0479 76.5824 18.9209 76.5912 16.5742V14.7109H78.2435V16.627ZM75.1849 29.1602V24.2207H76.89V27.8066H85.8373V29.1602H75.1849ZM83.4818 25.3457V13.7266H85.1517V18.4727H87.4369V19.8965H85.1517V25.3457H83.4818ZM93.5632 16.0996C93.5544 18.3057 94.987 20.2744 97.3777 21.0566L96.4636 22.3574C94.7321 21.7246 93.4577 20.5117 92.7722 18.9297C92.0954 20.7314 90.7243 22.1465 88.8171 22.832L87.9206 21.4961C90.4343 20.6348 91.8933 18.5342 91.9109 16.1699V14.623H93.5632V16.0996ZM90.5046 26.4883C90.4958 24.5811 92.5173 23.4736 95.8308 23.4824C99.1267 23.4736 101.148 24.5811 101.157 26.4883C101.148 28.3867 99.1267 29.4678 95.8308 29.459C92.5173 29.4678 90.4958 28.3867 90.5046 26.4883ZM92.157 26.4883C92.1482 27.5342 93.5193 28.1494 95.8308 28.1406C98.1247 28.1494 99.4958 27.5342 99.5046 26.4883C99.4958 25.4072 98.1247 24.7832 95.8308 24.7832C93.5193 24.7832 92.1482 25.4072 92.157 26.4883ZM96.112 18.3145V16.9434H99.4343V13.7441H101.104V23.043H99.4343V18.3145H96.112ZM125.846 16.3457V17.7168H123.614V19.7031H125.846V21.0742H123.614V23.8516H121.944V13.7441H123.614V16.3457H125.846ZM111.257 16.75V15.4316H115.124V13.6211H116.794V15.4316H120.643V16.75H111.257ZM112.118 20.2832C112.109 18.5869 113.656 17.4795 115.95 17.4707C118.218 17.4795 119.764 18.5869 119.764 20.2832C119.764 21.9707 118.218 23.0693 115.95 23.0605C113.656 23.0693 112.109 21.9707 112.118 20.2832ZM113.366 26.7344C113.348 24.9941 115.335 23.9746 118.587 23.9746C121.795 23.9746 123.79 24.9941 123.79 26.7344C123.79 28.4482 121.795 29.4678 118.587 29.459C115.335 29.4678 113.348 28.4482 113.366 26.7344ZM113.735 20.2832C113.718 21.2148 114.614 21.7949 115.95 21.7949C117.286 21.7949 118.182 21.2148 118.2 20.2832C118.182 19.3252 117.286 18.7188 115.95 18.7188C114.614 18.7188 113.718 19.3252 113.735 20.2832ZM115.018 26.7344C115.01 27.6572 116.319 28.1934 118.587 28.1934C120.819 28.1934 122.129 27.6572 122.138 26.7344C122.129 25.7764 120.819 25.2666 118.587 25.2578C116.319 25.2666 115.01 25.7764 115.018 26.7344ZM131.867 16.2578C131.859 18.3232 133.318 20.248 135.664 21.0215L134.768 22.3398C133.045 21.7334 131.753 20.5029 131.068 18.9473C130.382 20.7139 129.046 22.1025 127.209 22.7793L126.313 21.4434C128.774 20.5732 130.197 18.4727 130.215 16.1172V14.5703H131.867V16.2578ZM128.44 26.541C128.44 24.6953 130.452 23.6143 133.731 23.623C136.965 23.6143 138.951 24.6953 138.951 26.541C138.951 28.4043 136.965 29.4678 133.731 29.459C130.452 29.4678 128.44 28.4043 128.44 26.541ZM130.11 26.541C130.101 27.5781 131.454 28.1406 133.731 28.1582C135.989 28.1406 137.325 27.5781 137.317 26.541C137.325 25.5391 135.989 24.9414 133.731 24.9414C131.454 24.9414 130.101 25.5391 130.11 26.541ZM137.141 23.2539V13.7441H138.811V17.6992H141.096V19.1055H138.811V23.2539H137.141Z" fill="#4B5056"/>
<circle cx="21" cy="90" r="20.2402" fill="white" stroke="#E6F2FE" stroke-width="1.51963"/>
<path d="M17.8599 95V93.623L21.6099 90.0049C22.6792 88.9355 23.2358 88.3057 23.2358 87.4121C23.2358 86.4233 22.4521 85.8008 21.4194 85.8008C20.3281 85.8008 19.625 86.4819 19.6323 87.5586H17.8159C17.8086 85.5518 19.3174 84.248 21.4341 84.248C23.6021 84.248 25.0596 85.5444 25.0669 87.3242C25.0596 88.5181 24.4883 89.4849 22.4009 91.4551L20.5112 93.3301V93.4033H25.228V95H17.8599Z" fill="#00A1E0"/>
<path d="M71.2207 84.9766V86.3301H58.2656V84.9766H63.9258V82.9727H65.5781V84.9766H71.2207ZM57.5801 96.7539V95.4004H61.2715V92.5879C60.1289 92.0869 59.4873 91.2783 59.4961 90.2148C59.4873 88.334 61.5 87.2266 64.752 87.2441C67.9775 87.2266 69.999 88.334 69.9902 90.2148C69.999 91.2783 69.3574 92.0869 68.2148 92.5879V95.4004H71.9941V96.7539H57.5801ZM61.2012 90.2148C61.1836 91.2783 62.502 91.8848 64.752 91.8848C66.9668 91.8848 68.2939 91.2783 68.2852 90.2148C68.2939 89.1426 66.9668 88.5361 64.752 88.5273C62.502 88.5361 61.1836 89.1426 61.2012 90.2148ZM62.9414 95.4004H66.5801V93.0537C66.0264 93.1416 65.4111 93.1855 64.752 93.1855C64.0928 93.1855 63.4863 93.1416 62.9414 93.0537V95.4004ZM81.5482 84.4316V85.3984C81.5394 86.7256 81.5394 88.7559 81.0912 91.5684L79.4388 91.4453C79.8431 88.9316 79.8871 87.0947 79.8959 85.7852H73.4974V84.4316H81.5482ZM72.6185 93.748C73.6029 93.7393 74.7015 93.7305 75.8529 93.7041V88.9316H77.5052V93.6514C79.1752 93.5811 80.889 93.4756 82.4623 93.2734L82.5502 94.5215C79.2718 95.0488 75.6068 95.1191 72.8119 95.1016L72.6185 93.748ZM83.3588 98.4941V82.7441H85.0463V89.248H87.4545V90.6719H85.0463V98.4941H83.3588ZM93.6159 85.5391C93.6071 87.5254 95.031 89.4678 97.4128 90.2852L96.5515 91.5859C94.7849 90.9795 93.4753 89.7139 92.7898 88.1582C92.1042 89.8896 90.7243 91.2783 88.8523 91.9375L87.9909 90.6191C90.4079 89.793 91.9196 87.6924 91.9109 85.5566V85.1172H88.5007V83.7637H96.9909V85.1172H93.6159V85.5391ZM90.4343 94.3105V92.957H101.104V98.4941H99.4343V94.3105H90.4343ZM96.5163 88.123V86.752H99.4343V82.7441H101.104V92.166H99.4343V88.123H96.5163ZM116.231 82.7617V94.2051H114.561V82.7617H116.231ZM103.486 87.7188C103.495 85.4424 105.306 83.8252 107.688 83.8164C110.061 83.8252 111.871 85.4424 111.871 87.7188C111.871 90.0303 110.061 91.6387 107.688 91.6387C105.306 91.6387 103.495 90.0303 103.486 87.7188ZM105.121 87.7188C105.112 89.2041 106.22 90.1797 107.688 90.1797C109.129 90.1797 110.236 89.2041 110.236 87.7188C110.236 86.2686 109.129 85.2754 107.688 85.2754C106.22 85.2754 105.112 86.2686 105.121 87.7188ZM105.93 98.1602V93.0449H107.617V96.8066H116.705V98.1602H105.93ZM139.567 82.7441V90.7598H137.897V89.248H133.906V87.9473H137.897V86.2422H134.1C133.124 88.6855 130.742 90.3027 127.262 91.1113L126.682 89.7402C130.461 88.9053 132.5 87.1475 132.773 84.8359H127.508V83.4648H134.61C134.61 83.9746 134.566 84.458 134.478 84.9238H137.897V82.7441H139.567ZM129.266 92.7461V91.4277H139.567V95.418H130.953V97H140.041V98.3359H129.301V94.1523H137.897V92.7461H129.266ZM154.763 82.7441V92.1133H153.093V88.123H150.158V86.752H153.093V82.7441H154.763ZM141.632 90.6895C144.076 89.8369 145.579 87.71 145.57 85.5391V85.1875H142.16V83.834H150.65V85.1875H147.275V85.5215C147.266 87.5166 148.69 89.459 151.072 90.2676L150.21 91.5859C148.444 90.9795 147.143 89.7139 146.458 88.1582C145.772 89.916 144.392 91.3311 142.511 92.0254L141.632 90.6895ZM144.164 95.5234C144.155 93.6514 146.176 92.5615 149.49 92.5527C152.786 92.5615 154.807 93.6514 154.816 95.5234C154.807 97.3955 152.786 98.4854 149.49 98.4941C146.176 98.4854 144.155 97.3955 144.164 95.5234ZM145.816 95.5234C145.807 96.5869 147.178 97.1934 149.49 97.1758C151.784 97.1934 153.155 96.5869 153.164 95.5234C153.155 94.4512 151.784 93.8447 149.49 93.8535C147.178 93.8447 145.807 94.4512 145.816 95.5234Z" fill="#4B5056"/>
</svg>
