<svg width="250" height="250" viewBox="0 0 250 250" fill="none" xmlns="http://www.w3.org/2000/svg">
<path d="M166.063 139.736V153.024H169.266V148.071H172.107V145.353H169.327V139.736H166.063Z" fill="#074CA1"/>
<path d="M153.978 164.983V154.112H169.325V164.984L153.978 164.983ZM166.188 162.331V156.764H157.113V162.331H166.188Z" fill="#074CA1"/>
<path d="M191.442 139.736V153.024H188.241V146.923H184.069V144.206H188.179V139.736H191.442Z" fill="#074CA1"/>
<path d="M183.467 165.858C178.699 165.858 174.835 162.951 174.835 159.365C174.835 155.78 178.701 152.874 183.467 152.874C188.233 152.874 192.097 155.78 192.097 159.365C192.098 162.951 188.233 165.858 183.467 165.858ZM188.834 159.365C188.834 157.362 186.429 155.74 183.467 155.74C180.503 155.74 178.099 157.362 178.099 159.365C178.099 161.369 180.504 162.991 183.467 162.991C186.429 162.991 188.834 161.369 188.834 159.365Z" fill="#074CA1"/>
<path d="M158.36 140.219C158.36 140.219 157.931 147.405 163.757 150.386L162.084 152.697C162.084 152.697 157.813 149.884 156.846 146.804C155.88 149.884 151.612 152.697 151.612 152.697L149.938 150.386C155.763 147.405 155.334 140.219 155.334 140.219H158.36Z" fill="#074CA1"/>
<path d="M178.553 146.804C177.587 149.883 173.676 152.459 173.676 152.459L172.002 150.145C177.471 147.403 177.044 140.217 177.044 140.217H180.066C180.066 140.217 179.639 147.403 185.108 150.145L183.432 152.459C183.43 152.459 179.521 149.883 178.553 146.804Z" fill="#074CA1"/>
<path d="M228.917 140.326H216.56V143.02H228.917V140.326Z" fill="#074CA1"/>
<path d="M234.356 139.196H231.215V165.349H234.356V139.196Z" fill="#074CA1"/>
<path d="M237.5 148.705H232.878V151.396H237.5V148.705Z" fill="#074CA1"/>
<path d="M213.636 139.278H210.495V156.675H213.636V139.278Z" fill="#074CA1"/>
<path d="M212.554 145.193H206.422V147.886H212.554V145.193Z" fill="#074CA1"/>
<path d="M207.86 140.316H195.078V143.01H207.86V140.316Z" fill="#074CA1"/>
<path d="M201.025 153.957H197.883V164.947H201.025V153.957Z" fill="#074CA1"/>
<path d="M203.251 141.33C203.251 141.33 203.239 141.437 203.232 141.629C203.295 144.042 202.36 148.136 208.856 151.294L207.223 153.529C207.223 153.529 202.541 151.016 201.424 147.854C200.306 151.016 195.624 153.529 195.624 153.529L193.991 151.294C200.485 148.136 199.549 144.042 199.613 141.629C199.605 141.436 199.594 141.33 199.594 141.33H203.251Z" fill="#074CA1"/>
<path d="M224.176 142.587V143.041V144.565C224.328 150.364 224.528 154.578 229.586 159.06L227.517 161.336C227.517 161.336 223.256 157.379 222.621 153.831C221.984 157.38 217.724 161.336 217.724 161.336L215.656 159.06C220.712 154.578 220.911 150.365 221.063 144.565V143.041V142.587H224.176Z" fill="#074CA1"/>
<path d="M213.719 162.257H199.55V164.947H213.719V162.257Z" fill="#074CA1"/>
<path d="M162.259 84.9636C128.062 81.5668 78.0984 88.916 43.2859 102.969L41.2052 103.861C41.8438 103.828 42.2795 103.857 42.2795 103.857C48.0741 104.016 47.7197 107.618 47.7197 107.618L47.7287 109.817H43.1099V108.323C43.1099 107.263 41.8207 107.192 41.8207 107.192C40.8314 107.192 40.6016 107.863 40.6016 107.863C40.054 108.887 40.9903 109.77 40.9903 109.77C41.4678 110.299 43.8701 111.413 43.8701 111.413C44.6475 111.712 45.9016 112.489 45.9016 112.489C48.2509 113.901 48.0391 116.583 48.0391 116.583V118.35C47.7563 122.729 41.7147 122.605 41.7147 122.605C35.3904 122.605 35.5292 118.457 35.5292 118.457V116.29H40.4502V117.781C40.4502 119.053 41.6789 119.109 41.6789 119.109C43.0218 119.161 43.1345 117.864 43.1345 117.864C43.3188 116.602 41.9266 115.807 41.9266 115.807C40.5487 115.101 38.2523 113.865 38.2523 113.865C37.122 113.123 36.6625 112.452 36.6625 112.452C35.85 111.427 35.903 109.839 35.903 109.839V108.461C35.903 106.553 36.4155 106.007 36.4155 106.007C36.4222 105.993 36.4319 105.983 36.4394 105.969C2.373 121.892 6.2592 138.442 38.0016 141.513C72.6992 144.868 125.098 138.199 160.308 122.466C160.197 122.472 160.097 122.492 159.982 122.492C159.982 122.492 154.024 122.974 153.88 118.173V108.89C153.88 108.89 153.139 103.769 159.815 103.769C159.815 103.769 164.16 103.629 165.309 106.207C165.309 106.207 165.877 106.896 165.724 109.749H161.096V108.287C161.096 108.287 161.087 107.107 159.888 107.107C159.888 107.107 158.632 107.16 158.632 108.148V117.754C158.632 117.754 158.578 119.043 159.991 119.043C159.991 119.043 161.153 119.019 161.153 117.661V114.883H159.891V112.296H165.84V117.752C165.84 117.752 165.824 118.901 165.347 119.57C165.347 119.57 164.994 120.097 164.778 120.332L166.714 119.364C197.902 103.387 193.999 88.1136 162.259 84.9636ZM61.474 121.982L59.673 108.385H59.2687L57.4692 121.982H52.5534L55.5906 104.445H63.3519L66.389 121.982H61.474ZM86.3222 122.001L86.2117 108.789H85.8947L83.5028 121.998H78.6975L76.2758 108.785H75.9169L75.8617 122.001H71.2944L71.6793 104.461H79.3943L80.8722 114.061H81.2341L82.7806 104.462H90.4195L90.9141 122.002L86.3222 122.001ZM108.56 116.586V118.352C108.277 122.731 102.236 122.608 102.236 122.608C95.912 122.608 96.0492 118.459 96.0492 118.459V116.292H100.972V117.785C100.972 119.056 102.2 119.112 102.2 119.112C103.543 119.164 103.656 117.866 103.656 117.866C103.84 116.605 102.447 115.81 102.447 115.81C101.069 115.105 98.7731 113.867 98.7731 113.867C97.6428 113.126 97.1832 112.455 97.1832 112.455C96.3708 111.43 96.4237 109.842 96.4237 109.842V108.464C96.4237 106.557 96.9363 106.01 96.9363 106.01C98.2434 103.555 102.8 103.855 102.8 103.855C108.594 104.014 108.241 107.616 108.241 107.616L108.249 109.815H103.631V108.321C103.631 107.262 102.341 107.191 102.341 107.191C101.352 107.191 101.122 107.861 101.122 107.861C100.575 108.885 101.511 109.768 101.511 109.768C101.987 110.298 104.39 111.411 104.39 111.411C105.168 111.711 106.422 112.487 106.422 112.487C108.772 113.903 108.56 116.586 108.56 116.586ZM126.639 117.771C126.639 122.594 120.53 122.52 120.53 122.52C113.499 122.52 114.015 117.54 114.015 117.54V104.387H119.032L119.049 117.647C119.049 119.134 120.459 119.059 120.459 119.059C121.802 119.059 121.735 117.613 121.735 117.613V104.388H126.64L126.639 117.771ZM147.724 122.003H142.271L137.406 111.278H137.201L137.475 122.003H132.899V104.465H138.521L143.219 115.103H143.422L143.09 104.463H147.723V122.003H147.724Z" fill="#074CA1"/>
</svg>
