<svg width="116" height="57" viewBox="0 0 116 57" fill="none" xmlns="http://www.w3.org/2000/svg">
<g clip-path="url(#clip0_102_873)">
<path fill-rule="evenodd" clip-rule="evenodd" d="M0 57H58.6261L116 0H0L0 57Z" fill="#363A3F"/>
<path fill-rule="evenodd" clip-rule="evenodd" d="M69.1599 11.3154H57.6726L57.711 37.8506L47.7082 11.3053H37.7898L29.2511 33.4741C28.3433 27.833 22.4053 25.8865 17.7331 24.4285C14.6478 23.4553 11.3732 22.0237 11.4064 20.4413C11.432 19.1428 13.1581 17.9385 16.5887 18.1181C18.8903 18.2399 20.9233 18.422 24.9677 20.3409L28.9442 13.5344C25.2566 11.6909 20.1574 10.5267 15.9763 10.5229H15.9507C11.0752 10.5229 7.01557 12.0739 4.49921 14.6294C2.74492 16.4127 1.79873 18.6807 1.76037 21.1885C1.69644 24.6395 2.98403 27.0858 5.68962 29.0411C7.97583 30.6862 10.9001 31.7537 13.4765 32.5373C16.6539 33.5043 19.2496 34.3457 19.2176 36.1365C19.192 36.7895 18.9414 37.3998 18.4632 37.8921C17.6705 38.6958 16.4558 38.9972 14.7743 39.0298C11.5304 39.0977 9.1266 38.5966 5.2958 36.3725L1.75781 43.2669C5.58478 45.4043 9.64701 46.4768 14.2629 46.4768L15.3011 46.4693C19.3186 46.3977 22.5792 45.4521 25.1697 43.4051C25.318 43.2883 25.451 43.1702 25.5891 43.0509L25.1543 45.2511L34.8464 45.221L36.5854 40.8483C38.4138 41.4611 40.4929 41.8002 42.6998 41.8002C44.8505 41.8002 46.8733 41.4787 48.6672 40.901L49.8794 45.221L67.2688 45.2373L67.311 35.2687H71.0114C79.9555 35.2687 85.2427 30.798 85.2427 23.3008C85.2397 14.9509 80.1 11.3141 69.1599 11.3141L69.1599 11.3154ZM42.6998 33.9978C41.3636 33.9978 40.1105 33.7693 39.0326 33.3674L42.6589 22.1216H42.7292L46.2966 33.3988C45.2225 33.7755 43.9989 33.9978 42.6985 33.9978H42.6998ZM69.8325 27.5367H67.3084V18.4735H69.8338C73.1966 18.4735 75.8817 19.5736 75.8817 22.9467C75.8788 26.4378 73.1966 27.5367 69.8338 27.5367" fill="white"/>
</g>
<defs>
<clipPath id="clip0_102_873">
<rect width="116" height="57" fill="white"/>
</clipPath>
</defs>
</svg>
