<svg width="32" height="31" viewBox="0 0 32 31" fill="none" xmlns="http://www.w3.org/2000/svg">
<path d="M22.6667 14.141C23.0748 14.141 23.4226 13.9973 23.71 13.7099C23.9973 13.4225 24.141 13.0748 24.141 12.6666C24.141 12.2585 23.9973 11.9108 23.71 11.6234C23.4226 11.336 23.0748 11.1923 22.6667 11.1923C22.2586 11.1923 21.9108 11.336 21.6235 11.6234C21.3361 11.9108 21.1924 12.2585 21.1924 12.6666C21.1924 13.0748 21.3361 13.4225 21.6235 13.7099C21.9108 13.9973 22.2586 14.141 22.6667 14.141ZM9.33337 10.1773H17.6667V8.08335H9.33337V10.1773ZM4.12508 30.1666C3.24475 27.1281 2.36494 24.1046 1.48566 21.0961C0.606387 18.0876 0.166748 15 0.166748 11.8333C0.166748 9.51281 0.975512 7.54381 2.59304 5.92631C4.21054 4.30879 6.17954 3.50002 8.50004 3.50002H17.2501C18.0129 2.49791 18.9279 1.69183 19.9952 1.08177C21.0626 0.471716 22.2308 0.166687 23.5 0.166687C23.9594 0.166687 24.352 0.329618 24.6779 0.655479C25.0037 0.981313 25.1667 1.37392 25.1667 1.83331C25.1667 1.94656 25.1512 2.05981 25.1202 2.17306C25.0892 2.28628 25.0566 2.39098 25.0224 2.48715C24.8686 2.88887 24.7377 3.3002 24.6298 3.72115C24.5219 4.14209 24.4295 4.56731 24.3525 4.99681L28.6891 9.33335H31.8333V19.516L27.2852 21.0096L24.5417 30.1666H16.8334V26.8333H11.8333V30.1666H4.12508ZM5.70087 28.0726H9.73937V24.7393H18.9274V28.0726H22.9765L25.577 19.4102L29.7394 17.9904V11.4273H27.8248L22.2394 5.84186C22.2508 5.21508 22.3118 4.61091 22.4226 4.02936C22.5333 3.4478 22.6745 2.86642 22.8462 2.28523C21.9238 2.53026 21.0798 2.92894 20.3142 3.48127C19.5485 4.03363 18.9527 4.73787 18.5267 5.59398H8.50004C6.7711 5.59398 5.29897 6.20163 4.08367 7.41694C2.86836 8.63224 2.26071 10.1044 2.26071 11.8333C2.26071 14.6266 2.64889 17.3557 3.42525 20.0206C4.20161 22.6856 4.96015 25.3696 5.70087 28.0726Z" fill="white"/>
</svg>
