<svg width="48" height="48" viewBox="0 0 48 48" fill="none" xmlns="http://www.w3.org/2000/svg">
<path d="M31.579 22.8866C32.0429 22.8866 32.4383 22.7232 32.765 22.3965C33.0917 22.0698 33.2551 21.6745 33.2551 21.2105C33.2551 20.7466 33.0917 20.3512 32.765 20.0245C32.4383 19.6978 32.0429 19.5344 31.579 19.5344C31.115 19.5344 30.7197 19.6978 30.393 20.0245C30.0662 20.3512 29.9029 20.7466 29.9029 21.2105C29.9029 21.6745 30.0662 22.0698 30.393 22.3965C30.7197 22.7232 31.115 22.8866 31.579 22.8866ZM16.421 18.3805H25.8947V16H16.421V18.3805ZM10.5 41.1053C9.49921 37.651 8.49901 34.2137 7.4994 30.7935C6.4998 27.3733 6 23.8632 6 20.2631C6 17.6251 6.91944 15.3866 8.75832 13.5478C10.5972 11.7089 12.8356 10.7895 15.4737 10.7895H25.4211C26.2883 9.65024 27.3286 8.73385 28.5419 8.04031C29.7553 7.34677 31.0834 7 32.5263 7C33.0486 7 33.4949 7.18523 33.8654 7.55568C34.2358 7.9261 34.421 8.37244 34.421 8.8947C34.421 9.02344 34.4034 9.15219 34.3682 9.28094C34.333 9.40965 34.2959 9.52868 34.257 9.638C34.0822 10.0947 33.9334 10.5623 33.8107 11.0409C33.688 11.5194 33.5829 12.0028 33.4955 12.4911L38.4255 17.4211H42V28.9971L36.8295 30.6951L33.7105 41.1053H24.9474V37.3158H19.2631V41.1053H10.5ZM12.2914 38.7248H16.8826V34.9353H27.3279V38.7248H31.9312L34.8875 28.8769L39.6195 27.2627V19.8016H37.443L31.0932 13.4518C31.1061 12.7392 31.1755 12.0524 31.3014 11.3913C31.4273 10.7301 31.5879 10.0692 31.783 9.40846C30.7344 9.68701 29.7749 10.1403 28.9045 10.7682C28.034 11.3961 27.3567 12.1967 26.8725 13.17H15.4737C13.5081 13.17 11.8345 13.8608 10.4529 15.2424C9.07131 16.624 8.38051 18.2976 8.38051 20.2631C8.38051 23.4386 8.82181 26.5412 9.70441 29.5709C10.587 32.6006 11.4494 35.6519 12.2914 38.7248Z" fill="#B0B5BC"/>
</svg>
