<svg width="35" height="33" viewBox="0 0 35 33" fill="none" xmlns="http://www.w3.org/2000/svg">
<path d="M27.7223 11.376L26.0492 7.79486L22.468 6.12178L26.0492 4.44869L27.7223 0.878235L29.3987 4.44536L32.9658 6.12178L29.3953 7.79486L27.7223 11.376ZM31.1346 23.4743L29.9388 20.9403L27.3975 19.7479L29.9345 18.5477L31.1346 16.0107L32.3241 18.5477L34.8718 19.7479L32.3241 20.9373L31.1346 23.4743ZM10.1465 32.8333L9.72017 29.2179C9.31917 29.1139 8.89341 28.9419 8.44288 28.7019C7.99238 28.4618 7.61898 28.1994 7.32268 27.9144L4.11542 29.3054L0.942424 23.9466L3.90822 21.8868C3.79069 21.3875 3.73193 20.943 3.73193 20.5534C3.73193 20.1638 3.79069 19.7193 3.90822 19.22L0.942383 17.1709L4.11542 11.812L7.32268 13.1924C7.61898 12.9146 7.99238 12.6557 8.44288 12.4157C8.89341 12.1756 9.31917 12.0036 9.72017 11.8996L10.1486 8.28424H16.3483L16.782 11.8996C17.1759 12.0036 17.5981 12.1756 18.0486 12.4157C18.4991 12.6557 18.8725 12.9146 19.1688 13.1924L22.3761 11.812L25.5598 17.1709L22.5833 19.22C22.7008 19.7193 22.7596 20.1638 22.7596 20.5534C22.7596 20.943 22.7008 21.3875 22.5833 21.8868L25.5598 23.9466L22.3761 29.3054L19.1688 27.9144C18.8725 28.1994 18.4991 28.4618 18.0486 28.7019C17.5981 28.9419 17.1759 29.1139 16.782 29.2179L16.3462 32.8333H10.1465ZM13.242 25.0085C14.5052 25.0085 15.5641 24.5824 16.4188 23.7302C17.2735 22.878 17.7008 21.8221 17.7008 20.5625C17.7008 19.3029 17.2748 18.2457 16.4226 17.391C15.5704 16.5363 14.5127 16.109 13.2495 16.109C11.9863 16.109 10.9292 16.5351 10.0781 17.3873C9.22691 18.2394 8.80134 19.2953 8.80134 20.555C8.80134 21.8146 9.22565 22.8717 10.0743 23.7264C10.9229 24.5811 11.9788 25.0085 13.242 25.0085ZM13.2439 22.9145C12.5756 22.9145 12.0171 22.6879 11.5684 22.2348C11.1197 21.7816 10.8953 21.2212 10.8953 20.5534C10.8953 19.8887 11.1197 19.3308 11.5684 18.8797C12.0171 18.4285 12.5756 18.2029 13.2439 18.2029C13.9122 18.2029 14.4731 18.429 14.9266 18.8811C15.3801 19.3332 15.6069 19.8923 15.6069 20.5585C15.6069 21.2246 15.3801 21.7838 14.9266 22.2361C14.4731 22.6884 13.9122 22.9145 13.2439 22.9145ZM11.9167 30.7393H14.5748L14.9081 27.6602C15.7137 27.4494 16.4265 27.1675 17.0465 26.8146C17.6665 26.4617 18.2486 25.9936 18.7927 25.4102L21.5321 26.6325L22.8376 24.4829L20.2992 22.6816C20.5734 22.0199 20.7105 21.3123 20.7105 20.5587C20.7105 19.8052 20.5734 19.0976 20.2992 18.4359L22.8056 16.6026L21.5321 14.4744L18.7927 15.7072C18.2486 15.1239 17.6665 14.654 17.0465 14.2975C16.4265 13.9411 15.7137 13.662 14.9081 13.4604L14.5748 10.3782H11.9167L11.5833 13.4604C10.7778 13.662 10.0668 13.9411 9.45034 14.2975C8.8339 14.654 8.24922 15.1239 7.6963 15.7072L4.95942 14.4744L3.69659 16.6026L6.19234 18.4359C5.91812 19.0976 5.77958 19.8052 5.77672 20.5587C5.77388 21.3123 5.91243 22.0199 6.19234 22.6816L3.66455 24.4829L4.95942 26.6325L7.6963 25.4102C8.24922 25.9936 8.8339 26.4617 9.45034 26.8146C10.0668 27.1675 10.7778 27.4494 11.5833 27.6602L11.9167 30.7393Z" fill="#998EE8"/>
</svg>
