<svg width="48" height="48" viewBox="0 0 48 48" fill="none" xmlns="http://www.w3.org/2000/svg">
<path d="M36.8667 17.2512L34.859 12.9538L30.5616 10.9461L34.859 8.93842L36.8667 4.65387L38.8784 8.93442L43.1589 10.9461L38.8743 12.9538L36.8667 17.2512ZM40.9615 31.7692L39.5265 28.7284L36.4769 27.2974L39.5213 25.8572L40.9615 22.8128L42.3889 25.8572L45.4461 27.2974L42.3889 28.7248L40.9615 31.7692ZM15.7757 42.9999L15.2642 38.6615C14.783 38.5367 14.2721 38.3303 13.7314 38.0422C13.1908 37.7542 12.7428 37.4392 12.3872 37.0973L8.53849 38.7665L4.73088 32.3359L8.28984 29.8641C8.1488 29.265 8.07829 28.7316 8.07829 28.2641C8.07829 27.7965 8.1488 27.2632 8.28984 26.664L4.73083 24.2051L8.53849 17.7744L12.3872 19.4308C12.7428 19.0975 13.1908 18.7868 13.7314 18.4988C14.2721 18.2107 14.783 18.0043 15.2642 17.8795L15.7782 13.5411H23.2179L23.7384 17.8795C24.2111 18.0043 24.7177 18.2107 25.2583 18.4988C25.7989 18.7868 26.247 19.0975 26.6025 19.4308L30.4512 17.7744L34.2717 24.2051L30.6999 26.664C30.841 27.2632 30.9115 27.7965 30.9115 28.2641C30.9115 28.7316 30.841 29.265 30.6999 29.8641L34.2717 32.3359L30.4512 38.7665L26.6025 37.0973C26.247 37.4392 25.7989 37.7542 25.2583 38.0422C24.7177 38.3303 24.2111 38.5367 23.7384 38.6615L23.2154 42.9999H15.7757ZM19.4903 33.6102C21.0062 33.6102 22.2769 33.0989 23.3025 32.0763C24.3282 31.0536 24.841 29.7866 24.841 28.275C24.841 26.7635 24.3297 25.4949 23.3071 24.4692C22.2845 23.4436 21.0152 22.9308 19.4994 22.9308C17.9836 22.9308 16.715 23.4421 15.6936 24.4647C14.6723 25.4873 14.1616 26.7544 14.1616 28.266C14.1616 29.7775 14.6708 31.0461 15.6891 32.0717C16.7074 33.0974 17.9745 33.6102 19.4903 33.6102ZM19.4926 31.0974C18.6907 31.0974 18.0205 30.8255 17.482 30.2817C16.9436 29.7379 16.6743 29.0654 16.6743 28.2641C16.6743 27.4664 16.9436 26.7969 17.482 26.2556C18.0205 25.7142 18.6907 25.4435 19.4926 25.4435C20.2946 25.4435 20.9677 25.7148 21.5119 26.2573C22.0561 26.7998 22.3282 27.4708 22.3282 28.2702C22.3282 29.0695 22.0561 29.7406 21.5119 30.2833C20.9677 30.8261 20.2946 31.0974 19.4926 31.0974ZM17.9 40.4872H21.0897L21.4897 36.7923C22.4564 36.5393 23.3118 36.201 24.0558 35.7775C24.7998 35.354 25.4983 34.7923 26.1512 34.0923L29.4385 35.559L31.0051 32.9795L27.959 30.8179C28.2881 30.0239 28.4526 29.1748 28.4526 28.2705C28.4526 27.3662 28.2881 26.5171 27.959 25.7231L30.9667 23.5231L29.4385 20.9692L26.1512 22.4487C25.4983 21.7487 24.7998 21.1848 24.0558 20.757C23.3118 20.3293 22.4564 19.9944 21.4897 19.7525L21.0897 16.0538H17.9L17.5 19.7525C16.5333 19.9944 15.6801 20.3293 14.9404 20.757C14.2007 21.1848 13.499 21.7487 12.8355 22.4487L9.55129 20.9692L8.03589 23.5231L11.0308 25.7231C10.7017 26.5171 10.5355 27.3662 10.532 28.2705C10.5286 29.1748 10.6949 30.0239 11.0308 30.8179L7.99744 32.9795L9.55129 35.559L12.8355 34.0923C13.499 34.7923 14.2007 35.354 14.9404 35.7775C15.6801 36.201 16.5333 36.5393 17.5 36.7923L17.9 40.4872Z" fill="#B0B5BC"/>
</svg>
