<svg width="34" height="34" viewBox="0 0 34 34" fill="none" xmlns="http://www.w3.org/2000/svg">
<path d="M18.074 25.7414C17.7487 25.7414 17.4776 25.6314 17.261 25.4113C17.0443 25.1912 16.9359 24.9185 16.9359 24.5932C16.9359 24.2679 17.046 23.9969 17.266 23.7802C17.4861 23.5635 17.7588 23.4551 18.0841 23.4551C18.4095 23.4551 18.6805 23.5652 18.8972 23.7852C19.1139 24.0053 19.2222 24.278 19.2222 24.6033C19.2222 24.9286 19.1122 25.1997 18.8921 25.4163C18.672 25.633 18.3993 25.7414 18.074 25.7414ZM17.0321 21.5684V15.0235L19.126 17.1175V21.5684H17.0321ZM32.9272 26.7765L27.2137 21.0716L18.0034 5.18801L15.5395 9.39526L14.031 7.86968L18 1.0001L32.9272 26.7765ZM4.72862 28.0726H27.0813L12.937 13.9283L4.72862 28.0726ZM32.3258 33.3172L29.1752 30.1666H1.10908L11.4114 12.4027L0.658203 1.64956L2.1582 0.149597L33.8258 31.8172L32.3258 33.3172Z" fill="#998EE8"/>
</svg>
