<svg width="48" height="48" viewBox="0 0 48 48" fill="none" xmlns="http://www.w3.org/2000/svg">
<path d="M24.9031 33.7773C24.5499 33.7773 24.2558 33.6578 24.0206 33.419C23.7854 33.1801 23.6678 32.8841 23.6678 32.531C23.6678 32.1779 23.7872 31.8838 24.0261 31.6486C24.2649 31.4134 24.5609 31.2958 24.914 31.2958C25.2672 31.2958 25.5613 31.4152 25.7965 31.654C26.0317 31.8929 26.1493 32.1889 26.1493 32.542C26.1493 32.8951 26.0299 33.1893 25.791 33.4245C25.5521 33.6597 25.2562 33.7773 24.9031 33.7773ZM23.7722 29.2479V22.1441L26.0449 24.4169V29.2479H23.7722ZM41.0247 34.9008L34.8232 28.7086L24.8264 11.4687L22.1522 16.0352L20.5148 14.3794L24.8227 6.92313L41.0247 34.9008ZM10.418 36.3076H34.6795L19.3274 20.9554L10.418 36.3076ZM40.372 42L36.9523 38.5804H6.48938L17.6715 19.2995L6 7.62805L7.6281 6L42 40.372L40.372 42Z" fill="#B0B5BC"/>
</svg>
