<?xml version="1.0" encoding="utf-8"?>
<!-- Generator: Adobe Illustrator 27.1.1, SVG Export Plug-In . SVG Version: 6.00 Build 0)  -->
<svg version="1.1" id="레이어_1" xmlns="http://www.w3.org/2000/svg" xmlns:xlink="http://www.w3.org/1999/xlink" x="0px"
	 y="0px" viewBox="0 0 67 67" style="enable-background:new 0 0 67 67;" xml:space="preserve">
<style type="text/css">
	.st0{fill:#D9F8FF;}
	.st1{clip-path:url(#SVGID_00000167379541532602342290000003804072957599172267_);}
	.st2{fill:url(#SVGID_00000023260135400280608720000004529648657945477798_);}
	.st3{opacity:0.7;}
	.st4{fill:#FF9B00;}
	.st5{clip-path:url(#SVGID_00000060732398532089065640000013970329123509360801_);}
	.st6{fill:url(#SVGID_00000083790261722503217770000011493497535787637122_);stroke:#FCE3C7;stroke-miterlimit:10;}
	.st7{fill:url(#SVGID_00000013182182356226209750000014141299351069013166_);}
	.st8{fill:#FFD215;}
</style>
<circle class="st0" cx="33.5" cy="33.5" r="33.5"/>
<g>
	<g>
		<g>
			<g>
				<g>
					<g>
						<g>
							<defs>
								<path id="SVGID_1_" d="M16.9,13.6v41.3h35.9V13.6H16.9z M44.6,38.7L44.6,38.7L44.6,38.7C44,39.4,40,44.4,40,47.9h-5.1h-5.1
									c-0.1-3.4-4.1-8.5-4.7-9.1L25,38.7l0,0l0,0c-1.5-1.9-2.4-4.2-2.4-6.8c0-6.2,5.5-11.4,12.2-11.4S47,25.5,47,31.9
									C47,34.4,46.1,36.7,44.6,38.7L44.6,38.7z"/>
							</defs>
							<clipPath id="SVGID_00000137851263733147273560000010445378869329783224_">
								<use xlink:href="#SVGID_1_"  style="overflow:visible;"/>
							</clipPath>
							<g style="clip-path:url(#SVGID_00000137851263733147273560000010445378869329783224_);">
								
									<linearGradient id="SVGID_00000124873700950366698560000002900206436666258855_" gradientUnits="userSpaceOnUse" x1="34.8" y1="787.4871" x2="34.8" y2="835.5023" gradientTransform="matrix(1 0 0 1 0 -773.8898)">
									<stop  offset="0" style="stop-color:#FFBD00"/>
									<stop  offset="0.4088" style="stop-color:#FF9B00"/>
									<stop  offset="0.5058" style="stop-color:#FF9306"/>
									<stop  offset="0.6584" style="stop-color:#FF7D16"/>
									<stop  offset="0.8465" style="stop-color:#FF582F"/>
									<stop  offset="1" style="stop-color:#FF3548"/>
								</linearGradient>
								<path style="fill:url(#SVGID_00000124873700950366698560000002900206436666258855_);" d="M33.9,23.1v-6.7c0-0.6,0.5-1,1-1
									c0.6,0,1,0.5,1,1v6.7c0,0.6-0.5,1-1,1C34.3,24.1,33.9,23.7,33.9,23.1z M47.4,20.8c-0.4-0.4-1-0.4-1.4,0l-4.7,4.7
									c-0.4,0.4-0.4,1,0,1.4c0.2,0.2,0.5,0.3,0.7,0.3s0.5-0.1,0.7-0.3l4.7-4.7C47.8,21.8,47.8,21.1,47.4,20.8z M51.4,31.7
									c0-0.6-0.5-1-1-1h-6.7c-0.6,0-1,0.5-1,1c0,0.2,0.1,0.6,0.3,0.7c0.2,0.2,0.4,0.3,0.7,0.3h6.7C51,32.7,51.4,32.2,51.4,31.7z
									 M18.2,31.2c0,0.6,0.5,1,1,1h6.7c0.6,0,1-0.5,1-1c0-0.2-0.1-0.6-0.3-0.7c-0.2-0.2-0.4-0.3-0.7-0.3h-6.7
									C18.6,30.3,18.2,30.7,18.2,31.2z M28.3,25.2l-4.7-4.7c-0.4-0.4-1-0.4-1.4,0s-0.4,1,0,1.4l4.8,4.6c0.2,0.2,0.5,0.3,0.7,0.3
									s0.5-0.1,0.7-0.3C28.7,26.2,28.7,25.5,28.3,25.2z M41.7,46.6c-0.1,0.6-1,0.6-1.1,1.2c-0.1,0.6,1,0.8,0.9,1.4s-1,0.6-1.1,1.2
									s1,0.8,0.9,1.4H28.5c-0.1-0.6,1-0.8,0.9-1.4s-1-0.6-1.1-1.2s1-0.8,0.9-1.4s-1-0.6-1.1-1.2H41.7z"/>
								<g class="st3">
									<path class="st4" d="M30.2,47.2h9.3c0.3,0,0.6-0.2,0.6-0.6H29.6C29.6,46.9,29.9,47.2,30.2,47.2z"/>
									<path class="st4" d="M39.6,48.5h-9.4c-0.3,0-0.6,0.2-0.6,0.6s0.2,0.6,0.6,0.6h9.3c0.3,0,0.6-0.2,0.6-0.6
										C40.1,48.8,39.9,48.5,39.6,48.5z"/>
									<path class="st4" d="M39.6,51.3h-9.4c-0.3,0-0.6,0.2-0.6,0.6h10.5C40.1,51.6,39.9,51.3,39.6,51.3z"/>
								</g>
							</g>
						</g>
					</g>
				</g>
				<g>
					<g>
						<g>
							<defs>
								<path id="SVGID_00000114072308204719160950000014538734482509929104_" d="M44.6,38.7L44.6,38.7c1.5-1.9,2.4-4.2,2.4-6.8
									c0-6.2-5.5-11.4-12.2-11.4s-12.2,5-12.2,11.4c0,2.6,0.9,4.9,2.4,6.8l0,0l0,0l0.1,0.1c0.6,0.6,4.6,5.7,4.7,9.1h5.1H40
									C40,44.4,44,39.4,44.6,38.7L44.6,38.7L44.6,38.7z"/>
							</defs>
							<clipPath id="SVGID_00000052083782645199801230000012537778198115905463_">
								<use xlink:href="#SVGID_00000114072308204719160950000014538734482509929104_"  style="overflow:visible;"/>
							</clipPath>
							<g style="clip-path:url(#SVGID_00000052083782645199801230000012537778198115905463_);">
								
									<image style="overflow:visible;enable-background:new    ;" width="114" height="118" xlink:href="AFBF331EF647C717.png"  transform="matrix(0.8025 0 0 0.8011 -10.7446 -13.4768)">
								</image>
							</g>
						</g>
					</g>
				</g>
			</g>
			<g>
				<g>
					<g>
						
							<linearGradient id="SVGID_00000091011877270936622710000017528538101594697404_" gradientUnits="userSpaceOnUse" x1="34.8" y1="794.3898" x2="34.8" y2="821.7408" gradientTransform="matrix(1 0 0 1 0 -773.8898)">
							<stop  offset="0" style="stop-color:#FFFFFF;stop-opacity:0.9"/>
							<stop  offset="3.580426e-02" style="stop-color:#FFFFFF;stop-opacity:0.8492"/>
							<stop  offset="0.2822" style="stop-color:#FFFFFF;stop-opacity:0.5"/>
							<stop  offset="0.6525" style="stop-color:#FAFAFA;stop-opacity:0.3968"/>
							<stop  offset="1" style="stop-color:#EFEFEF;stop-opacity:0.3"/>
						</linearGradient>
						
							<path style="fill:url(#SVGID_00000091011877270936622710000017528538101594697404_);stroke:#FCE3C7;stroke-miterlimit:10;" d="
							M44.6,38.7L44.6,38.7c1.5-1.9,2.4-4.2,2.4-6.8c0-6.2-5.5-11.4-12.2-11.4s-12.2,5-12.2,11.4c0,2.6,0.9,4.9,2.4,6.8l0,0l0,0
							l0.1,0.1c0.6,0.6,4.6,5.7,4.7,9.1h5.1H40C40,44.4,44,39.4,44.6,38.7L44.6,38.7L44.6,38.7z"/>
						<g>
							
								<linearGradient id="SVGID_00000181807817922402140510000003005347799467847055_" gradientUnits="userSpaceOnUse" x1="34.85" y1="822.5529" x2="34.85" y2="793.5997" gradientTransform="matrix(1 0 0 1 0 -773.8898)">
								<stop  offset="0" style="stop-color:#FFFFFF;stop-opacity:0.9"/>
								<stop  offset="0.2822" style="stop-color:#FFFFFF;stop-opacity:0.5"/>
								<stop  offset="0.6525" style="stop-color:#FAFAFA;stop-opacity:0.3968"/>
								<stop  offset="1" style="stop-color:#EFEFEF;stop-opacity:0.3"/>
							</linearGradient>
							<path style="fill:url(#SVGID_00000181807817922402140510000003005347799467847055_);" d="M34.8,20.5c6.7,0,12.2,5,12.2,11.4
								c0,2.6-0.9,4.9-2.4,6.8l0,0l0,0l-0.1,0.1c-0.6,0.6-4.6,5.7-4.7,9.1h-5.1h-5.1c-0.1-3.4-4.1-8.5-4.7-9.1l-0.1-0.1l0,0l0,0
								c-1.5-1.9-2.4-4.2-2.4-6.8C22.6,25.6,28.1,20.5,34.8,20.5 M34.8,19.7c-7.1,0-13,5.4-13,12.2c0,2.6,0.9,5.1,2.6,7.3l0,0l0,0
								c1.7,2,4.4,6.1,4.5,8.7c0,0.4,0.4,0.8,0.8,0.8h5.1H40c0.4,0,0.8-0.3,0.8-0.8c0-2.6,2.8-6.6,4.4-8.7l0.1-0.1l0,0l0,0l0,0l0,0
								c1.7-2.2,2.6-4.6,2.6-7.3C47.8,25.1,42,19.7,34.8,19.7L34.8,19.7z"/>
						</g>
					</g>
					<path class="st8" d="M38.7,38.6L38.7,38.6C38.4,38.5,38,38.8,38,39l-0.1,0.2c-0.4,0.2-0.6,0.5-0.8,0.8
						c-0.2,0.4-0.4,0.6-0.6,0.6c-0.2,0-0.4-0.2-0.6-0.6c-0.2-0.4-0.5-0.9-1-0.9c-0.6,0-0.9,0.5-1,0.9c-0.2,0.4-0.4,0.6-0.6,0.6
						c-0.2,0-0.4-0.2-0.6-0.6c-0.2-0.3-0.4-0.7-0.8-0.8L31.5,39c-0.1-0.3-0.4-0.5-0.7-0.4s-0.5,0.4-0.4,0.7l1.6,7.3h1.2l-1.4-6.5
						c0.1,0.1,0.1,0.2,0.2,0.3c0.2,0.4,0.5,0.9,1,0.9s0.9-0.5,1-0.9c0.2-0.4,0.4-0.6,0.6-0.6c0.2,0,0.4,0.2,0.6,0.6
						c0.2,0.4,0.5,0.9,1,0.9c0.6,0,0.9-0.5,1-0.9c0.1-0.1,0.2-0.2,0.2-0.3l-1.2,6.5h1.2l1.6-7.3C39.2,39,39,38.7,38.7,38.6z"/>
				</g>
			</g>
		</g>
	</g>
</g>
</svg>
