<svg width="60" height="60" viewBox="0 0 60 60" fill="none" xmlns="http://www.w3.org/2000/svg">
<circle cx="30" cy="30" r="30" fill="#F7F5F7"/>
<path d="M22.3292 28.3613H17.2156C16.7449 28.3613 16.3633 28.6947 16.3633 29.1058V41.7626C16.3633 42.1737 16.7449 42.5071 17.2156 42.5071H22.3292C22.7999 42.5071 23.1815 42.1737 23.1815 41.7626V29.1058C23.1815 28.6947 22.7999 28.3613 22.3292 28.3613Z" fill="#5DDEFB"/>
<path d="M32.5575 17.0449H27.4457C26.9752 17.0449 26.5938 17.438 26.5938 17.9229V41.6292C26.5938 42.1142 26.9752 42.5072 27.4457 42.5072H32.5575C33.028 42.5072 33.4095 42.1142 33.4095 41.6292V17.9229C33.4095 17.438 33.028 17.0449 32.5575 17.0449Z" fill="#2F83F7"/>
<path d="M42.7823 23.4102H37.6687C37.198 23.4102 36.8164 23.8602 36.8164 24.4152V41.5018C36.8164 42.0569 37.198 42.5069 37.6687 42.5069H42.7823C43.253 42.5069 43.6346 42.0569 43.6346 41.5018V24.4152C43.6346 23.8602 43.253 23.4102 42.7823 23.4102Z" fill="#1F6CD8"/>
</svg>
