<?xml version="1.0" encoding="utf-8"?>
<!-- Generator: Adobe Illustrator 27.1.1, SVG Export Plug-In . SVG Version: 6.00 Build 0)  -->
<svg version="1.1" id="레이어_1" xmlns="http://www.w3.org/2000/svg" xmlns:xlink="http://www.w3.org/1999/xlink" x="0px"
	 y="0px" viewBox="0 0 80.4 80.4" style="enable-background:new 0 0 80.4 80.4;" xml:space="preserve">
<style type="text/css">
	.st0{fill:#F7F5F7;}
	.st1{fill:#2F83F7;stroke:#2F83F7;}
	.st2{fill:none;stroke:#F5B029;stroke-width:3;stroke-linecap:round;stroke-linejoin:round;}
</style>
<circle class="st0" cx="40.7" cy="40.2" r="39.7"/>
<path class="st1" d="M61.3,40.2c0,4.4-1.3,8.7-3.7,12.2c-2.3,3.7-5.9,6.5-9.8,8.1c-4.1,1.8-8.5,2.2-12.8,1.3
	c-4.3-0.9-8.2-2.9-11.3-6c-3.1-3.1-5.1-7-6-11.3c-0.9-4.3-0.4-8.7,1.2-12.6c1.6-4,4.5-7.5,8.1-9.8c3.7-2.5,7.9-3.8,12.3-3.8v22H61.3
	z"/>
<path class="st2" d="M46.3,29.1h16.2"/>
<path class="st2" d="M46.3,23.4h10.6"/>
<path class="st2" d="M46.3,34.7h5.3"/>
</svg>
