<?xml version="1.0" encoding="utf-8"?>
<!-- Generator: Adobe Illustrator 27.0.1, SVG Export Plug-In . SVG Version: 6.00 Build 0)  -->
<svg version="1.1" id="레이어_1" xmlns="http://www.w3.org/2000/svg" xmlns:xlink="http://www.w3.org/1999/xlink" x="0px"
	 y="0px" viewBox="0 0 27 26" style="enable-background:new 0 0 27 26;" xml:space="preserve">
<style type="text/css">
	.st0{clip-path:url(#SVGID_00000073719161828877205680000003924565550985866673_);}
	.st1{fill:#F4DF2C;}
</style>
<g>
	<g>
		<defs>
			<rect id="SVGID_1_" width="27" height="26"/>
		</defs>
		<clipPath id="SVGID_00000142145053487918783070000000954303567868503959_">
			<use xlink:href="#SVGID_1_"  style="overflow:visible;"/>
		</clipPath>
		<g style="clip-path:url(#SVGID_00000142145053487918783070000000954303567868503959_);">
			<path class="st1" d="M0,13c0,7.2,6.1,13,13.5,13h12.7c0.3,0,0.6-0.2,0.7-0.4c0.1-0.3,0.1-0.6-0.1-0.9L24,21.1
				c1.9-2.3,3-5.1,3-8.1c0-7.2-6.1-13-13.5-13S0,5.8,0,13z M17.5,13c0-0.8,0.7-1.5,1.6-1.5s1.6,0.7,1.6,1.5c0,0.8-0.7,1.5-1.6,1.5
				C18.2,14.5,17.5,13.8,17.5,13z M11.9,13c0-0.8,0.7-1.5,1.6-1.5s1.6,0.7,1.6,1.5s-0.7,1.5-1.6,1.5S11.9,13.8,11.9,13z M6.3,13
				c0-0.8,0.7-1.5,1.6-1.5s1.6,0.7,1.6,1.5s-0.7,1.5-1.6,1.5C7.1,14.5,6.3,13.8,6.3,13z"/>
		</g>
	</g>
</g>
</svg>
