<svg width="56" height="56" viewBox="0 0 56 56" fill="none" xmlns="http://www.w3.org/2000/svg">
<path d="M28 4.66663L6.99996 4.66663C5.7113 4.66663 4.66663 5.71129 4.66663 6.99996L4.66663 49C4.66663 50.2886 5.71129 51.3333 6.99996 51.3333H49C50.2886 51.3333 51.3333 50.2886 51.3333 49V28" stroke="#333333" stroke-width="2.33333" stroke-linecap="round" stroke-linejoin="round"/>
<path fill-rule="evenodd" clip-rule="evenodd" d="M17.5 27.5995C17.5 25.4336 18.3604 23.3564 19.892 21.8248L38.2169 3.49994L7 3.49994C5.067 3.49994 3.5 5.06694 3.5 6.99994L3.5 48.9999C3.5 50.9329 5.067 52.4999 7 52.4999H49C50.933 52.4999 52.5 50.9329 52.5 48.9999V17.783L34.1751 36.1079C32.6435 37.6395 30.5663 38.4999 28.4004 38.4999H21C19.067 38.4999 17.5 36.9329 17.5 34.9999V27.5995ZM19.8334 27.5995C19.8334 26.0524 20.4479 24.5687 21.5419 23.4747L21.5419 23.4747C20.448 24.5687 19.8334 26.0524 19.8334 27.5995L19.8334 34.9999V27.5995Z" fill="#00D5E2"/>
<path fill-rule="evenodd" clip-rule="evenodd" d="M38.8417 7.82491L38.0167 6.99994L21.5419 23.4748C20.448 24.5687 19.8334 26.0525 19.8334 27.5996V34.9999C19.8334 35.6442 20.3557 36.1666 21 36.1666H28.4004C29.9475 36.1666 31.4312 35.552 32.5252 34.458L49 17.9832L48.175 17.1582L48.1787 17.1546L38.8453 7.82126L38.8417 7.82491Z" fill="#FFDD64"/>
<path d="M41.8589 3.17708C43.2257 1.81025 45.4418 1.81025 46.8086 3.17708L52.8223 9.19075C54.1891 10.5576 54.1891 12.7737 52.8223 14.1405L50.6987 16.2641L39.7353 5.30066L41.8589 3.17708Z" fill="#3A95FF"/>
</svg>
