<?xml version="1.0" encoding="utf-8"?>
<!-- Generator: Adobe Illustrator 27.0.1, SVG Export Plug-In . SVG Version: 6.00 Build 0)  -->
<svg version="1.1" id="레이어_1" xmlns="http://www.w3.org/2000/svg" xmlns:xlink="http://www.w3.org/1999/xlink" x="0px"
	 y="0px" viewBox="0 0 56 56" style="enable-background:new 0 0 56 56;" xml:space="preserve">
<style type="text/css">
	.st0{clip-path:url(#SVGID_00000029730415412052071100000007496140100240472484_);}
	.st1{fill-rule:evenodd;clip-rule:evenodd;fill:#00D5E2;}
	.st2{fill:#2F83F7;stroke:#2F83F7;stroke-width:0.9333;stroke-linecap:round;}
	.st3{fill:#2F83F7;stroke:#2F83F7;stroke-width:0.9333;stroke-linejoin:round;}
</style>
<g>
	<defs>
		<rect id="SVGID_1_" x="1.8" y="1.8" width="52.5" height="52.5"/>
	</defs>
	<clipPath id="SVGID_00000155866878013451429260000015337623349407681425_">
		<use xlink:href="#SVGID_1_"  style="overflow:visible;"/>
	</clipPath>
	<g style="clip-path:url(#SVGID_00000155866878013451429260000015337623349407681425_);">
		<path class="st1" d="M28.4,46.1c9.6,0,17.4-7.8,17.4-17.4S38,11.3,28.4,11.3c-9.6,0-17.4,7.8-17.4,17.4S18.8,46.1,28.4,46.1z
			 M28,2C13.6,2,2,13.6,2,28s11.6,26,26,26s26-11.6,26-26S42.4,2,28,2z"/>
		<path class="st2" d="M33.2,25.5c0,2.3-1.9,4.2-4.2,4.2c-2.3,0-4.2-1.9-4.2-4.2s1.9-4.2,4.2-4.2C31.3,21.4,33.2,23.2,33.2,25.5z"/>
		<path class="st3" d="M36.5,42.2c0-1.1-0.2-2.2-0.6-3.2c-0.4-1-0.9-1.9-1.6-2.7c-0.7-0.8-1.5-1.4-2.4-1.8C31,34.1,30,33.9,29,33.9
			c-1,0-2,0.2-2.9,0.6c-0.9,0.4-1.7,1-2.4,1.8C23,37.1,22.4,38,22.1,39c-0.4,1-0.6,2.1-0.6,3.2H36.5z"/>
	</g>
</g>
</svg>
