<?xml version="1.0" encoding="utf-8"?>
<!-- Generator: Adobe Illustrator 27.0.1, SVG Export Plug-In . SVG Version: 6.00 Build 0)  -->
<svg version="1.1" id="레이어_1" xmlns="http://www.w3.org/2000/svg" xmlns:xlink="http://www.w3.org/1999/xlink" x="0px"
	 y="0px" viewBox="0 0 56 56" style="enable-background:new 0 0 56 56;" xml:space="preserve">
<style type="text/css">
	.st0{fill:#00D5E2;stroke:#00D5E2;stroke-width:2.3333;}
	.st1{fill:#FFFFFF;stroke:#FFFFFF;stroke-width:1.1667;stroke-linecap:round;}
	.st2{fill:#FFFFFF;stroke:#FFFFFF;stroke-width:1.1667;stroke-linejoin:round;}
</style>
<path class="st0" d="M8.9,4.7h38.1c2.3,0,4.2,1.6,4.2,3.5v39.7c0,1.9-1.9,3.5-4.2,3.5H8.9c-2.3,0-4.2-1.6-4.2-3.5V8.2
	C4.7,6.2,6.6,4.7,8.9,4.7z"/>
<path class="st1" d="M35.6,23.3c0,4.2-3.4,7.6-7.6,7.6c-4.2,0-7.6-3.4-7.6-7.6c0-4.2,3.4-7.6,7.6-7.6C32.2,15.7,35.6,19.1,35.6,23.3
	z"/>
<path class="st2" d="M41.7,46.1c0-2-0.4-4-1-5.8c-0.7-1.8-1.7-3.5-3-4.9c-1.3-1.4-2.8-2.5-4.4-3.3c-1.7-0.8-3.4-1.2-5.2-1.2
	s-3.6,0.4-5.2,1.2c-1.7,0.8-3.2,1.9-4.4,3.3c-1.3,1.4-2.3,3.1-3,4.9c-0.7,1.8-1,3.8-1,5.8L41.7,46.1z"/>
</svg>
