<?xml version="1.0" encoding="utf-8"?>
<!-- Generator: Adobe Illustrator 27.0.1, SVG Export Plug-In . SVG Version: 6.00 Build 0)  -->
<svg version="1.1" id="레이어_1" xmlns="http://www.w3.org/2000/svg" xmlns:xlink="http://www.w3.org/1999/xlink" x="0px"
	 y="0px" viewBox="0 0 56 56" style="enable-background:new 0 0 56 56;" xml:space="preserve">
<style type="text/css">
	.st0{fill-rule:evenodd;clip-rule:evenodd;fill:#B9BABA;}
	.st1{fill-rule:evenodd;clip-rule:evenodd;fill:#2F83F7;}
	.st2{fill:#FFFFFF;}
</style>
<path class="st0" d="M8.2,7c0-1.9,1.6-3.5,3.5-3.5h32.7c1.9,0,3.5,1.6,3.5,3.5v3.5h-4.7c-1.3,0-2.3,1-2.3,2.3v4.7H15.2v-4.7
	c0-1.3-1-2.3-2.3-2.3H8.2V7z M46.7,12.8h-3.5v3.5c0,0,0,0,0,0v-3.5H46.7C46.7,12.8,46.7,12.8,46.7,12.8z M39.7,19.8H16.3
	c0,0,0,0,0,0H39.7C39.7,19.8,39.7,19.8,39.7,19.8z M12.8,12.8H9.3c0,0,0,0,0,0H12.8L12.8,12.8z"/>
<path class="st1" d="M7,12.8c-1.9,0-3.5,1.6-3.5,3.5V49c0,1.9,1.6,3.5,3.5,3.5h42c1.9,0,3.5-1.6,3.5-3.5V16.3c0-1.9-1.6-3.5-3.5-3.5
	h-4.7c-0.6,0-1.2,0.5-1.2,1.2v4.7c0,0.6-0.5,1.2-1.2,1.2H14c-0.6,0-1.2-0.5-1.2-1.2V14c0-0.6-0.5-1.2-1.2-1.2H7z"/>
<path class="st2" d="M15.6,24.3h26.1c1,0,1.9,0.8,1.9,1.9l0,0c0,1-0.8,1.9-1.9,1.9H15.6c-1,0-1.9-0.8-1.9-1.9l0,0
	C13.7,25.1,14.6,24.3,15.6,24.3z"/>
</svg>
