<?xml version="1.0" encoding="utf-8"?>
<!-- Generator: Adobe Illustrator 27.0.1, SVG Export Plug-In . SVG Version: 6.00 Build 0)  -->
<svg version="1.1" id="레이어_1" xmlns="http://www.w3.org/2000/svg" xmlns:xlink="http://www.w3.org/1999/xlink" x="0px"
	 y="0px" viewBox="0 0 56 56" style="enable-background:new 0 0 56 56;" xml:space="preserve">
<style type="text/css">
	.st0{fill-rule:evenodd;clip-rule:evenodd;fill:#2F83F7;}
	.st1{fill-rule:evenodd;clip-rule:evenodd;fill:#0E9BBD;}
	.st2{fill-rule:evenodd;clip-rule:evenodd;fill:#0E9BBD;stroke:#FFFFFF;stroke-width:3;stroke-miterlimit:10;}
</style>
<path class="st0" d="M21,5.8c-0.6,0-1.2,0.5-1.2,1.2v7c0,0.6-0.5,1.2-1.2,1.2c-0.6,0-1.2-0.5-1.2-1.2V7c0-1.9,1.6-3.5,3.5-3.5h14
	c1.9,0,3.5,1.6,3.5,3.5v7c0,0.6-0.5,1.2-1.2,1.2c-0.6,0-1.2-0.5-1.2-1.2V7c0-0.6-0.5-1.2-1.2-1.2H21z"/>
<path class="st0" d="M19.8,27.7v3.8H3.5V15.3c0-1.4,1.1-2.5,2.5-2.5H50c1.4,0,2.5,1.1,2.5,2.5v16.2H36.2v-3.8c0-0.5-0.4-0.8-0.8-0.8
	H20.7C20.2,26.8,19.8,27.2,19.8,27.7z"/>
<path class="st1" d="M19.8,33.8H3.5V50c0,1.4,1.1,2.5,2.5,2.5H50c1.4,0,2.5-1.1,2.5-2.5V33.8H36.2v3.8c0,0.5-0.4,0.8-0.8,0.8H20.7
	c-0.5,0-0.8-0.4-0.8-0.8V33.8z"/>
<circle class="st2" cx="28" cy="32.6" r="8.3"/>
</svg>
