<?xml version="1.0" encoding="utf-8"?>
<!-- Generator: Adobe Illustrator 27.0.1, SVG Export Plug-In . SVG Version: 6.00 Build 0)  -->
<svg version="1.1" id="레이어_1" xmlns="http://www.w3.org/2000/svg" xmlns:xlink="http://www.w3.org/1999/xlink" x="0px"
	 y="0px" viewBox="0 0 56 56" style="enable-background:new 0 0 56 56;" xml:space="preserve">
<style type="text/css">
	.st0{fill:#F5B11C;}
	.st1{fill:#0B5CAA;}
</style>
<path class="st0" d="M19.7,6.8c-0.1,0-10.8,0-12.8,0c-2,0-3.2,1.8-3.3,3.3c-0.1,1.5,0,10.7,0,10.7h49c0,0,0-2.3,0-3.8
	c0-1.5-1.7-3.2-3.3-3.2c-1.6,0-19.8,0-20,0h0h0c-0.6,0-0.7-0.1-1.2-0.6l-5.9-5.9C21.7,6.8,20.3,6.8,19.7,6.8L19.7,6.8z"/>
<path class="st1" d="M5.8,19h44.4c1.3,0,2.3,1,2.3,2.3v27.6c0,2-1.6,3.6-3.5,3.6H7c-1.9,0-3.5-1.6-3.5-3.6V21.3
	C3.5,20.1,4.5,19,5.8,19z"/>
</svg>
