<svg width="56" height="56" viewBox="0 0 56 56" fill="none" xmlns="http://www.w3.org/2000/svg">
<path d="M51.8826 28C51.8826 32.7235 50.482 37.3409 47.8577 41.2684C45.2335 45.1958 41.5036 48.2568 37.1397 50.0644C32.7757 51.872 27.9738 52.345 23.3411 51.4235C18.7083 50.502 14.4529 48.2274 11.1129 44.8874C7.77289 41.5474 5.49832 37.292 4.57681 32.6592C3.65531 28.0265 4.12826 23.2246 5.93586 18.8606C7.74345 14.4967 10.8045 10.7668 14.7319 8.14257C18.6594 5.51834 23.2768 4.11766 28.0003 4.11766L28.0003 28H51.8826Z" fill="#00D5E2" stroke="#00D5E2" stroke-width="2.17112"/>
<path d="M36.6846 6.28876H51.8824" stroke="#2F83F7" stroke-width="2.8" stroke-linecap="round" stroke-linejoin="round"/>
<path d="M36.6846 12.8021H51.8824" stroke="#2F83F7" stroke-width="2.8" stroke-linecap="round" stroke-linejoin="round"/>
<path d="M36.6846 19.3155H51.8824" stroke="#2F83F7" stroke-width="2.8" stroke-linecap="round" stroke-linejoin="round"/>
</svg>
