<svg width="56" height="56" viewBox="0 0 56 56" fill="none" xmlns="http://www.w3.org/2000/svg">
<rect x="4.66667" y="30.3334" width="46.6667" height="21" rx="2.33333" stroke="#2F83F7" stroke-width="2.33333"/>
<rect x="4.66675" y="30.3333" width="46.6667" height="21" rx="2.33333" fill="#2F83F7"/>
<rect x="4.66667" y="4.66667" width="46.6667" height="21" rx="2.33333" stroke="#00D5E2" stroke-width="2.33333"/>
<rect x="4.66675" y="4.66669" width="46.6667" height="21" rx="2.33333" fill="#00D5E2"/>
<path fill-rule="evenodd" clip-rule="evenodd" d="M35.825 10.8417C36.2807 11.2973 36.2807 12.036 35.825 12.4916L28.825 19.4916C28.3694 19.9472 27.6307 19.9472 27.1751 19.4916L22.5085 14.825C22.0528 14.3693 22.0528 13.6307 22.5085 13.175C22.9641 12.7194 23.7028 12.7194 24.1584 13.175L28.0001 17.0168L34.1751 10.8417C34.6307 10.3861 35.3694 10.3861 35.825 10.8417Z" fill="white"/>
<path fill-rule="evenodd" clip-rule="evenodd" d="M35.825 36.5084C36.2807 36.964 36.2807 37.7027 35.825 38.1583L28.825 45.1583C28.3694 45.6139 27.6307 45.6139 27.1751 45.1583L22.5085 40.4916C22.0528 40.036 22.0528 39.2973 22.5085 38.8417C22.9641 38.3861 23.7028 38.3861 24.1584 38.8417L28.0001 42.6834L34.1751 36.5084C34.6307 36.0528 35.3694 36.0528 35.825 36.5084Z" fill="white"/>
</svg>
