<?xml version="1.0" encoding="utf-8"?>
<!-- Generator: Adobe Illustrator 27.0.1, SVG Export Plug-In . SVG Version: 6.00 Build 0)  -->
<svg version="1.1" id="레이어_1" xmlns="http://www.w3.org/2000/svg" xmlns:xlink="http://www.w3.org/1999/xlink" x="0px"
	 y="0px" viewBox="0 0 56 56" style="enable-background:new 0 0 56 56;" xml:space="preserve">
<style type="text/css">
	.st0{fill:#FFDD64;stroke:#FFDD64;stroke-width:2.3333;stroke-linejoin:round;}
	.st1{fill:#00D5E2;stroke:#00D5E2;stroke-width:2.3333;stroke-linejoin:round;}
	.st2{fill:#2F83F7;stroke:#2F83F7;stroke-width:2.3333;stroke-linejoin:round;}
</style>
<path class="st0" d="M4.7,42.8c0-0.6,0.6-1.1,1.2-1.1h8.7c0.7,0,1.2,0.5,1.2,1.1v7.4c0,0.6-0.6,1.1-1.2,1.1H5.9
	c-0.7,0-1.2-0.5-1.2-1.1V42.8z"/>
<path class="st1" d="M4.7,6.9c0-1.2,1.6-2.2,3.6-2.2h25.5c2,0,3.6,1,3.6,2.2v15.4c0,1.2-1.6,2.2-3.6,2.2H8.3c-2,0-3.6-1-3.6-2.2V6.9
	z"/>
<path class="st2" d="M41.6,5.7c0-0.6,0.5-1.1,1.1-1.1h7.6c0.6,0,1.1,0.5,1.1,1.1v7.6c0,0.6-0.5,1.1-1.1,1.1h-7.6
	c-0.6,0-1.1-0.5-1.1-1.1V5.7z"/>
<path class="st1" d="M20.5,30.9c0-1.4,1.5-2.6,3.4-2.6h23.9c1.9,0,3.4,1.1,3.4,2.6v17.9c0,1.4-1.5,2.6-3.4,2.6H24
	c-1.9,0-3.4-1.1-3.4-2.6V30.9z"/>
<path class="st2" d="M4.7,29.5c0-0.6,0.6-1.1,1.2-1.1h8.7c0.7,0,1.2,0.5,1.2,1.1V37c0,0.6-0.6,1.1-1.2,1.1H5.9
	c-0.7,0-1.2-0.5-1.2-1.1V29.5z"/>
<path class="st0" d="M41.8,18.4c0-0.5,0.5-0.9,1-0.9h7.2c0.6,0,1,0.4,1,0.9v6c0,0.5-0.5,0.9-1,0.9h-7.2c-0.6,0-1-0.4-1-0.9V18.4z"/>
</svg>
