<?xml version="1.0" encoding="utf-8"?>
<!-- Generator: Adobe Illustrator 27.0.1, SVG Export Plug-In . SVG Version: 6.00 Build 0)  -->
<svg version="1.1" id="레이어_1" xmlns="http://www.w3.org/2000/svg" xmlns:xlink="http://www.w3.org/1999/xlink" x="0px"
	 y="0px" viewBox="0 0 68 68" style="enable-background:new 0 0 68 68;" xml:space="preserve">
<style type="text/css">
	.st0{fill:#2F83F7;}
	.st1{fill:#2ABCEE;}
	.st2{fill:#B0F1FF;}
</style>
<circle class="st0" cx="34" cy="34" r="34"/>
<path class="st1" d="M31.6,41.3l10.3-18l1.5-2.6c0.6-1.1,1.6-1.1,2.2,0l1.4,2.6l10,18.2l3.7,6.8c0,0.1-0.1,0.2-0.1,0.2
	c-0.4,0.7-1,1.2-1.7,1.2l-29.4-0.3c-0.6,0-1.2-0.4-1.6-1.2c0-0.1-0.1-0.2-0.1-0.2L31.6,41.3L31.6,41.3z"/>
<path class="st2" d="M16.1,45.2l5.4-9.5l0.8-1.4c0.3-0.6,0.8-0.6,1.2,0l0.8,1.4l5.3,9.6l2,3.6c0,0,0,0.1-0.1,0.1
	c-0.2,0.4-0.5,0.6-0.9,0.6L15,49.6c-0.3,0-0.6-0.2-0.9-0.6c0,0,0-0.1-0.1-0.1L16.1,45.2L16.1,45.2z"/>
</svg>
