<?xml version="1.0" encoding="utf-8"?>
<!-- Generator: Adobe Illustrator 27.0.1, SVG Export Plug-In . SVG Version: 6.00 Build 0)  -->
<svg version="1.1" id="레이어_1" xmlns="http://www.w3.org/2000/svg" xmlns:xlink="http://www.w3.org/1999/xlink" x="0px"
	 y="0px" viewBox="0 0 69 69" style="enable-background:new 0 0 69 69;" xml:space="preserve">
<style type="text/css">
	.st0{fill:#F7F5F7;}
	.st1{fill-rule:evenodd;clip-rule:evenodd;fill:#2F83F7;}
	.st2{fill:none;stroke:#FFFFFF;stroke-width:3;stroke-miterlimit:10;}
</style>
<circle class="st0" cx="34.5" cy="34.5" r="34.5"/>
<path class="st1" d="M19.7,19.7c-1.3,0-2.4,1.1-2.4,2.5v20.5c0,1.4,1.1,2.5,2.4,2.5h2.4v5.8c0,0.3,0.2,0.6,0.5,0.8
	c0.3,0.1,0.6,0.1,0.9-0.2l6.2-6.3h19c1.3,0,2.4-1.1,2.4-2.5V22.2c0-1.4-1.1-2.5-2.4-2.5H19.7z"/>
<line class="st2" x1="21.7" y1="26.5" x2="45.1" y2="26.3"/>
<line class="st2" x1="21.7" y1="32" x2="41.2" y2="31.8"/>
<line class="st2" x1="21.8" y1="37.6" x2="32.2" y2="37.5"/>
</svg>
