<?xml version="1.0" encoding="utf-8"?>
<!-- Generator: Adobe Illustrator 27.0.1, SVG Export Plug-In . SVG Version: 6.00 Build 0)  -->
<svg version="1.1" id="레이어_1" xmlns="http://www.w3.org/2000/svg" xmlns:xlink="http://www.w3.org/1999/xlink" x="0px"
	 y="0px" viewBox="0 0 86 86" style="enable-background:new 0 0 86 86;" xml:space="preserve">
<style type="text/css">
	.st0{fill:#2F83F7;}
	.st1{fill:#FFFFFF;}
	.st2{fill:#FFFFFF;stroke:#378DCD;stroke-miterlimit:10;}
</style>
<circle class="st0" cx="43" cy="43" r="43"/>
<path class="st1" d="M56.3,32.7c0-0.2,0-0.4,0-0.7c0-8.1-6.6-14.6-14.8-14.6c-7,0-12.9,4.8-14.4,11.3c-1.4-0.4-2.9-0.7-4.4-0.7
	c-8.2,0-14.8,6.5-14.8,14.6s6.6,14.6,14.8,14.6c0,0,0,0,0,0h32.5c6.9,0,12.5-5.5,12.5-12.4C67.6,38.5,62.6,33.2,56.3,32.7L56.3,32.7
	z"/>
<path class="st2" d="M70.9,46.1c0-0.1,0-0.3,0-0.4c0-4.6-3.8-8.4-8.5-8.4c-4,0-7.4,2.8-8.3,6.5c-0.8-0.2-1.7-0.4-2.6-0.4
	c-4.7,0-8.5,3.8-8.5,8.4s3.8,8.4,8.5,8.4c0,0,0,0,0,0h18.7c4,0,7.2-3.2,7.2-7.1C77.4,49.5,74.6,46.5,70.9,46.1L70.9,46.1z"/>
</svg>
