<svg width="55" height="55" viewBox="0 0 55 55" fill="none" xmlns="http://www.w3.org/2000/svg">
<circle cx="27.5" cy="27.5" r="27.5" fill="#F7F5F7"/>
<path d="M20.4688 25.9979H15.7813C15.3498 25.9979 15 26.3035 15 26.6804V38.2824C15 38.6593 15.3498 38.9649 15.7813 38.9649H20.4688C20.9002 38.9649 21.25 38.6593 21.25 38.2824V26.6804C21.25 26.3035 20.9002 25.9979 20.4688 25.9979Z" fill="#5DDEFB"/>
<path d="M29.8418 15.6246H25.156C24.7247 15.6246 24.375 15.985 24.375 16.4295V38.1603C24.375 38.6048 24.7247 38.9651 25.156 38.9651H29.8418C30.2731 38.9651 30.6227 38.6048 30.6227 38.1603V16.4295C30.6227 15.985 30.2731 15.6246 29.8418 15.6246Z" fill="#2F83F7"/>
<path d="M39.2188 21.4596H34.5313C34.0998 21.4596 33.75 21.8721 33.75 22.3809V38.0436C33.75 38.5525 34.0998 38.9649 34.5313 38.9649H39.2188C39.6502 38.9649 40 38.5525 40 38.0436V22.3809C40 21.8721 39.6502 21.4596 39.2188 21.4596Z" fill="#1F6CD8"/>
</svg>
