<?xml version="1.0" encoding="utf-8"?>
<!-- Generator: Adobe Illustrator 27.0.1, SVG Export Plug-In . SVG Version: 6.00 Build 0)  -->
<svg version="1.1" id="레이어_1" xmlns="http://www.w3.org/2000/svg" xmlns:xlink="http://www.w3.org/1999/xlink" x="0px"
	 y="0px" viewBox="0 0 66 66" style="enable-background:new 0 0 66 66;" xml:space="preserve">
<style type="text/css">
	.st0{fill:#F7F5F7;}
	.st1{fill:#00D5E2;}
	.st2{fill:#0469A9;}
</style>
<circle class="st0" cx="33" cy="33" r="33"/>
<path class="st1" d="M23.5,21h-6.3c-0.4,0-0.6,1.2-0.6,2.7v23.8c0,1.5,0.3,2.7,0.6,2.7h6.3c0.4,0,0.6-1.2,0.6-2.7V23.7
	C24.1,22.2,23.8,21,23.5,21z"/>
<path class="st1" d="M36.5,28.8h-6.3c-0.4,0-0.6,0.9-0.6,2v17.5c0,1.1,0.3,2,0.6,2h6.3c0.4,0,0.6-0.9,0.6-2V30.8
	C37.1,29.7,36.8,28.8,36.5,28.8z"/>
<path class="st2" d="M48.6,33h-6.3c-0.4,0-0.6,0.7-0.6,1.6v14.1c0,0.9,0.3,1.6,0.6,1.6h6.3c0.4,0,0.6-0.7,0.6-1.6V34.6
	C49.3,33.7,49,33,48.6,33z"/>
</svg>
