<svg width="63" height="63" viewBox="0 0 63 63" fill="none" xmlns="http://www.w3.org/2000/svg">
<circle cx="31.5" cy="31.5" r="31.5" fill="#F7F5F7"/>
<path d="M37.7222 34.7293C41.3413 29.4101 39.9568 22.1325 34.6299 18.4743C29.303 14.816 22.0509 16.1625 18.4318 21.4816C14.8127 26.8008 16.1972 34.0784 21.5241 37.7366C26.851 41.3949 34.1031 40.0485 37.7222 34.7293Z" fill="#FFD15A"/>
<path d="M39.7241 29.2231L24.5195 39.2504L30.8481 42.9086L40.9845 36.2238L39.7241 29.2231Z" fill="#FFD15A"/>
<path d="M35.7824 40.2134L31.9258 34.3655" stroke="white" stroke-width="2.5" stroke-miterlimit="10" stroke-linecap="round"/>
<path d="M32.9878 29.1898L31.9258 34.3656L26.75 33.3036" stroke="white" stroke-width="2.5" stroke-miterlimit="10" stroke-linecap="round"/>
<path d="M30.8477 42.9089L40.984 36.2241L43.8337 40.5451C44.5331 41.6055 44.2418 43.0263 43.1944 43.7171L36.8648 47.8914C35.8118 48.5859 34.393 48.2848 33.6974 47.23L30.8477 42.9089Z" fill="#2F83F7"/>
</svg>
