<svg width="22" height="29" viewBox="0 0 22 29" fill="none" xmlns="http://www.w3.org/2000/svg">
<g clip-path="url(#clip0_1496_16021)">
<path d="M15.2223 7.6069L19.6308 6.68563C20.02 6.60111 20.3077 6.25458 20.3077 5.85733V0.845291C20.3077 0.617086 20.2146 0.397334 20.0538 0.236746C19.8931 0.0761577 19.6646 -0.00836242 19.4362 8.95898e-05H2.54692C2.54692 8.95898e-05 2.15769 0.0338976 1.94615 0.245198C1.78538 0.405786 1.69231 0.617086 1.69231 0.845291V5.85733C1.69231 6.25458 1.97154 6.60111 2.36077 6.68563L6.76923 7.6069C2.80077 9.27195 0 13.1852 0 17.7493C0 23.8094 4.93308 28.7369 11 28.7369C17.0669 28.7369 22 23.8094 22 17.7493C22 13.1852 19.1992 9.2635 15.2223 7.6069V7.6069ZM18.6154 5.17272L15.2308 5.88269V1.7412C16.5254 1.7412 17.7015 1.7243 18.6154 1.7074V5.17272ZM3.38462 1.69894C4.13769 1.69894 5.34769 1.71585 6.76923 1.7243V5.88269L3.38462 5.17272V1.69894ZM8.46154 6.23768V1.73275C10.0862 1.73275 11.8546 1.74966 13.5385 1.74966V6.22922L10.9915 6.7617C10.9915 6.7617 10.9831 6.7617 10.9746 6.7617L8.46154 6.23768ZM14.5285 22.7952L10.89 20.8343L7.20923 22.7191L7.94538 18.6537L5.00923 15.7462L9.10462 15.1884L10.9662 11.5033L12.76 15.2222L16.8469 15.8561L13.86 18.7128L14.52 22.7952H14.5285Z" fill="#FFD075"/>
</g>
<defs>
<clipPath id="clip0_1496_16021">
<rect width="22" height="28.7368" fill="white"/>
</clipPath>
</defs>
</svg>
