<?xml version="1.0" encoding="utf-8"?>
<!-- Generator: Adobe Illustrator 27.0.1, SVG Export Plug-In . SVG Version: 6.00 Build 0)  -->
<svg version="1.1" id="레이어_1" xmlns="http://www.w3.org/2000/svg" xmlns:xlink="http://www.w3.org/1999/xlink" x="0px"
	 y="0px" viewBox="0 0 117 65" style="enable-background:new 0 0 117 65;" xml:space="preserve">
<style type="text/css">
	.st0{fill:#191919;}
</style>
<path class="st0" d="M84.7,0.3c-10.5,0-19.9,5.2-25.8,12.8C53,5.3,43.6,0.3,33.1,0.3C15.3,0.3,0.8,14.9,0.8,32.7
	C0.8,50.5,15.3,65,33.1,65c10.5,0,19.9-5.2,25.8-12.8C64.8,60,74.2,65,84.7,65c17.8,0,32.3-14.5,32.3-32.3
	C116.8,14.9,102.4,0.3,84.7,0.3z M62.3,17.5v12.8h-4.6V17.5H62.3z M43.5,30.4h14.2v4.4H43.5V30.4z M57.7,47.6V34.8h4.6v12.8H57.7z
	 M75.6,34.8H62.3v-4.4h13.4V34.8z"/>
</svg>
