<?xml version="1.0" encoding="utf-8"?>
<!-- Generator: Adobe Illustrator 27.0.1, SVG Export Plug-In . SVG Version: 6.00 Build 0)  -->
<svg version="1.1" id="레이어_1" xmlns="http://www.w3.org/2000/svg" xmlns:xlink="http://www.w3.org/1999/xlink" x="0px"
	 y="0px" viewBox="0 0 55 55" style="enable-background:new 0 0 55 55;" xml:space="preserve">
<style type="text/css">
	.st0{fill:#254FFE;}
	.st1{fill:#FFFFFF;}
</style>
<path class="st0" d="M14,0h27c7.7,0,14,6.3,14,14v27c0,7.7-6.3,14-14,14H14C6.3,55,0,48.7,0,41V14C0,6.3,6.3,0,14,0z"/>
<g>
	<g>
		<path class="st1" d="M29.2,36.8v-7.3c0-0.5-0.4-1-1-1c-0.5,0-1,0.4-1,1v7.3c-1.2,0.4-2,1.5-2,2.8c0,1.7,1.3,3,3,3c1.7,0,3-1.3,3-3
			C31.2,38.3,30.4,37.2,29.2,36.8z M28.2,40.7c-0.6,0-1.1-0.5-1.1-1.1c0-0.6,0.5-1.1,1.1-1.1c0.6,0,1.1,0.5,1.1,1.1
			C29.3,40.2,28.8,40.7,28.2,40.7z"/>
		<path class="st1" d="M23.5,28.6c-0.5,0-1,0.4-1,1v5.9h-0.4c-0.4-1.2-1.5-2-2.8-2c-1.7,0-3,1.3-3,3c0,1.7,1.3,3,3,3
			c1.3,0,2.4-0.9,2.8-2h1.3c0.5,0,1-0.4,1-1v-6.8C24.5,29,24.1,28.6,23.5,28.6z M19.4,37.5c-0.6,0-1.1-0.5-1.1-1.1
			c0-0.6,0.5-1.1,1.1-1.1c0.6,0,1.1,0.5,1.1,1.1C20.4,37,19.9,37.5,19.4,37.5z"/>
		<path class="st1" d="M37,33.4c-1.3,0-2.4,0.9-2.8,2h-0.4v-5.9c0-0.5-0.4-1-1-1c-0.5,0-1,0.4-1,1v6.8c0,0.5,0.4,1,1,1h1.3
			c0.4,1.2,1.5,2,2.8,2c1.7,0,3-1.3,3-3C40,34.7,38.6,33.4,37,33.4z M37,37.5c-0.6,0-1.1-0.5-1.1-1.1c0-0.6,0.5-1.1,1.1-1.1
			c0.6,0,1.1,0.5,1.1,1.1C38.1,37,37.6,37.5,37,37.5z"/>
	</g>
	<g>
		<path class="st1" d="M39,30.4c-0.1,0-20.3,0-21.1,0c-3.3,0-5.9-2.7-5.9-5.9c0-3.3,2.7-5.9,5.9-5.9c0.1,0,0.2,0,0.4,0
			c1.3-2.9,4.3-4.8,7.5-4.8c2.4,0,4.7,1,6.2,2.8c0.7-0.3,1.6-0.5,2.4-0.5c2.2,0,4.2,1.2,5.2,3.1c2.8,0.3,5.1,2.7,5.1,5.6
			C44.6,27.9,42.1,30.4,39,30.4z M17.8,20.4c-2.2,0-4,1.8-4,4c0,2.2,1.8,4,4,4c0.2,0,21,0,21.1,0c2,0,3.7-1.7,3.7-3.7
			c0-2-1.7-3.7-3.7-3.7l0,0c-0.4,0-0.7-0.2-0.9-0.6C37.4,19,35.9,18,34.3,18c-0.8,0-1.5,0.2-2.1,0.6c-0.4,0.3-1,0.2-1.3-0.3
			c-1.2-1.7-3.1-2.7-5.2-2.7c-2.7,0-5.1,1.7-6,4.2c-0.2,0.4-0.6,0.7-1.1,0.6C18.3,20.5,18.1,20.4,17.8,20.4z"/>
	</g>
</g>
</svg>
