<?xml version="1.0" encoding="utf-8"?>
<!-- Generator: Adobe Illustrator 27.0.1, SVG Export Plug-In . SVG Version: 6.00 Build 0)  -->
<svg version="1.1" id="레이어_1" xmlns="http://www.w3.org/2000/svg" xmlns:xlink="http://www.w3.org/1999/xlink" x="0px"
	 y="0px" viewBox="0 0 55 55" style="enable-background:new 0 0 55 55;" xml:space="preserve">
<style type="text/css">
	.st0{fill:#07B783;}
	.st1{fill:#FFFFFF;}
</style>
<path class="st0" d="M14,0h27c7.7,0,14,6.3,14,14v27c0,7.7-6.3,14-14,14H14C6.3,55,0,48.7,0,41V14C0,6.3,6.3,0,14,0z"/>
<path class="st1" d="M31.3,14.8h-0.1C31.3,14.8,31.3,14.8,31.3,14.8C31.4,14.8,31.3,14.8,31.3,14.8z"/>
<path class="st0" d="M21.7,39.8c0.7,0,1.3-0.6,1.3-1.3s-0.6-1.3-1.3-1.3s-1.3,0.6-1.3,1.3C20.4,39.2,21,39.8,21.7,39.8z"/>
<g>
	<g>
		<g>
			<path class="st1" d="M32.3,35.2c-0.4,0-0.8-0.3-0.9-0.7l-1-2.9c-0.2-0.5,0.1-1.1,0.6-1.2c0.5-0.2,1.1,0.1,1.2,0.6l1,2.9
				c0.2,0.5-0.1,1.1-0.6,1.2C32.5,35.2,32.4,35.2,32.3,35.2z"/>
		</g>
		<g>
			<path class="st1" d="M27.9,23.6c-0.4,0-0.8-0.2-0.9-0.6l-1.8-4.5c-0.2-0.5,0-1.1,0.5-1.3c0.5-0.2,1.1,0,1.3,0.5l1.8,4.5
				c0.2,0.5,0,1.1-0.5,1.3C28.1,23.6,28,23.6,27.9,23.6z"/>
		</g>
		<g>
			<path class="st1" d="M33.7,25.6c-0.3,0-0.7-0.2-0.8-0.5c-0.3-0.5-0.1-1.1,0.3-1.3l4.3-2.6c0.5-0.3,1.1-0.1,1.3,0.3
				c0.3,0.5,0.1,1.1-0.3,1.3l-4.3,2.6C34,25.6,33.8,25.6,33.7,25.6z"/>
		</g>
		<g>
			<path class="st1" d="M16.2,36.8c-0.3,0-0.6-0.2-0.8-0.5c-0.3-0.5-0.1-1.1,0.3-1.3l9.6-5.9c0.5-0.3,1.1-0.1,1.3,0.3
				c0.3,0.5,0.1,1.1-0.3,1.3l-9.6,5.9C16.5,36.7,16.3,36.8,16.2,36.8z"/>
		</g>
		<g>
			<path class="st1" d="M40.6,32.7c-0.1,0-0.3,0-0.4-0.1l-6.8-2.9c-0.5-0.2-0.7-0.8-0.5-1.3c0.2-0.5,0.8-0.7,1.3-0.5l6.8,2.9
				c0.5,0.2,0.7,0.8,0.5,1.3C41.4,32.5,41,32.7,40.6,32.7z"/>
		</g>
		<g>
			<path class="st1" d="M25.4,26.1c-0.1,0-0.3,0-0.4-0.1l-6.8-2.9c-0.5-0.2-0.7-0.8-0.5-1.3c0.2-0.5,0.8-0.7,1.3-0.5l6.8,2.9
				c0.5,0.2,0.7,0.8,0.5,1.3C26.1,25.9,25.7,26.1,25.4,26.1z"/>
		</g>
	</g>
	<g>
		<path class="st1" d="M33.4,39.9C33.4,39.9,33.4,39.9,33.4,39.9c-1.3,0-2.4-0.8-2.8-1.9c-0.6-1.6,0.2-3.3,1.7-3.9
			c0.4-0.1,0.7-0.2,1.1-0.2c1.3,0,2.4,0.8,2.8,1.9c0.6,1.6-0.2,3.3-1.7,3.9C34.1,39.8,33.7,39.9,33.4,39.9z M33.4,35.8
			c-0.1,0-0.3,0-0.4,0.1c-0.6,0.2-0.8,0.9-0.6,1.4c0.2,0.4,0.6,0.7,1,0.7c0.1,0,0.3,0,0.4-0.1c0.6-0.2,0.8-0.9,0.6-1.4
			C34.2,36,33.8,35.8,33.4,35.8z"/>
	</g>
	<g>
		<path class="st1" d="M25.1,18.6L25.1,18.6c-1.3,0-2.4-0.8-2.8-1.9c-0.3-0.8-0.3-1.6,0-2.3c0.3-0.7,0.9-1.3,1.7-1.6
			c0.4-0.1,0.7-0.2,1.1-0.2c1.3,0,2.4,0.8,2.8,1.9c0.3,0.8,0.3,1.6,0,2.3c-0.3,0.7-0.9,1.3-1.7,1.6C25.9,18.6,25.5,18.6,25.1,18.6z
			 M25.1,14.5c-0.1,0-0.3,0-0.4,0.1c-0.3,0.1-0.5,0.3-0.6,0.6c-0.1,0.3-0.1,0.6,0,0.8c0.2,0.4,0.6,0.7,1,0.7c0.1,0,0.3,0,0.4-0.1
			c0.3-0.1,0.5-0.3,0.6-0.6c0.1-0.3,0.1-0.6,0-0.8C26,14.8,25.6,14.5,25.1,14.5z"/>
	</g>
	<g>
		<path class="st1" d="M29.6,32.3c-2.2,0-4.2-1.3-5-3.4c-1.1-2.8,0.3-5.9,3.1-7c0.6-0.3,1.3-0.4,2-0.4c2.2,0,4.2,1.3,5,3.4
			c0.5,1.3,0.5,2.8-0.1,4.2c-0.6,1.3-1.6,2.4-3,2.9C30.9,32.1,30.2,32.3,29.6,32.3z M29.6,23.4c-0.4,0-0.9,0.1-1.3,0.2
			c-1.8,0.7-2.7,2.7-2,4.5c0.5,1.3,1.8,2.2,3.2,2.2c0.4,0,0.9-0.1,1.3-0.2c0.9-0.3,1.5-1,1.9-1.9c0.4-0.9,0.4-1.8,0-2.7
			C32.3,24.2,31,23.4,29.6,23.4z"/>
	</g>
	<g>
		<path class="st1" d="M40.6,24.1C40.6,24.1,40.6,24.1,40.6,24.1c-1.3,0-2.4-0.8-2.8-1.9c-0.3-0.8-0.3-1.6,0-2.3
			c0.3-0.7,0.9-1.3,1.7-1.6c0.4-0.1,0.7-0.2,1.1-0.2c1.3,0,2.4,0.8,2.8,1.9c0.6,1.6-0.2,3.3-1.7,3.9C41.4,24,41,24.1,40.6,24.1z
			 M40.6,20c-0.1,0-0.3,0-0.4,0.1c-0.3,0.1-0.5,0.3-0.6,0.6c-0.1,0.3-0.1,0.6,0,0.8c0.2,0.4,0.6,0.7,1,0.7c0.1,0,0.3,0,0.4-0.1
			c0.6-0.2,0.8-0.9,0.6-1.4C41.5,20.3,41.1,20,40.6,20z"/>
	</g>
	<g>
		<path class="st1" d="M13.5,39.9C13.5,39.9,13.5,39.9,13.5,39.9c-1.3,0-2.4-0.8-2.8-1.9c-0.6-1.6,0.2-3.3,1.7-3.9
			c0.4-0.1,0.7-0.2,1.1-0.2c1.3,0,2.4,0.8,2.8,1.9c0.3,0.8,0.3,1.6,0,2.3c-0.3,0.7-0.9,1.3-1.7,1.6C14.3,39.8,13.9,39.9,13.5,39.9z
			 M13.5,35.8c-0.1,0-0.3,0-0.4,0.1c-0.6,0.2-0.8,0.9-0.6,1.4c0.2,0.4,0.6,0.7,1,0.7c0.1,0,0.3,0,0.4-0.1c0.3-0.1,0.5-0.3,0.6-0.6
			c0.1-0.3,0.1-0.6,0-0.8C14.4,36,14,35.8,13.5,35.8z"/>
	</g>
	<g>
		<path class="st1" d="M43.2,35.9C43.2,35.9,43.2,35.9,43.2,35.9c-0.4,0-0.8-0.1-1.2-0.3c-1.5-0.7-2.2-2.5-1.6-4
			c0.5-1.1,1.6-1.8,2.8-1.8c0.4,0,0.8,0.1,1.2,0.3c1.5,0.7,2.2,2.5,1.6,4C45.5,35.2,44.4,35.9,43.2,35.9z M43.2,31.8
			c-0.4,0-0.8,0.3-1,0.7c-0.2,0.6,0,1.2,0.6,1.4c0.1,0.1,0.3,0.1,0.4,0.1c0,0,0,0,0,0c0.4,0,0.8-0.3,1-0.7c0.2-0.6,0-1.2-0.6-1.4
			C43.5,31.8,43.4,31.8,43.2,31.8z"/>
	</g>
	<g>
		<path class="st1" d="M16,24.1c-0.4,0-0.8-0.1-1.2-0.3c-0.7-0.3-1.3-0.9-1.6-1.7c-0.3-0.8-0.3-1.6,0-2.3c0.5-1.1,1.6-1.8,2.8-1.8
			c0.4,0,0.8,0.1,1.2,0.3c0.7,0.3,1.3,0.9,1.6,1.7c0.3,0.8,0.3,1.6,0,2.3C18.3,23.4,17.2,24.1,16,24.1z M16,20c-0.4,0-0.8,0.3-1,0.7
			c-0.1,0.3-0.1,0.6,0,0.8c0.1,0.3,0.3,0.5,0.6,0.6c0.1,0.1,0.3,0.1,0.4,0.1c0.4,0,0.8-0.3,1-0.7c0.1-0.3,0.1-0.6,0-0.8
			c-0.1-0.3-0.3-0.5-0.6-0.6C16.3,20,16.1,20,16,20z"/>
	</g>
</g>
</svg>
