<?xml version="1.0" encoding="utf-8"?>
<!-- Generator: Adobe Illustrator 27.0.1, SVG Export Plug-In . SVG Version: 6.00 Build 0)  -->
<svg version="1.1" id="레이어_1" xmlns="http://www.w3.org/2000/svg" xmlns:xlink="http://www.w3.org/1999/xlink" x="0px"
	 y="0px" viewBox="0 0 55 55" style="enable-background:new 0 0 55 55;" xml:space="preserve">
<style type="text/css">
	.st0{fill:#00D5E2;}
	.st1{fill:#FFFFFF;}
</style>
<path class="st0" d="M14,0h27c7.7,0,14,6.3,14,14v27c0,7.7-6.3,14-14,14H14C6.3,55,0,48.7,0,41V14C0,6.3,6.3,0,14,0z"/>
<g>
	<path class="st1" d="M42.5,16.9c0-1.4-1.1-2.6-2.6-2.6H15.1c-1.4,0-2.6,1.1-2.6,2.6V22c0,0.6,0.2,1.1,0.5,1.5
		c-0.3,0.4-0.5,0.9-0.5,1.5V30c0,0.6,0.2,1.1,0.5,1.5c-0.3,0.4-0.5,0.9-0.5,1.5v5.1c0,1.4,1.1,2.6,2.6,2.6h24.9
		c1.4,0,2.6-1.1,2.6-2.6V33c0-0.6-0.2-1.1-0.5-1.5c0.3-0.4,0.5-0.9,0.5-1.5V25c0-0.5-0.2-1-0.5-1.5c0,0,0,0-0.1,0
		c0.3-0.4,0.5-1,0.5-1.5V16.9z M14.6,16.9c0-0.2,0.2-0.4,0.4-0.4h24.9c0.2,0,0.4,0.2,0.4,0.4V22c0,0.2-0.2,0.4-0.4,0.4H15.1
		c-0.2,0-0.4-0.2-0.4-0.4V16.9z M40.4,25V30c0,0.2-0.2,0.4-0.4,0.4H15.1c-0.2,0-0.4-0.2-0.4-0.4V25c0-0.2,0.2-0.4,0.4-0.4h24.9
		C40.2,24.5,40.4,24.7,40.4,25z M40.4,38.1c0,0.2-0.2,0.4-0.4,0.4H15.1c-0.2,0-0.4-0.2-0.4-0.4V33c0-0.2,0.2-0.4,0.4-0.4h24.9
		c0.2,0,0.4,0.2,0.4,0.4V38.1z"/>
	<path class="st1" d="M27.6,20.5h6.1c0.6,0,1.1-0.5,1.1-1.1c0-0.6-0.5-1.1-1.1-1.1h-6.1c-0.6,0-1.1,0.5-1.1,1.1
		C26.6,20.1,27.1,20.5,27.6,20.5z"/>
	<path class="st1" d="M24.2,20.5h0.4c0.6,0,1.1-0.5,1.1-1.1c0-0.6-0.5-1.1-1.1-1.1h-0.4c-0.6,0-1.1,0.5-1.1,1.1
		C23.2,20.1,23.6,20.5,24.2,20.5z"/>
	<path class="st1" d="M20.8,20.5h0.4c0.6,0,1.1-0.5,1.1-1.1c0-0.6-0.5-1.1-1.1-1.1h-0.4c-0.6,0-1.1,0.5-1.1,1.1
		C19.7,20.1,20.2,20.5,20.8,20.5z"/>
	<path class="st1" d="M17.3,20.5h0.4c0.6,0,1.1-0.5,1.1-1.1c0-0.6-0.5-1.1-1.1-1.1h-0.4c-0.6,0-1.1,0.5-1.1,1.1
		C16.3,20.1,16.8,20.5,17.3,20.5z"/>
	<path class="st1" d="M27.6,28.6h6.1c0.6,0,1.1-0.5,1.1-1.1c0-0.6-0.5-1.1-1.1-1.1h-6.1c-0.6,0-1.1,0.5-1.1,1.1
		C26.6,28.1,27.1,28.6,27.6,28.6z"/>
	<path class="st1" d="M24.2,28.6h0.4c0.6,0,1.1-0.5,1.1-1.1c0-0.6-0.5-1.1-1.1-1.1h-0.4c-0.6,0-1.1,0.5-1.1,1.1
		C23.2,28.1,23.6,28.6,24.2,28.6z"/>
	<path class="st1" d="M20.8,28.6h0.4c0.6,0,1.1-0.5,1.1-1.1c0-0.6-0.5-1.1-1.1-1.1h-0.4c-0.6,0-1.1,0.5-1.1,1.1
		C19.7,28.1,20.2,28.6,20.8,28.6z"/>
	<path class="st1" d="M17.3,28.6h0.4c0.6,0,1.1-0.5,1.1-1.1c0-0.6-0.5-1.1-1.1-1.1h-0.4c-0.6,0-1.1,0.5-1.1,1.1
		C16.3,28.1,16.8,28.6,17.3,28.6z"/>
	<path class="st1" d="M33.7,34.5h-6.1c-0.6,0-1.1,0.5-1.1,1.1s0.5,1.1,1.1,1.1h6.1c0.6,0,1.1-0.5,1.1-1.1S34.3,34.5,33.7,34.5z"/>
	<path class="st1" d="M24.7,34.5h-0.4c-0.6,0-1.1,0.5-1.1,1.1s0.5,1.1,1.1,1.1h0.4c0.6,0,1.1-0.5,1.1-1.1S25.3,34.5,24.7,34.5z"/>
	<path class="st1" d="M21.2,34.5h-0.4c-0.6,0-1.1,0.5-1.1,1.1s0.5,1.1,1.1,1.1h0.4c0.6,0,1.1-0.5,1.1-1.1S21.8,34.5,21.2,34.5z"/>
	<path class="st1" d="M17.8,34.5h-0.4c-0.6,0-1.1,0.5-1.1,1.1s0.5,1.1,1.1,1.1h0.4c0.6,0,1.1-0.5,1.1-1.1S18.4,34.5,17.8,34.5z"/>
</g>
</svg>
