<?xml version="1.0" encoding="utf-8"?>
<!-- Generator: Adobe Illustrator 27.0.1, SVG Export Plug-In . SVG Version: 6.00 Build 0)  -->
<svg version="1.1" id="레이어_1" xmlns="http://www.w3.org/2000/svg" xmlns:xlink="http://www.w3.org/1999/xlink" x="0px"
	 y="0px" viewBox="0 0 55 55" style="enable-background:new 0 0 55 55;" xml:space="preserve">
<style type="text/css">
	.st0{fill:#032F70;}
	.st1{fill:#FFFFFF;}
</style>
<path class="st0" d="M14,0h27c7.7,0,14,6.3,14,14v27c0,7.7-6.3,14-14,14H14C6.3,55,0,48.7,0,41V14C0,6.3,6.3,0,14,0z"/>
<g>
	<path class="st1" d="M28.6,16.9c-0.1,0-0.3,0.1-0.3,0.3c0,0.2,0.1,0.3,0.3,0.3h2.3c0.1,0,0.3-0.1,0.3-0.3v-1.4
		c0-0.2-0.1-0.3-0.3-0.3c-0.2,0-0.3,0.1-0.3,0.3v1.2H30V13h-1.4c-0.1,0-0.3,0.1-0.3,0.3c0,0.2,0.1,0.3,0.3,0.3h0.8v3.3H28.6z"/>
	<path class="st1" d="M20.3,23.7c-0.1,0-0.3,0.1-0.3,0.3c0,0.2,0.1,0.3,0.3,0.3h2.3c0.1,0,0.3-0.1,0.3-0.3v-1.4
		c0-0.2-0.1-0.3-0.3-0.3c-0.2,0-0.3,0.1-0.3,0.3v1.2h-0.6v-3.9h-1.4c-0.1,0-0.3,0.1-0.3,0.3c0,0.2,0.1,0.3,0.3,0.3h0.8v3.3H20.3z"/>
	<path class="st1" d="M28.6,23.7c-0.1,0-0.3,0.1-0.3,0.3c0,0.2,0.1,0.3,0.3,0.3h2.3c0.1,0,0.3-0.1,0.3-0.3v-1.4
		c0-0.2-0.1-0.3-0.3-0.3c-0.2,0-0.3,0.1-0.3,0.3v1.2H30v-3.9h-1.4c-0.1,0-0.3,0.1-0.3,0.3c0,0.2,0.1,0.3,0.3,0.3h0.8v3.3H28.6z"/>
	<path class="st1" d="M20.6,17.4h1.7c0.3,0,0.6-0.3,0.6-0.6v-3.3c0-0.3-0.3-0.6-0.6-0.6h-1.7c-0.3,0-0.6,0.3-0.6,0.6v3.3
		C20,17.2,20.3,17.4,20.6,17.4z M20.6,13.6h1.7v3.3h-1.7V13.6z"/>
	<path class="st1" d="M24.7,17.4h1.7c0.3,0,0.6-0.3,0.6-0.6v-3.3c0-0.3-0.3-0.6-0.6-0.6h-1.7c-0.3,0-0.6,0.3-0.6,0.6v3.3
		C24.2,17.2,24.4,17.4,24.7,17.4z M24.7,13.6h1.7v3.3h-1.7V13.6z"/>
	<path class="st1" d="M24.7,24.3h1.7c0.3,0,0.6-0.3,0.6-0.6v-3.3c0-0.3-0.3-0.6-0.6-0.6h-1.7c-0.3,0-0.6,0.3-0.6,0.6v3.3
		C24.2,24,24.4,24.3,24.7,24.3z M24.7,20.4h1.7v3.3h-1.7V20.4z"/>
	<path class="st1" d="M14,26.7h-1.7c-0.3,0-0.6,0.3-0.6,0.6v3.3c0,0.3,0.2,0.6,0.6,0.6H14c0.3,0,0.6-0.3,0.6-0.6v-3.3
		C14.6,27,14.4,26.7,14,26.7z M14,30.6h-1.7v-3.3H14V30.6z"/>
	<path class="st1" d="M18.5,15.4c-0.2,0-0.3,0.1-0.3,0.3v1.2h-0.6V13h-1.4c-0.1,0-0.3,0.1-0.3,0.3c0,0.2,0.1,0.3,0.3,0.3H17v3.3
		h-0.8c-0.1,0-0.3,0.1-0.3,0.3c0,0.2,0.1,0.3,0.3,0.3h2.3c0.1,0,0.3-0.1,0.3-0.3v-1.4C18.7,15.5,18.7,15.4,18.5,15.4z"/>
	<path class="st1" d="M18.2,26.7h-1.7c-0.3,0-0.6,0.3-0.6,0.6v3.3c0,0.3,0.2,0.6,0.6,0.6h1.7c0.3,0,0.6-0.3,0.6-0.6v-3.3
		C18.7,27,18.5,26.7,18.2,26.7z M18.2,30.6h-1.7v-3.3h1.7V30.6z"/>
	<path class="st1" d="M18.2,19.8h-1.7c-0.3,0-0.6,0.3-0.6,0.6v3.3c0,0.3,0.2,0.6,0.6,0.6h1.7c0.3,0,0.6-0.3,0.6-0.6v-3.3
		C18.7,20.1,18.5,19.8,18.2,19.8z M18.2,23.7h-1.7v-3.3h1.7V23.7z"/>
	<path class="st1" d="M20.3,30.6c-0.1,0-0.3,0.1-0.3,0.3c0,0.2,0.1,0.3,0.3,0.3h1.5c0-0.1,0.1-0.3,0.1-0.4c0-0.1,0-0.1,0-0.2h-0.2
		v-3.9h-1.4c-0.1,0-0.3,0.1-0.3,0.3c0,0.2,0.1,0.3,0.3,0.3h0.8v3.3H20.3z"/>
	<path class="st1" d="M22.4,35.8c0-0.1-0.1-0.2-0.1-0.2v1.9h-1.7v-3.3h1.2c0-0.2-0.1-0.4-0.1-0.6h-1.1c-0.3,0-0.6,0.3-0.6,0.6v3.3
		c0,0.3,0.2,0.6,0.6,0.6h1.7c0.3,0,0.6-0.3,0.6-0.6v-0.9C22.7,36.3,22.5,36.1,22.4,35.8z"/>
	<path class="st1" d="M14.3,36c-0.2,0-0.3,0.1-0.3,0.3v1.2h-0.6v-3.9h-1.4c-0.1,0-0.3,0.1-0.3,0.3c0,0.2,0.1,0.3,0.3,0.3h0.8v3.3
		h-0.8c-0.1,0-0.3,0.1-0.3,0.3c0,0.2,0.1,0.3,0.3,0.3h2.3c0.1,0,0.3-0.1,0.3-0.3v-1.4C14.6,36.1,14.5,36,14.3,36z"/>
	<path class="st1" d="M18.2,33.6h-1.7c-0.3,0-0.6,0.3-0.6,0.6v3.3c0,0.3,0.2,0.6,0.6,0.6h1.7c0.3,0,0.6-0.3,0.6-0.6v-3.3
		C18.7,33.8,18.5,33.6,18.2,33.6z M18.2,37.5h-1.7v-3.3h1.7V37.5z"/>
	<path class="st1" d="M14.3,22.3c-0.2,0-0.3,0.1-0.3,0.3v1.2h-0.6v-3.9h-1.4c-0.1,0-0.3,0.1-0.3,0.3c0,0.2,0.1,0.3,0.3,0.3h0.8v3.3
		h-0.8c-0.1,0-0.3,0.1-0.3,0.3c0,0.2,0.1,0.3,0.3,0.3h2.3c0.1,0,0.3-0.1,0.3-0.3v-1.4C14.6,22.4,14.5,22.3,14.3,22.3z"/>
	<path class="st1" d="M14,13h-1.7c-0.3,0-0.6,0.3-0.6,0.6v3.3c0,0.3,0.2,0.6,0.6,0.6H14c0.3,0,0.6-0.3,0.6-0.6v-3.3
		C14.6,13.2,14.4,13,14,13z M14,16.9h-1.7v-3.3H14V16.9z"/>
	<g>
		<path class="st1" d="M29.5,35.3c-0.2,0-0.4,0.1-0.4,0.4c0,0.3,0.2,0.4,0.4,0.4h3c0.2,0,0.4-0.1,0.4-0.4v-1.9
			c0-0.2-0.1-0.4-0.4-0.4c-0.3,0-0.4,0.2-0.4,0.4v1.5h-0.7v-5.1h-1.9c-0.2,0-0.4,0.1-0.4,0.4c0,0.3,0.2,0.4,0.4,0.4h1.1v4.3H29.5z"
			/>
		<path class="st1" d="M24.5,36h2.2c0.4,0,0.7-0.3,0.7-0.7V31c0-0.4-0.3-0.7-0.7-0.7h-2.2c-0.4,0-0.7,0.3-0.7,0.7v4.3
			C23.7,35.7,24,36,24.5,36z M24.5,31h2.2v4.3h-2.2V31z"/>
	</g>
	<path class="st1" d="M45.9,47.2l-8.6-8.6c-0.2-0.2-0.4-0.3-0.7-0.3c-0.3,0-0.5,0.1-0.7,0.3l-0.3,0.3l-0.8-0.8
		c1.1-1.4,1.7-3.2,1.7-5c0-2.2-0.9-4.3-2.4-5.8c-1.6-1.6-3.6-2.4-5.8-2.4c-2.2,0-4.3,0.9-5.8,2.4c-1.6,1.6-2.4,3.6-2.4,5.8
		s0.9,4.3,2.4,5.8c1.6,1.6,3.6,2.4,5.8,2.4c0,0,0,0,0,0c1.9,0,3.6-0.6,5-1.7l0.8,0.8l-0.3,0.3c-0.2,0.2-0.3,0.4-0.3,0.7
		c0,0.3,0.1,0.5,0.3,0.7l8.6,8.6c0.2,0.2,0.5,0.3,0.7,0.3c0.3,0,0.5-0.1,0.7-0.3l2-2C46.3,48.3,46.3,47.6,45.9,47.2z M24,37.5
		c-1.2-1.2-1.8-2.7-1.8-4.4c0-1.7,0.6-3.2,1.8-4.4c1.2-1.2,2.7-1.8,4.4-1.8s3.2,0.6,4.4,1.8c1.2,1.2,1.8,2.7,1.8,4.4
		c0,1.7-0.6,3.2-1.8,4.4c-1.2,1.2-2.7,1.8-4.4,1.8C26.7,39.3,25.2,38.7,24,37.5z M43.2,48.6L36,41.4l0.6-0.6l7.2,7.2L43.2,48.6z"/>
</g>
</svg>
