<svg xmlns="http://www.w3.org/2000/svg" viewBox="0 0 145.7 66.53"><defs><style>.cls-1{fill:#fff;}</style></defs><g id="레이어_2" data-name="레이어 2"><g id="Layer_1" data-name="Layer 1"><path class="cls-1" d="M40.45,0V11.94s5.44.9,5.44,7.78V49.55H57.16V20.1C56.24,1,40.45,0,40.45,0Z"/><path class="cls-1" d="M97.24,20.9a19.05,19.05,0,0,0-6.17-3.85,20.49,20.49,0,0,0-7.37-1.34,19.89,19.89,0,0,0-7.25,1.34,19.65,19.65,0,0,0-6.18,3.85A18.42,18.42,0,0,0,66,26.75a16.75,16.75,0,0,0,0,13.59,18.42,18.42,0,0,0,4.23,5.85A19.47,19.47,0,0,0,76.45,50a19.89,19.89,0,0,0,7.25,1.34A20.49,20.49,0,0,0,91.07,50a18.89,18.89,0,0,0,6.17-3.85,17.5,17.5,0,0,0,4.14-5.78,17.3,17.3,0,0,0,0-13.73A17.6,17.6,0,0,0,97.24,20.9ZM89.17,39a7.48,7.48,0,0,1-5.48,2.28A7.29,7.29,0,0,1,78.3,39a7.92,7.92,0,0,1,0-11,7.3,7.3,0,0,1,5.39-2.29,7.8,7.8,0,0,1,7.76,7.81A7.52,7.52,0,0,1,89.17,39Z"/><path class="cls-1" d="M22.83,15.84c-4.68.16-8.65,1-11.64,3.58h-.14V1H0V49.19H11.05V46.85h.14a16,16,0,0,0,10,3.13c4.87,0,9.34-1.38,12.26-4.67s4.36-6.39,4.36-11.82A19.31,19.31,0,0,0,33.5,21.1C31,18.22,26.83,15.71,22.83,15.84ZM24,39.07a7.46,7.46,0,0,1-5.48,2.28,7.27,7.27,0,0,1-5.38-2.28,7.93,7.93,0,0,1,0-11,7.27,7.27,0,0,1,5.38-2.28A7.46,7.46,0,0,1,24,28a7.83,7.83,0,0,1,0,11.05Z"/><path class="cls-1" d="M134.72,16.05v2.64h-.15c-2.67-2.44-5.4-3.49-9.73-3.49-4.84,0-9.07,1.61-12,5.08s-4.46,8.12-4.46,14q0,7.86,4,12.54a14.26,14.26,0,0,0,11.14,4.79c4.88,0,8.57-1.26,11.08-4.74h.15v2.25c0,5.82-6.18,8.78-10.67,8.33V66.2c5.38.77,11.78.47,16.26-3.8,3.78-3.58,5.39-8.74,5.39-17.21V16.05Zm-2.12,23a7.46,7.46,0,0,1-5.48,2.28,7.27,7.27,0,0,1-5.38-2.28,7.93,7.93,0,0,1,0-11,7.27,7.27,0,0,1,5.38-2.28A7.46,7.46,0,0,1,132.6,28a7.83,7.83,0,0,1,0,11.05Z"/></g></g></svg>